<svg width="34" height="35" viewBox="0 0 34 35" xmlns="http://www.w3.org/2000/svg">
<path d="M11.3334 24.9281V10.2514C11.3334 9.13222 12.5659 8.45222 13.515 9.06139L25.0467 16.3997C25.2486 16.5275 25.4149 16.7042 25.5301 16.9135C25.6454 17.1228 25.7058 17.3579 25.7058 17.5968C25.7058 17.8357 25.6454 18.0708 25.5301 18.2801C25.4149 18.4894 25.2486 18.6661 25.0467 18.7939L13.515 26.1181C13.3014 26.2563 13.0543 26.3342 12.8 26.3437C12.5457 26.3532 12.2936 26.2939 12.0702 26.1721C11.8468 26.0502 11.6604 25.8703 11.5307 25.6514C11.401 25.4324 11.3329 25.1825 11.3334 24.9281Z"/>
</svg>
