<svg width="34" height="35" viewBox="0 0 34 35" xmlns="http://www.w3.org/2000/svg">
<path d="M22.6667 10.2516V24.9283C22.6667 26.0475 21.4342 26.7275 20.4851 26.1183L8.95341 18.78C8.75152 18.6522 8.58523 18.4754 8.46999 18.2661C8.35476 18.0568 8.29433 17.8218 8.29433 17.5829C8.29433 17.344 8.35476 17.1089 8.46999 16.8996C8.58523 16.6903 8.75152 16.5136 8.95341 16.3858L20.4851 9.06163C20.6988 8.92343 20.9458 8.84546 21.2001 8.83595C21.4544 8.82644 21.7065 8.88574 21.9299 9.0076C22.1533 9.12945 22.3397 9.30935 22.4694 9.5283C22.5991 9.74726 22.6673 9.99716 22.6667 10.2516Z"/>
</svg>
