<svg class="svgicon svgicon-calendar" xmlns="http://www.w3.org/2000/svg" width="13" height="13" viewBox="0 0 13 13"><path d="M11.5556 13H1.44444C1.06135 13 0.693954 12.863 0.423068 12.6192C0.152182 12.3754 0 12.0448 0 11.7V2.6C0 2.25522 0.152182 1.92456 0.423068 1.68076C0.693954 1.43696 1.06135 1.3 1.44444 1.3H2.88889V0H4.33333V1.3H8.66667V0H10.1111V1.3H11.5556C11.9386 1.3 12.306 1.43696 12.5769 1.68076C12.8478 1.92456 13 2.25522 13 2.6V11.7C13 12.0448 12.8478 12.3754 12.5769 12.6192C12.306 12.863 11.9386 13 11.5556 13ZM1.44444 5.2V11.7H11.5556V5.2H1.44444ZM1.44444 2.6V3.9H11.5556V2.6H1.44444ZM10.1111 7.8H2.88889V6.5H10.1111V7.8Z"/></svg>