<svg width="88" height="88" viewBox="0 0 312 312" fill="none" xmlns="http://www.w3.org/2000/svg">
<path d="M156 26.6665C227.431 26.6665 285.333 84.582 285.333 156C285.333 227.418 227.431 285.333 156 285.333C84.5693 285.333 26.6667 227.418 26.6667 156C26.6667 84.582 84.5693 26.6665 156 26.6665ZM156.026 194.852C154.296 194.797 152.572 195.09 150.957 195.715C149.343 196.339 147.87 197.281 146.627 198.486C145.383 199.691 144.395 201.133 143.72 202.727C143.045 204.321 142.697 206.034 142.697 207.765C142.697 209.497 143.045 211.21 143.72 212.804C144.395 214.398 145.383 215.84 146.627 217.045C147.87 218.25 149.343 219.192 150.957 219.816C152.572 220.441 154.296 220.734 156.026 220.679C159.38 220.573 162.562 219.166 164.897 216.756C167.232 214.346 168.538 211.121 168.538 207.765C168.538 204.41 167.232 201.185 164.897 198.775C162.562 196.365 159.38 194.958 156.026 194.852ZM156 91.3332C152.83 91.334 149.771 92.4988 147.404 94.6064C145.036 96.7141 143.525 99.6178 143.157 102.766L143.067 104.266L143.093 168.946L143.183 170.459C143.557 173.603 145.071 176.5 147.438 178.602C149.805 180.704 152.86 181.865 156.026 181.865C159.192 181.865 162.247 180.704 164.614 178.602C166.981 176.5 168.495 173.603 168.869 170.459L168.959 168.946L168.933 104.266L168.843 102.753C168.472 99.6073 166.96 96.7066 164.593 94.6016C162.225 92.4966 159.168 91.3336 156 91.3332Z" fill="#F32E2E"/>
</svg>
