<svg width="109" height="86" viewBox="0 0 109 86" fill="none" xmlns="http://www.w3.org/2000/svg">
<path d="M30.8292 28.6376L14.9469 39.2618L30.5909 62.6481L46.4731 52.0239L30.8292 28.6376Z" fill="#F5F5F5"/>
<path d="M38.2659 50.9177L38.0861 52.0332L30.1903 50.8951L30.3701 49.7797L38.2659 50.9177Z" fill="#E0E0E0"/>
<path d="M34.2897 46.9387L35.4221 47.1015L34.1665 54.8755L33.0327 54.7113L34.2897 46.9387Z" fill="#E0E0E0"/>
<path d="M27.0238 37.0584C27.0351 37.074 25.4441 38.1597 23.4694 39.4789C21.4948 40.7982 19.8853 41.857 19.874 41.84C19.8627 41.823 21.4537 40.7387 23.4284 39.4181C25.403 38.0974 27.0054 37.0414 27.0238 37.0584Z" fill="#E0E0E0"/>
<path d="M32.8586 35.5919C32.8699 35.6089 30.2229 37.3981 26.9474 39.5893C23.6719 41.7806 21.0022 43.5429 20.9937 43.5273C20.9852 43.5117 23.6266 41.7197 26.9063 39.5285C30.1861 37.3372 32.8473 35.5749 32.8586 35.5919Z" fill="#E0E0E0"/>
<path d="M34.0292 37.3415C34.0405 37.3585 31.3935 39.1491 28.118 41.3403C24.8425 43.5316 22.1728 45.2939 22.1643 45.2769C22.1558 45.2599 24.8 43.4707 28.077 41.2781C31.3539 39.0854 34.0179 37.3245 34.0292 37.3415Z" fill="#E0E0E0"/>
<path d="M35.1999 39.0925C35.2112 39.1095 32.5642 40.9001 29.2886 43.0899C26.0131 45.2797 23.3435 47.0449 23.3435 47.0279C23.3435 47.0109 25.9777 45.2203 29.2547 43.029C32.5316 40.8378 35.1885 39.0755 35.1999 39.0925Z" fill="#E0E0E0"/>
<path d="M36.3662 40.8435C36.3776 40.8605 33.7305 42.6497 30.455 44.8409C27.1795 47.0321 24.5098 48.7945 24.5028 48.7775C24.4957 48.7605 27.1413 46.9713 30.4211 44.7801C33.7008 42.5888 36.3662 40.8265 36.3662 40.8435Z" fill="#E0E0E0"/>
<path d="M83.9375 44.3079L70.599 53.2306L83.737 72.8707L97.0755 63.9481L83.9375 44.3079Z" fill="#F5F5F5"/>
<path d="M90.1843 63.0233L90.0329 63.9604L83.4012 63.0049L83.554 62.0678L90.1843 63.0233Z" fill="#1F3048"/>
<path d="M86.8451 59.6812L87.7964 59.8185L86.7418 66.3469L85.7891 66.2096L86.8451 59.6812Z" fill="#1F3048"/>
<path d="M80.7372 51.3905C80.7485 51.4075 79.4136 52.3205 77.7547 53.4289C76.0957 54.5372 74.7424 55.4233 74.7311 55.4106C74.7198 55.3979 76.056 54.482 77.7136 53.3722C79.3712 52.2625 80.7258 51.3665 80.7372 51.3905Z" fill="#E0E0E0"/>
<path d="M85.6419 50.1519C85.6533 50.1689 83.4323 51.675 80.6876 53.5138C77.9429 55.3526 75.6965 56.8332 75.6852 56.8162C75.6738 56.7992 77.8948 55.2931 80.6395 53.4529C83.3842 51.6128 85.6264 50.135 85.6419 50.1519Z" fill="#E0E0E0"/>
<path d="M86.6257 51.6213C86.637 51.6382 84.4161 53.1444 81.6714 54.9845C78.9267 56.8247 76.6803 58.3025 76.6689 58.2855C76.6576 58.2685 78.8715 56.7695 81.6233 54.9293C84.375 53.0892 86.6172 51.6057 86.6257 51.6213Z" fill="#E0E0E0"/>
<path d="M87.6081 53.0892C87.6194 53.1061 85.397 54.6123 82.6538 56.4524C79.9105 58.2926 77.6626 59.7704 77.6513 59.7534C77.64 59.7364 79.8609 58.2317 82.6056 56.3901C85.3503 54.5486 87.5982 53.075 87.6081 53.0892Z" fill="#E0E0E0"/>
<path d="M88.599 54.5627C88.6103 54.5797 86.3893 56.0844 83.6446 57.9246C80.8999 59.7647 78.6535 61.2425 78.6422 61.227C78.6309 61.2114 80.8518 59.7039 83.5965 57.8637C86.3412 56.0235 88.5806 54.5457 88.599 54.5627Z" fill="#E0E0E0"/>
<path d="M62.8353 29.498L48.2812 21.7138L36.8192 43.1442L51.3733 50.9284L62.8353 29.498Z" fill="#F5F5F5"/>
<path d="M48.8823 44.2238L47.9594 44.5394L45.6152 38.0606L46.5396 37.7435L48.8823 44.2238Z" fill="#E0E0E0"/>
<path d="M50.2978 39.5752L50.6347 40.5052L44.1997 42.7091L43.8628 41.7791L50.2978 39.5752Z" fill="#E0E0E0"/>
<path d="M54.8699 30.0162C54.8586 30.0374 53.3836 29.2702 51.5732 28.3034C49.7627 27.3366 48.3062 26.534 48.3175 26.5128C48.3288 26.4915 49.8052 27.2587 51.6157 28.2255C53.4261 29.1923 54.8813 29.9935 54.8699 30.0162Z" fill="#E0E0E0"/>
<path d="M58.3634 33.8706C58.3521 33.8919 55.9089 32.6066 52.9066 31.0014C49.9043 29.3962 47.4809 28.0769 47.4922 28.0557C47.5036 28.0344 49.9453 29.3183 52.9477 30.9249C55.95 32.5316 58.3748 33.8494 58.3634 33.8706Z" fill="#E0E0E0"/>
<path d="M57.5056 35.4744C57.4943 35.4956 55.0511 34.2118 52.0488 32.6052C49.0465 30.9985 46.6231 29.6807 46.6344 29.6595C46.6458 29.6382 49.0875 30.9235 52.0898 32.5287C55.0922 34.1339 57.517 35.4532 57.5056 35.4744Z" fill="#E0E0E0"/>
<path d="M56.6478 37.0782C56.6365 37.0994 54.1933 35.8156 51.191 34.2104C48.1887 32.6052 45.7653 31.2901 45.7766 31.2647C45.788 31.2392 48.2297 32.5273 51.232 34.1325C54.2344 35.7377 56.6591 37.057 56.6478 37.0782Z" fill="#E0E0E0"/>
<path d="M55.79 38.682C55.7787 38.7032 53.3355 37.4193 50.3332 35.8141C47.3309 34.2089 44.9061 32.8897 44.9188 32.8684C44.9316 32.8472 47.3719 34.1311 50.3742 35.7363C53.3766 37.3415 55.8013 38.6607 55.79 38.682Z" fill="#E0E0E0"/>
<path opacity="0.2" d="M55.865 11.3313H55.4998V17.5568H55.865V11.3313Z" fill="black"/>
<path d="M47.1567 25.0888H64.2081C64.2081 25.0888 62.634 17.5596 55.5536 17.5596C49.256 17.5596 47.1567 25.0888 47.1567 25.0888Z" fill="#FDBC2B"/>
<path d="M55.865 11.3313H55.4998V17.5568H55.865V11.3313Z" fill="#FDBC2B"/>
<path d="M93.6481 73.5901C93.6481 73.6099 75.3525 73.6269 52.7877 73.6269C30.2229 73.6269 11.9245 73.6142 11.9245 73.5901C11.9245 73.5661 30.2172 73.5533 52.7877 73.5533C75.3582 73.5533 93.6481 73.5689 93.6481 73.5901Z" fill="#263238"/>
<path d="M16.4485 64.7247C16.6878 64.742 16.9212 64.8073 17.1347 64.9167C17.3482 65.0262 17.5375 65.1775 17.6913 65.3617C17.997 65.7323 18.2135 66.1681 18.324 66.6357C18.5632 67.5303 18.416 68.5877 18.1612 69.478C17.193 69.1312 16.5943 68.0979 16.3211 67.5543C15.8964 66.6965 15.643 64.8847 16.4442 64.7233" fill="#2CA859"/>
<path d="M19.5555 70.5637C19.4101 70.3383 19.327 70.0783 19.3146 69.8103C19.3021 69.5423 19.3608 69.2758 19.4847 69.0378C19.6125 68.8021 19.786 68.5942 19.995 68.4263C20.204 68.2583 20.4444 68.1337 20.7021 68.0597C20.9385 67.9861 21.2131 67.9564 21.4183 68.0937C21.5109 68.1636 21.5829 68.2572 21.627 68.3645C21.6711 68.4718 21.6855 68.5889 21.6689 68.7037C21.6317 68.9337 21.534 69.1497 21.3858 69.3294C20.9144 69.9678 20.3425 70.4986 19.5456 70.5637" fill="#2CA859"/>
<path d="M19.6631 73.5547C19.6421 73.4946 19.6274 73.4325 19.6192 73.3693C19.5937 73.2362 19.5598 73.065 19.5187 72.8597C19.3917 72.2977 19.3563 71.7188 19.414 71.1455C19.4807 70.5694 19.7001 70.0216 20.0495 69.5587C20.1563 69.4203 20.2794 69.2953 20.4162 69.1864C20.4533 69.157 20.4921 69.1296 20.5322 69.1043C20.545 69.0937 20.5593 69.0851 20.5747 69.0789C20.3956 69.2318 20.2321 69.402 20.0863 69.587C19.7554 70.0504 19.547 70.5899 19.4805 71.1554C19.3899 71.8151 19.5017 72.4195 19.5669 72.8541C19.6008 73.0706 19.6291 73.2462 19.6447 73.3679C19.6559 73.4296 19.662 73.4921 19.6631 73.5547Z" fill="#263238"/>
<path d="M16.7599 66.0879C16.776 66.1102 16.7893 66.1344 16.7995 66.1601C16.825 66.2167 16.859 66.2874 16.8986 66.3766C16.9849 66.5649 17.1053 66.8381 17.2511 67.1764C17.5427 67.8544 17.9333 68.7972 18.341 69.8475C18.7487 70.8978 19.0955 71.8561 19.3319 72.554C19.4536 72.9022 19.5484 73.1853 19.615 73.382C19.6447 73.4755 19.6674 73.5505 19.6858 73.6085C19.6959 73.6345 19.703 73.6616 19.707 73.6892C19.6926 73.6652 19.6812 73.6395 19.673 73.6128C19.6518 73.5561 19.6249 73.4825 19.5895 73.3905L19.2908 72.5695C19.0374 71.8773 18.6836 70.9204 18.2773 69.8715C17.8711 68.8226 17.486 67.8771 17.2058 67.1948C17.0642 66.8593 16.9552 66.5861 16.8745 66.3865C16.8377 66.2959 16.808 66.2238 16.7854 66.1657C16.7747 66.1405 16.7662 66.1145 16.7599 66.0879Z" fill="#263238"/>
<path d="M18.5123 71.5758C18.221 71.0909 17.8185 70.6823 17.338 70.3837C16.8576 70.0851 16.313 69.9052 15.7492 69.8588C15.4661 69.839 15.1179 69.8871 14.9905 70.1419C14.8631 70.3967 15.0329 70.7081 15.2283 70.9148C15.6433 71.349 16.1776 71.6506 16.7638 71.7816C17.35 71.9125 17.9618 71.8671 18.5222 71.6509" fill="#2CA859"/>
<path d="M16.1852 70.626C16.2452 70.623 16.3053 70.6254 16.3649 70.6331C16.4347 70.6369 16.5042 70.6449 16.573 70.6572C16.6537 70.6727 16.7485 70.6812 16.8476 70.7095C16.9584 70.733 17.0676 70.7632 17.1746 70.8001C17.2986 70.84 17.4201 70.8872 17.5384 70.9417C17.8105 71.0636 18.0679 71.216 18.3056 71.3961C18.5406 71.5804 18.7534 71.7913 18.9398 72.0245C19.0203 72.1261 19.0945 72.2325 19.162 72.343C19.223 72.4385 19.2788 72.5373 19.329 72.6389C19.3716 72.7216 19.4094 72.8067 19.4423 72.8937C19.4707 72.9581 19.4948 73.0243 19.5145 73.0919C19.5354 73.1483 19.5511 73.2066 19.5612 73.266C19.5456 73.266 19.4777 73.0225 19.2866 72.6601C19.2345 72.5628 19.1774 72.4683 19.1153 72.377C19.0463 72.2698 18.9717 72.1663 18.8916 72.067C18.5214 71.6095 18.0492 71.245 17.5129 71.0025C17.3898 70.9488 17.2723 70.8978 17.1576 70.861C17.0524 70.8226 16.9451 70.79 16.8363 70.7633C16.44 70.6543 16.1838 70.6416 16.1852 70.626Z" fill="#263238"/>
<path d="M42.0283 44.5309L37.0174 70.2651L36.3662 73.634L69.7725 73.4726C71.273 73.4656 72.6036 72.1336 73.0834 70.1547L79.0088 45.8601C79.3754 44.3582 78.5714 42.7955 77.4333 42.7969L43.6137 42.8323C42.8776 42.8309 42.218 43.5273 42.0283 44.5309Z" fill="#ED4336"/>
<g opacity="0.5">
<path d="M42.0283 44.5309L37.0174 70.2651L36.3662 73.634L69.7725 73.4726C71.273 73.4656 72.6036 72.1336 73.0834 70.1547L79.0088 45.8601C79.3754 44.3582 78.5714 42.7955 77.4333 42.7969L43.6137 42.8323C42.8776 42.8309 42.218 43.5273 42.0283 44.5309Z" fill="black"/>
</g>
<path d="M66.572 68.5183L63.0332 40.0083C62.8917 38.8405 61.9588 37.9686 60.859 37.9728L53.1019 37.9969C52.8137 38.0001 52.5291 38.062 52.2655 38.1789C52.002 38.2957 51.7649 38.4649 51.5689 38.6763L47.8886 42.5931L26.316 42.7091C24.9982 42.7162 23.9847 43.9647 24.1588 45.3661L27.4442 71.716C27.5858 72.8824 28.5186 73.7529 29.6156 73.7515L67.2189 73.6765C71.406 73.7628 71.8066 72.5271 71.8066 72.5271C66.9995 73.5901 66.572 68.5254 66.572 68.5183Z" fill="#ED4336"/>
<g opacity="0.5">
<path d="M50.3572 62.8166L49.0889 64.1783L39.3218 55.3908L40.5902 54.0291L50.3572 62.8166Z" fill="white"/>
<path d="M48.5581 53.7276L49.9595 54.9888L41.1224 64.4798L39.7196 63.2186L48.5581 53.7276Z" fill="white"/>
</g>
<path d="M71.9411 26.0216C71.8953 26.0023 71.8559 25.9703 71.8276 25.9295C71.7993 25.8886 71.7832 25.8405 71.7812 25.7908L71.7245 24.4772C71.7225 24.4364 71.7301 24.3957 71.7465 24.3583C71.763 24.3209 71.7879 24.2878 71.8194 24.2617C71.8508 24.2357 71.8879 24.2172 71.9277 24.208C71.9675 24.1987 72.0089 24.1988 72.0487 24.2083C72.1583 24.2319 72.2716 24.233 72.3816 24.2113C72.4916 24.1896 72.596 24.1457 72.6885 24.0823C72.7736 24.0284 72.8468 23.9577 72.9035 23.8744C72.9603 23.7911 72.9993 23.6971 73.0183 23.5982C73.0311 23.498 73.0237 23.3963 72.9965 23.299C72.9692 23.2018 72.9228 23.111 72.8598 23.032C72.7934 22.9422 72.71 22.8663 72.6143 22.8087C72.5186 22.7511 72.4125 22.713 72.3021 22.6965C72.0793 22.6841 71.8589 22.7473 71.6765 22.8757C71.4942 23.0042 71.3604 23.1904 71.297 23.4043C71.2759 23.4691 71.2306 23.5232 71.1705 23.5554C71.1104 23.5877 71.0402 23.5955 70.9746 23.5772C70.9089 23.559 70.8528 23.5161 70.8179 23.4575C70.7831 23.3989 70.7722 23.3292 70.7875 23.2627C70.8838 22.9263 71.093 22.6333 71.3799 22.433C71.6668 22.2327 72.0139 22.1373 72.3629 22.1629C72.5446 22.1871 72.7195 22.2475 72.8773 22.3407C73.0351 22.4338 73.1726 22.5577 73.2816 22.705C73.3876 22.8415 73.4652 22.998 73.5097 23.165C73.5542 23.332 73.5647 23.5063 73.5406 23.6775C73.5085 23.8484 73.4416 24.0109 73.3443 24.1551C73.2469 24.2992 73.121 24.4218 72.9744 24.5155C72.7621 24.6584 72.514 24.7393 72.2582 24.749L72.3021 25.7625C72.3037 25.8071 72.2941 25.8513 72.2741 25.8911C72.2541 25.9309 72.2244 25.965 72.1877 25.9903C72.1509 26.0156 72.1085 26.0312 72.0641 26.0357C72.0198 26.0401 71.975 26.0333 71.934 26.0159L71.9411 26.0216Z" fill="#ED4336"/>
<path d="M72.329 26.5595C72.3319 26.6022 72.3222 26.6449 72.3009 26.6821C72.2796 26.7193 72.2478 26.7493 72.2094 26.7684C72.1711 26.7875 72.1279 26.7948 72.0854 26.7894C72.0429 26.7839 72.003 26.766 71.9706 26.7378C71.9383 26.7097 71.9151 26.6726 71.9039 26.6312C71.8927 26.5899 71.894 26.5461 71.9076 26.5055C71.9213 26.4649 71.9467 26.4292 71.9806 26.4031C72.0145 26.3769 72.0555 26.3614 72.0982 26.3585C72.1266 26.3563 72.1551 26.3599 72.1821 26.3689C72.2091 26.3778 72.2341 26.3921 72.2556 26.4108C72.277 26.4295 72.2945 26.4523 72.3071 26.4778C72.3197 26.5033 72.3272 26.5311 72.329 26.5595Z" fill="#ED4336"/>
<path d="M67.393 24.1687C67.3991 24.1407 67.4034 24.1123 67.4058 24.0837C67.4058 24.0214 67.4213 23.9422 67.4327 23.8304C67.4466 23.6931 67.4698 23.5569 67.502 23.4227C67.5204 23.3434 67.5303 23.2556 67.5586 23.1665C67.587 23.0773 67.6153 22.981 67.6464 22.8834C67.8103 22.3994 68.0491 21.9442 68.3542 21.5344C68.754 21.0036 69.2608 20.5629 69.8419 20.2406C70.1726 20.0541 70.5248 19.9087 70.8908 19.8074C71.2857 19.7028 71.6925 19.6495 72.1011 19.6489C72.3163 19.6454 72.5315 19.6568 72.7451 19.6829C72.8541 19.6942 72.9617 19.7225 73.0707 19.7409C73.1809 19.7598 73.2897 19.7863 73.3963 19.8202C73.8424 19.9449 74.2668 20.1373 74.6546 20.3906C75.517 20.9499 76.1739 21.7747 76.526 22.7404C76.7156 23.2577 76.8115 23.8046 76.8091 24.3555C76.8149 24.923 76.7146 25.4867 76.5132 26.0173L76.4495 26.1787L76.441 26.1999L76.4495 26.2212C76.8048 27.0379 77.1573 27.8405 77.4899 28.6176L77.5494 28.5497L75.4261 27.7358L75.4006 27.7259L75.3794 27.7457C74.8177 28.2899 74.1301 28.6867 73.3778 28.9007C72.7351 29.0777 72.0621 29.1163 71.4033 29.0141C70.7445 28.9119 70.1149 28.6711 69.5559 28.3076C69.0982 28.0074 68.6947 27.6317 68.3627 27.1965C67.8815 26.5611 67.5698 25.8139 67.4567 25.025C67.4397 24.8835 67.4256 24.7646 67.4128 24.657C67.4001 24.5494 67.4128 24.4617 67.4058 24.3867C67.3987 24.3116 67.4058 24.2621 67.4058 24.221C67.4128 24.22 67.4192 24.2163 67.4237 24.2107C67.4281 24.2051 67.4303 24.198 67.4298 24.1909C67.4292 24.1838 67.426 24.1771 67.4208 24.1723C67.4155 24.1674 67.4087 24.1647 67.4015 24.1647C67.3944 24.1647 67.3875 24.1674 67.3823 24.1723C67.377 24.1771 67.3738 24.1838 67.3733 24.1909C67.3728 24.198 67.3749 24.2051 67.3794 24.2107C67.3838 24.2163 67.3902 24.22 67.3973 24.221C67.3973 24.2621 67.3973 24.3173 67.3973 24.3867C67.3973 24.456 67.3973 24.5523 67.3973 24.6598C67.3973 24.7674 67.4213 24.8906 67.4355 25.0307C67.4821 25.3712 67.5632 25.706 67.6776 26.0301C67.8396 26.458 68.0576 26.8626 68.3259 27.2333C68.6592 27.6763 69.0656 28.0592 69.5276 28.3657C70.0934 28.7382 70.732 28.9861 71.4009 29.093C72.0699 29.1999 72.7539 29.1633 73.4076 28.9857C74.1689 28.7695 74.8651 28.3688 75.4346 27.8193L75.3879 27.8292L77.5112 28.6474L77.6173 28.6884L77.5706 28.5794C77.2337 27.8023 76.8855 27.0011 76.5316 26.1829V26.224L76.5967 26.0584C76.8033 25.5162 76.906 24.9399 76.8997 24.3598C76.9041 23.7971 76.8082 23.2382 76.6166 22.7093C76.2569 21.7244 75.5854 20.8839 74.7042 20.3156C74.3066 20.0563 73.8711 19.8605 73.4132 19.7353C73.3049 19.701 73.1942 19.6749 73.082 19.6574C72.9716 19.6376 72.8626 19.6093 72.7522 19.5994C72.5357 19.5725 72.3177 19.5602 72.0996 19.5626C71.6845 19.5643 71.2715 19.6205 70.871 19.7296C70.5002 19.8349 70.1433 19.9841 69.8079 20.1741C69.221 20.5042 68.711 20.9554 68.3117 21.4976C68.0076 21.9142 67.772 22.3768 67.6139 22.8678C67.5841 22.9697 67.5558 23.0674 67.5303 23.1509C67.5078 23.2362 67.4899 23.3227 67.4765 23.4099C67.4462 23.545 67.4263 23.6823 67.4171 23.8204C67.4086 23.9294 67.4029 24.013 67.3987 24.0752C67.3927 24.106 67.3908 24.1374 67.393 24.1687Z" fill="#263238"/>
</svg>
