<svg class="svgicon svgicon-home" xmlns="http://www.w3.org/2000/svg" width="22" height="21" viewBox="0 0 22 21"><path d="M21.5438 10.3314L12.1673 0.85968L11.5388 0.22447C11.3956 0.0806932 11.2019 0 11 0C10.7982 0 10.6045 0.0806932 10.4613 0.22447L0.456308 10.3314C0.309572 10.4791 0.193604 10.6551 0.11525 10.8488C0.036895 11.0426 -0.0022583 11.2503 0.000100583 11.4596C0.00980713 12.3229 0.720812 13.0121 1.57499 13.0121H2.60631V21H19.3938V13.0121H20.4469C20.8619 13.0121 21.2526 12.8477 21.5462 12.551C21.6908 12.4053 21.8053 12.2321 21.8832 12.0414C21.9611 11.8507 22.0008 11.6463 22 11.44C22 11.023 21.8374 10.6282 21.5438 10.3314ZM12.359 19.2342H9.64113V14.231H12.359V19.2342ZM17.6466 11.2462V19.2342H13.912V13.6424C13.912 13.1003 13.4776 12.6613 12.9414 12.6613H9.05873C8.52245 12.6613 8.08808 13.1003 8.08808 13.6424V19.2342H4.35349V11.2462H2.02392L11.0025 2.17915L11.563 2.74569L19.9786 11.2462H17.6466Z"/></svg>