<svg class="svgicon svgicon-home" xmlns="http://www.w3.org/2000/svg" width="16" height="16" xmlns="http://www.w3.org/2000/svg"><path fill-rule="evenodd" clip-rule="evenodd" d="M7.07037 1.73419C6.64746 1.93982 6.13812 2.25488 5.39704 2.71505L3.94397 3.61669C3.24262 4.05221 2.7618 4.35151 2.40531 4.62452C2.06219 4.88729 1.87954 5.09288 1.75712 5.31716L1.75639 5.31849C1.6327 5.54399 1.55495 5.81562 1.51311 6.26019C1.46987 6.71966 1.46912 7.30306 1.46912 8.14822V9.25329C1.46912 10.6905 1.47058 11.6968 1.56942 12.457C1.66583 13.1984 1.84312 13.594 2.11412 13.8742C2.38135 14.1508 2.75398 14.3297 3.4593 14.4278C4.18835 14.5292 5.15555 14.5309 6.54691 14.5309H9.45309C10.8445 14.5309 11.8117 14.5292 12.5407 14.4278C13.246 14.3297 13.6184 14.1511 13.8857 13.8745C14.1566 13.5943 14.3342 13.1983 14.4306 12.4567C14.5294 11.6965 14.5309 10.6901 14.5309 9.25329V8.14822C14.5309 7.74253 14.8598 7.41366 15.2654 7.41366C15.6711 7.41366 16 7.74253 16 8.14822V9.30562C16 10.6779 16 11.7801 15.8874 12.6461C15.771 13.5417 15.5226 14.2949 14.9422 14.8953C14.3586 15.4993 13.6205 15.7609 12.7431 15.8829C11.901 16 10.8313 16 9.50836 16H6.49165C5.16872 16 4.09895 16 3.25692 15.8829C2.37947 15.7609 1.64135 15.4993 1.0578 14.8953C0.477442 14.295 0.229023 13.542 0.112572 12.6464C-3.2097e-05 11.7805 -1.76297e-05 10.6783 4.56676e-07 9.30565L5.58571e-07 8.11333C-9.93662e-06 7.31142 -1.84971e-05 6.65884 0.0504582 6.12253C0.103042 5.56383 0.214111 5.07569 0.467964 4.61262C0.721865 4.14774 1.07201 3.79516 1.51208 3.45815C1.93097 3.13735 2.47132 2.80182 3.13095 2.39222L4.65013 1.44954C5.35298 1.0131 5.92772 0.656205 6.42796 0.412974C6.94987 0.159206 7.44659 0 8 0C8.55346 0 9.05002 0.159235 9.57182 0.412999C10.0707 0.655604 10.6439 1.01135 11.3446 1.44629L12.869 2.3922C13.5287 2.80182 14.069 3.13733 14.488 3.4581C14.9283 3.79523 15.2786 4.14784 15.5328 4.61277C15.7275 4.9687 15.5968 5.41504 15.2408 5.6097C14.8849 5.80436 14.4385 5.67362 14.2439 5.31768C14.1211 5.09312 13.9381 4.88738 13.5948 4.62457C13.2382 4.35153 12.7574 4.0522 12.056 3.61669L10.6032 2.71518C9.8616 2.25494 9.35221 1.93983 8.92931 1.73416C8.5215 1.53584 8.25156 1.46912 8 1.46912C7.7484 1.46912 7.47825 1.53586 7.07037 1.73419ZM8 9.44508C8.40569 9.44508 8.73456 9.77395 8.73456 10.1796V12.3593C8.73456 12.765 8.40569 13.0938 8 13.0938C7.59432 13.0938 7.26544 12.765 7.26544 12.3593V10.1796C7.26544 9.77395 7.59432 9.44508 8 9.44508Z"/></svg>