<svg width="19" height="19" viewBox="0 0 19 19" fill="none" xmlns="http://www.w3.org/2000/svg">
<path d="M18.5875 9.22179L2.08754 0.971788C1.95821 0.907113 1.81295 0.881198 1.66924 0.897165C1.52554 0.913133 1.38951 0.970301 1.27753 1.06179C1.1706 1.15141 1.09079 1.26908 1.04707 1.40157C1.00334 1.53406 0.997446 1.67613 1.03003 1.81179L3.01754 9.13929H11.5V10.6392H3.01754L1.00003 17.9442C0.969455 18.0575 0.965886 18.1764 0.989614 18.2913C1.01334 18.4063 1.0637 18.514 1.13665 18.6059C1.2096 18.6978 1.3031 18.7714 1.40963 18.8206C1.51617 18.8698 1.63276 18.8933 1.75004 18.8892C1.86744 18.8885 1.98304 18.8603 2.08754 18.8067L18.5875 10.5567C18.7104 10.4938 18.8135 10.3982 18.8855 10.2805C18.9575 10.1627 18.9956 10.0273 18.9956 9.88929C18.9956 9.75125 18.9575 9.6159 18.8855 9.49812C18.8135 9.38035 18.7104 9.28473 18.5875 9.22179Z" fill="black"/>
</svg>
