<svg width="108" height="85" viewBox="0 0 108 85" fill="none" xmlns="http://www.w3.org/2000/svg">
<path d="M96.0101 66.1565H11.9897V66.1985H96.0101V66.1565Z" fill="#EBEBEB"/>
<path d="M51.8154 58.6619H19.3685C19.1143 58.6614 18.8707 58.5601 18.6911 58.3802C18.5115 58.2003 18.4106 57.9565 18.4106 57.7024V12.0911C18.4129 11.8383 18.5147 11.5967 18.694 11.4186C18.8734 11.2405 19.1157 11.1404 19.3685 11.14H51.8154C52.0699 11.14 52.314 11.2411 52.4939 11.421C52.6739 11.6009 52.775 11.845 52.775 12.0995V57.7024C52.775 57.9568 52.6739 58.2009 52.4939 58.3808C52.314 58.5608 52.0699 58.6619 51.8154 58.6619ZM19.3685 11.1736C19.1254 11.174 18.8925 11.2709 18.7208 11.4429C18.5491 11.6149 18.4527 11.848 18.4527 12.0911V57.7024C18.4527 57.9454 18.5491 58.1785 18.7208 58.3505C18.8925 58.5225 19.1254 58.6194 19.3685 58.6199H51.8154C52.0586 58.6194 52.2918 58.5226 52.4637 58.3506C52.6357 58.1787 52.7325 57.9456 52.7329 57.7024V12.0911C52.7325 11.8479 52.6357 11.6148 52.4637 11.4428C52.2918 11.2708 52.0586 11.174 51.8154 11.1736H19.3685Z" fill="#EBEBEB"/>
<path d="M88.1643 58.6619H55.7156C55.4613 58.6614 55.2175 58.5602 55.0376 58.3803C54.8578 58.2005 54.7565 57.9567 54.7561 57.7024V12.0911C54.7588 11.8382 54.861 11.5965 55.0406 11.4185C55.2202 11.2405 55.4627 11.1404 55.7156 11.14H88.1643C88.4167 11.1408 88.6586 11.2412 88.8376 11.4192C89.0166 11.5972 89.1182 11.8386 89.1204 12.0911V57.7024C89.1204 57.9562 89.0198 58.1998 88.8406 58.3796C88.6614 58.5595 88.4182 58.661 88.1643 58.6619ZM55.7156 11.1736C55.4724 11.174 55.2393 11.2708 55.0673 11.4428C54.8954 11.6148 54.7986 11.8479 54.7981 12.0911V57.7024C54.7986 57.9456 54.8954 58.1787 55.0673 58.3506C55.2393 58.5226 55.4724 58.6194 55.7156 58.6199H88.1643C88.4075 58.6194 88.6406 58.5226 88.8125 58.3506C88.9845 58.1787 89.0813 57.9456 89.0818 57.7024V12.0911C89.0813 11.8479 88.9845 11.6148 88.8125 11.4428C88.6406 11.2708 88.4075 11.174 88.1643 11.1736H55.7156Z" fill="#EBEBEB"/>
<path d="M24.976 67.7562H20.6069V67.7982H24.976V67.7562Z" fill="#EBEBEB"/>
<path d="M43.9477 67.3008H36.3809V67.3429H43.9477V67.3008Z" fill="#EBEBEB"/>
<path d="M35.3591 69.3173H25.1439V69.3593H35.3591V69.3173Z" fill="#EBEBEB"/>
<path d="M87.393 69.035H84.1616V69.077H87.393V69.035Z" fill="#EBEBEB"/>
<path d="M82.6644 69.035H73.3734V69.077H82.6644V69.035Z" fill="#EBEBEB"/>
<path d="M67.6987 68.3259H55.1847V68.3679H67.6987V68.3259Z" fill="#EBEBEB"/>
<path d="M56.4987 48.0266H49.4326V66.1565H56.4987V48.0266Z" fill="#F0F0F0"/>
<path d="M24.1492 66.1565H49.4326V48.0266H24.1492L24.1492 66.1565Z" fill="#F5F5F5"/>
<path d="M25.6985 64.3904H29.918V60.6985H25.6985V64.3904Z" fill="#1F3048"/>
<path d="M25.6985 59.3441H29.918V55.6523H25.6985V59.3441Z" fill="#2CA859"/>
<g style="mix-blend-mode:multiply" opacity="0.7">
<path d="M56.497 50.3674H24.0736V51.095H56.497V50.3674Z" fill="#E6E6E6"/>
</g>
<path d="M56.8886 47.6754H49.4326V50.611H56.8886V47.6754Z" fill="#F0F0F0"/>
<path d="M23.756 50.611H49.4309V47.6754H23.756V50.611Z" fill="#F5F5F5"/>
<path d="M53.8202 42.1334H48.3286V47.7207H53.8202V42.1334Z" fill="#F0F0F0"/>
<path d="M29.2056 47.7191H48.3269V42.1317H29.2056V47.7191Z" fill="#F5F5F5"/>
<g style="mix-blend-mode:multiply" opacity="0.7">
<path d="M53.8202 42.9753H29.1501V43.4273H53.8202V42.9753Z" fill="#E6E6E6"/>
</g>
<path d="M54.1227 41.8595H48.3286V43.1651H54.1227V41.8595Z" fill="#F0F0F0"/>
<path d="M28.9048 43.1652H48.3286V41.8595H28.9048V43.1652Z" fill="#F5F5F5"/>
<path d="M60.2864 66.1565H65.662V38.9541H60.2864V66.1565Z" fill="#E6E6E6"/>
<path d="M61.4375 66.1565H60.2864V64.2274H62.644L61.4375 66.1565Z" fill="#F0F0F0"/>
<path d="M78.2196 66.1565H83.5952V38.9541H78.2196V66.1565Z" fill="#E6E6E6"/>
<path d="M60.2863 65.7666H79.2228V38.9541H60.2863V65.7666Z" fill="#F0F0F0"/>
<path d="M61.1803 47.4972H78.3306V40.1438H61.1803V47.4972Z" fill="#E6E6E6"/>
<path d="M70.8813 43.6626C70.8813 43.8856 70.8152 44.1036 70.6913 44.289C70.5674 44.4744 70.3913 44.6189 70.1853 44.7043C69.9792 44.7896 69.7525 44.812 69.5338 44.7684C69.3151 44.7249 69.1142 44.6175 68.9565 44.4599C68.7988 44.3022 68.6914 44.1013 68.6479 43.8825C68.6044 43.6638 68.6267 43.4371 68.7121 43.2311C68.7974 43.025 68.9419 42.8489 69.1273 42.725C69.3128 42.6011 69.5308 42.535 69.7538 42.535C69.9019 42.5348 70.0486 42.5638 70.1855 42.6204C70.3224 42.677 70.4468 42.76 70.5516 42.8648C70.6563 42.9695 70.7394 43.0939 70.7959 43.2308C70.8525 43.3677 70.8815 43.5144 70.8813 43.6626Z" fill="#FAFAFA"/>
<path d="M78.0718 66.1565H79.2228V64.2274H76.8652L78.0718 66.1565Z" fill="#F0F0F0"/>
<path d="M78.3289 48.6836H61.1787V64.5786H78.3289V48.6836Z" fill="#E6E6E6"/>
<path d="M75.9612 52.1805C76.5839 52.1805 77.0887 51.6757 77.0887 51.053C77.0887 50.4303 76.5839 49.9254 75.9612 49.9254C75.3384 49.9254 74.8336 50.4303 74.8336 51.053C74.8336 51.6757 75.3384 52.1805 75.9612 52.1805Z" fill="#FAFAFA"/>
<path d="M81.7687 35.9277V13.9177L26.4766 13.9177V35.9277H81.7687Z" fill="#E6E6E6"/>
<path d="M81.525 35.926V13.916L26.2329 13.916V35.926H81.525Z" fill="#F0F0F0"/>
<path d="M80.1185 15.3242H27.6394V34.5195H80.1185V15.3242Z" fill="white"/>
<path d="M33.7578 23.3229L31.9127 26.5207H35.6046L33.7578 23.3229Z" fill="#ED4336"/>
<path d="M43.3378 23.4137H40.3231V26.4283H43.3378V23.4137Z" fill="#FDBC2B"/>
<path d="M49.9031 22.9936L47.8749 24.4656L48.6495 26.8501H51.155L51.9297 24.4656L49.9031 22.9936Z" fill="#2CA859"/>
<path d="M59.0412 23.0759H56.9087L55.8417 24.921L56.9087 26.7678H59.0412L60.1065 24.921L59.0412 23.0759Z" fill="#1D5EC1"/>
<path d="M66.0467 22.8944L64.3797 23.6976L63.968 25.5024L65.1208 26.9476H66.9709L68.1253 25.5024L67.7136 23.6976L66.0467 22.8944Z" fill="#FDBC2B"/>
<path d="M74.9344 22.9516H73.3028L72.1483 24.106V25.7377L73.3028 26.8921H74.9344L76.0872 25.7377V24.106L74.9344 22.9516Z" fill="#FDBC2B"/>
<path d="M54 73.86C71.9942 73.86 86.5814 73.0084 86.5814 71.9578C86.5814 70.9072 71.9942 70.0556 54 70.0556C36.0058 70.0556 21.4186 70.9072 21.4186 71.9578C21.4186 73.0084 36.0058 73.86 54 73.86Z" fill="#F5F5F5"/>
<path d="M52.2205 23.6836H79.8884C80.0268 23.6819 80.164 23.7089 80.2914 23.7631C80.4188 23.8173 80.5335 23.8975 80.6283 23.9985C80.7231 24.0995 80.7959 24.2191 80.8421 24.3498C80.8883 24.4805 80.9069 24.6194 80.8966 24.7577L78.6398 61.1766C78.6181 61.466 78.4891 61.7368 78.2783 61.9358C78.0676 62.1348 77.7901 62.2477 77.5005 62.2524H49.8309C49.6928 62.2527 49.5561 62.2245 49.4293 62.1697C49.3025 62.1149 49.1883 62.0346 49.0938 61.9337C48.9993 61.8328 48.9264 61.7136 48.8798 61.5834C48.8331 61.4531 48.8137 61.3147 48.8227 61.1766L51.0778 24.7577C51.1004 24.4682 51.2301 24.1976 51.4415 23.9989C51.6528 23.8002 51.9307 23.6878 52.2205 23.6836Z" fill="#3E85F1"/>
<path opacity="0.4" d="M52.2205 23.6836H79.8884C80.0268 23.6819 80.164 23.7089 80.2914 23.7631C80.4188 23.8173 80.5335 23.8975 80.6283 23.9985C80.7231 24.0995 80.7959 24.2191 80.8421 24.3498C80.8883 24.4805 80.9069 24.6194 80.8966 24.7577L78.6398 61.1766C78.6181 61.466 78.4891 61.7368 78.2783 61.9358C78.0676 62.1348 77.7901 62.2477 77.5005 62.2524H49.8309C49.6928 62.2527 49.5561 62.2245 49.4293 62.1697C49.3025 62.1149 49.1883 62.0346 49.0938 61.9337C48.9993 61.8328 48.9264 61.7136 48.8798 61.5834C48.8331 61.4531 48.8137 61.3147 48.8227 61.1766L51.0778 24.7577C51.1004 24.4682 51.2301 24.1976 51.4415 23.9989C51.6528 23.8002 51.9307 23.6878 52.2205 23.6836Z" fill="black"/>
<path d="M51.5852 23.6836H79.2531C79.3915 23.6819 79.5287 23.7089 79.6561 23.7631C79.7835 23.8173 79.8983 23.8975 79.9931 23.9985C80.0879 24.0995 80.1607 24.2191 80.2069 24.3498C80.2531 24.4805 80.2716 24.6194 80.2614 24.7577L78.0046 61.1766C77.9828 61.4663 77.8536 61.7373 77.6425 61.9363C77.4313 62.1354 77.1535 62.2481 76.8636 62.2524H49.1957C49.0576 62.2527 48.9209 62.2245 48.7941 62.1697C48.6673 62.1149 48.5531 62.0346 48.4585 61.9337C48.364 61.8328 48.2912 61.7136 48.2445 61.5834C48.1979 61.4531 48.1785 61.3147 48.1874 61.1766L50.4425 24.7577C50.4648 24.4681 50.5943 24.1972 50.8058 23.9985C51.0172 23.7997 51.2953 23.6874 51.5852 23.6836Z" fill="#3E85F1"/>
<path opacity="0.4" d="M49.688 60.2861L76.6199 60.6093L78.8044 25.3368H51.8524L49.688 60.2861Z" fill="black"/>
<path d="M48.9016 59.9292H76.1813C77.6836 46.1397 78.1457 38.6953 78.3507 24.9126H51.071C50.866 38.6953 50.4056 46.1397 48.9016 59.9292Z" fill="white"/>
<path opacity="0.3" d="M75.0874 34.4984H70.3907C70.3433 34.499 70.2964 34.4895 70.253 34.4707C70.2095 34.4518 70.1705 34.424 70.1386 34.389C70.1062 34.3544 70.0812 34.3136 70.065 34.269C70.0488 34.2244 70.0418 34.1771 70.0445 34.1297L70.3352 29.426C70.3407 29.3378 70.3796 29.2549 70.4439 29.1942C70.5082 29.1336 70.5931 29.0997 70.6814 29.0994H75.3865C75.4338 29.0996 75.4805 29.1094 75.5239 29.1283C75.5673 29.1471 75.6064 29.1747 75.6388 29.2092C75.6712 29.2437 75.6962 29.2844 75.7124 29.329C75.7285 29.3735 75.7354 29.4208 75.7327 29.4681L75.4403 34.1735C75.4388 34.2181 75.4284 34.2621 75.4098 34.3027C75.3912 34.3433 75.3647 34.3798 75.3318 34.41C75.299 34.4403 75.2604 34.4637 75.2185 34.4788C75.1765 34.494 75.1319 34.5007 75.0874 34.4984ZM70.7603 33.8048H74.7614L75.0051 29.7947H71.0074L70.7603 33.8048Z" fill="#3E85F1"/>
<path opacity="0.3" d="M74.6421 41.665H69.9471C69.8998 41.6649 69.8531 41.6551 69.8098 41.6363C69.7665 41.6175 69.7274 41.59 69.695 41.5556C69.6624 41.5212 69.6372 41.4804 69.621 41.4358C69.6048 41.3912 69.5979 41.3437 69.6009 41.2963L69.8916 36.591C69.8972 36.5028 69.9361 36.4201 70.0004 36.3598C70.0647 36.2994 70.1496 36.2659 70.2378 36.266H74.9345C74.9818 36.2655 75.0288 36.2749 75.0722 36.2938C75.1156 36.3126 75.1546 36.3405 75.1866 36.3755C75.2189 36.4101 75.244 36.4509 75.2602 36.4954C75.2763 36.54 75.2833 36.5874 75.2807 36.6347L74.9883 41.3384C74.9831 41.4268 74.9444 41.5099 74.88 41.5707C74.8157 41.6314 74.7305 41.6651 74.6421 41.665ZM70.3151 40.9697H74.3161L74.5648 36.9596H70.5638L70.3151 40.9697Z" fill="#3E85F1"/>
<path opacity="0.3" d="M74.1985 48.8299H69.5034C69.4559 48.8301 69.4089 48.8205 69.3652 48.8017C69.3215 48.7828 69.2822 48.7552 69.2497 48.7205C69.2169 48.6862 69.1918 48.6454 69.1758 48.6008C69.1599 48.5561 69.1536 48.5085 69.1573 48.4612L69.448 43.7576C69.4535 43.6693 69.4924 43.5864 69.5567 43.5258C69.6209 43.4651 69.7058 43.4312 69.7941 43.431H74.4909C74.5381 43.4311 74.5848 43.4409 74.6282 43.4597C74.6715 43.4785 74.7105 43.506 74.7429 43.5404C74.7751 43.5751 74.8 43.616 74.8161 43.6605C74.8323 43.705 74.8394 43.7523 74.837 43.7997L74.5447 48.5134C74.5371 48.6 74.4973 48.6807 74.4332 48.7393C74.3691 48.7979 74.2853 48.8303 74.1985 48.8299ZM69.8714 48.1363H73.8725L74.1212 44.1263H70.1201L69.8714 48.1363Z" fill="#3E85F1"/>
<path opacity="0.3" d="M73.7548 55.9965H69.0597C69.0122 55.9963 68.9653 55.9865 68.9217 55.9677C68.8781 55.9489 68.8387 55.9215 68.806 55.8871C68.7732 55.8528 68.748 55.812 68.7321 55.7674C68.7162 55.7227 68.7099 55.6751 68.7135 55.6278L69.0043 50.9225C69.0102 50.8345 69.0492 50.752 69.1135 50.6917C69.1777 50.6314 69.2624 50.5978 69.3504 50.5976H74.0472C74.0945 50.597 74.1414 50.6064 74.1849 50.6253C74.2283 50.6442 74.2673 50.672 74.2992 50.707C74.3316 50.7416 74.3567 50.7824 74.3728 50.827C74.389 50.8715 74.396 50.9189 74.3933 50.9663L74.1009 55.6699C74.0954 55.7582 74.0565 55.8411 73.9923 55.9017C73.928 55.9624 73.8431 55.9963 73.7548 55.9965ZM69.4277 55.3012H73.4288L73.6775 51.2912H69.6764L69.4277 55.3012Z" fill="#3E85F1"/>
<path opacity="0.3" d="M55.6601 31.1836H66.2954C66.4537 31.1811 66.6054 31.1195 66.7207 31.0108C66.8361 30.9021 66.9067 30.7542 66.9188 30.5961C66.9244 30.5205 66.9143 30.4445 66.889 30.3731C66.8638 30.3016 66.824 30.2362 66.7722 30.1809C66.7203 30.1257 66.6576 30.0818 66.588 30.0521C66.5184 30.0225 66.4433 30.0076 66.3677 30.0085H55.7341C55.5755 30.0102 55.4234 30.0716 55.3079 30.1804C55.1924 30.2893 55.122 30.4376 55.1106 30.5961C55.105 30.6715 55.1151 30.7473 55.1403 30.8187C55.1654 30.89 55.2051 30.9554 55.2567 31.0106C55.3084 31.0658 55.3709 31.1097 55.4403 31.1395C55.5098 31.1692 55.5846 31.1843 55.6601 31.1836Z" fill="#3E85F1"/>
<path opacity="0.3" d="M57.5288 33.591H66.1409C66.2992 33.5885 66.4509 33.5269 66.5662 33.4182C66.6816 33.3095 66.7522 33.1616 66.7643 33.0034C66.7702 32.9278 66.7602 32.8519 66.7352 32.7803C66.7102 32.7088 66.6706 32.6432 66.6189 32.5878C66.5672 32.5324 66.5046 32.4884 66.4351 32.4585C66.3655 32.4286 66.2905 32.4135 66.2148 32.4142H57.6061C57.4475 32.4167 57.2956 32.4786 57.1803 32.5876C57.0649 32.6966 56.9944 32.845 56.9827 33.0034C56.9771 33.0786 56.9871 33.1541 57.0121 33.2252C57.037 33.2964 57.0764 33.3615 57.1277 33.4167C57.1789 33.4719 57.241 33.5158 57.3101 33.5458C57.3791 33.5758 57.4536 33.5912 57.5288 33.591Z" fill="#3E85F1"/>
<path opacity="0.3" d="M55.1409 39.5808H65.7762C65.8517 39.5802 65.9266 39.5952 65.996 39.625C66.0654 39.6547 66.128 39.6986 66.1796 39.7539C66.2312 39.8091 66.2709 39.8744 66.296 39.9458C66.3212 40.0171 66.3313 40.0929 66.3257 40.1684C66.3136 40.3265 66.2429 40.4744 66.1276 40.5831C66.0123 40.6918 65.8606 40.7534 65.7023 40.7559H55.067C54.9915 40.7566 54.9166 40.7416 54.8472 40.7118C54.7777 40.682 54.7152 40.6381 54.6636 40.5829C54.612 40.5277 54.5723 40.4623 54.5472 40.391C54.522 40.3196 54.5119 40.2438 54.5175 40.1684C54.5296 40.0102 54.6003 39.8623 54.7156 39.7536C54.8309 39.6449 54.9826 39.5833 55.1409 39.5808Z" fill="#3E85F1"/>
<path opacity="0.3" d="M57.3121 37.1734H65.9309C66.0065 37.1725 66.0816 37.1874 66.1512 37.2171C66.2208 37.2467 66.2835 37.2906 66.3354 37.3458C66.3872 37.4011 66.427 37.4665 66.4522 37.538C66.4775 37.6094 66.4876 37.6854 66.482 37.761C66.4703 37.9194 66.3998 38.0678 66.2845 38.1768C66.1691 38.2858 66.0172 38.3477 65.8586 38.3502H57.2398C57.164 38.3511 57.0888 38.3362 57.0191 38.3064C56.9493 38.2767 56.8865 38.2327 56.8346 38.1772C56.7828 38.1218 56.743 38.0562 56.7179 37.9845C56.6928 37.9128 56.6828 37.8367 56.6886 37.761C56.7008 37.6028 56.7714 37.4549 56.8867 37.3462C57.0021 37.2375 57.1537 37.1759 57.3121 37.1734Z" fill="#3E85F1"/>
<path opacity="0.3" d="M54.7729 45.5151H65.4082C65.5665 45.5127 65.7182 45.451 65.8335 45.3424C65.9489 45.2337 66.0195 45.0858 66.0316 44.9276C66.0372 44.852 66.0271 44.7761 66.0018 44.7046C65.9766 44.6331 65.9368 44.5677 65.885 44.5125C65.8331 44.4572 65.7704 44.4134 65.7008 44.3837C65.6312 44.354 65.5561 44.3392 65.4805 44.3401H54.8401C54.6818 44.3425 54.5301 44.4042 54.4148 44.5128C54.2995 44.6215 54.2288 44.7694 54.2167 44.9276C54.2111 45.0036 54.2214 45.08 54.2469 45.1518C54.2725 45.2236 54.3127 45.2893 54.3651 45.3446C54.4175 45.4 54.4808 45.4437 54.551 45.4731C54.6213 45.5024 54.6968 45.5168 54.7729 45.5151Z" fill="#3E85F1"/>
<path opacity="0.3" d="M60.9804 47.9225H65.2587C65.417 47.92 65.5687 47.8584 65.684 47.7497C65.7993 47.6411 65.87 47.4931 65.8821 47.335C65.8877 47.2593 65.8775 47.1833 65.8523 47.1117C65.8271 47.0402 65.7873 46.9746 65.7355 46.9193C65.6837 46.8639 65.621 46.8199 65.5514 46.79C65.4817 46.7602 65.4067 46.7451 65.3309 46.7458H61.0577C60.8992 46.7487 60.7475 46.8106 60.6322 46.9196C60.5169 47.0286 60.4463 47.1767 60.4342 47.335C60.4287 47.4102 60.4387 47.4857 60.4636 47.5568C60.4886 47.6279 60.5279 47.6931 60.5792 47.7483C60.6305 47.8034 60.6926 47.8474 60.7616 47.8774C60.8306 47.9074 60.9051 47.9227 60.9804 47.9225Z" fill="#3E85F1"/>
<path opacity="0.3" d="M56.6465 47.9225H58.9033C59.0616 47.92 59.2133 47.8584 59.3287 47.7497C59.444 47.6411 59.5146 47.4931 59.5268 47.335C59.5323 47.2593 59.5222 47.1833 59.497 47.1117C59.4717 47.0402 59.432 46.9746 59.3802 46.9193C59.3284 46.8639 59.2657 46.8199 59.196 46.79C59.1264 46.7602 59.0513 46.7451 58.9756 46.7458H56.7188C56.5603 46.7487 56.4086 46.8106 56.2933 46.9196C56.1781 47.0286 56.1075 47.1767 56.0954 47.335C56.0898 47.4106 56.0999 47.4865 56.1252 47.558C56.1504 47.6295 56.1902 47.6949 56.242 47.7501C56.2939 47.8054 56.3566 47.8492 56.4262 47.8789C56.4958 47.9086 56.5709 47.9234 56.6465 47.9225Z" fill="#3E85F1"/>
<path opacity="0.3" d="M54.336 52.6817H64.9713C65.1296 52.6793 65.2813 52.6177 65.3966 52.509C65.512 52.4003 65.5826 52.2524 65.5947 52.0942C65.6003 52.0185 65.5902 51.9425 65.5649 51.871C65.5397 51.7994 65.4999 51.7339 65.4481 51.6785C65.3963 51.6231 65.3336 51.5791 65.264 51.5493C65.1944 51.5194 65.1193 51.5043 65.0436 51.505H54.4015C54.243 51.5075 54.0911 51.5693 53.9757 51.6784C53.8603 51.7874 53.7898 51.9357 53.7781 52.0942C53.7725 52.1704 53.7828 52.2469 53.8084 52.3188C53.8341 52.3908 53.8745 52.4565 53.9271 52.5119C53.9796 52.5672 54.0431 52.6109 54.1136 52.6402C54.184 52.6694 54.2598 52.6836 54.336 52.6817Z" fill="#3E85F1"/>
<path opacity="0.3" d="M56.2029 55.0891H64.815C64.9735 55.0862 65.1252 55.0243 65.2405 54.9153C65.3558 54.8063 65.4263 54.6582 65.4384 54.4999C65.444 54.4243 65.4339 54.3484 65.4086 54.2769C65.3834 54.2054 65.3436 54.14 65.2918 54.0848C65.2399 54.0295 65.1772 53.9857 65.1076 53.956C65.038 53.9263 64.9629 53.9115 64.8873 53.9124H56.2752C56.1169 53.9148 55.9652 53.9765 55.8499 54.0851C55.7345 54.1938 55.6639 54.3418 55.6518 54.4999C55.6462 54.5756 55.6563 54.6516 55.6816 54.7232C55.7068 54.7947 55.7466 54.8602 55.7984 54.9156C55.8502 54.971 55.9129 55.015 55.9825 55.0449C56.0521 55.0747 56.1272 55.0898 56.2029 55.0891Z" fill="#3E85F1"/>
<path d="M72.503 33.2105C72.4333 33.211 72.3652 33.1899 72.308 33.1499L70.4982 31.9125C70.4291 31.8578 70.3833 31.7789 70.3701 31.6917C70.3568 31.6044 70.377 31.5154 70.4267 31.4426C70.4764 31.3697 70.5518 31.3184 70.6378 31.2991C70.7237 31.2798 70.8138 31.2939 70.8898 31.3385L72.4357 32.3974C73.0004 31.7156 74.6102 29.8722 75.9495 29.2678C75.9911 29.2492 76.0359 29.239 76.0814 29.2378C76.127 29.2366 76.1723 29.2444 76.2148 29.2607C76.2573 29.2771 76.2962 29.3016 76.3293 29.333C76.3623 29.3644 76.3888 29.402 76.4074 29.4437C76.4259 29.4854 76.4361 29.5303 76.4373 29.5759C76.4385 29.6215 76.4307 29.6669 76.4144 29.7095C76.3981 29.7521 76.3736 29.7911 76.3423 29.8242C76.3109 29.8573 76.2734 29.8839 76.2318 29.9025C74.7698 30.554 72.7953 33.054 72.7769 33.0792C72.744 33.1203 72.7023 33.1535 72.6549 33.1762C72.6075 33.1989 72.5555 33.2107 72.503 33.2105Z" fill="#3E85F1"/>
<path d="M71.661 40.2374C71.5711 40.2376 71.4845 40.2033 71.4191 40.1414L69.8445 38.6263C69.7777 38.5622 69.739 38.4742 69.7369 38.3815C69.7349 38.2888 69.7696 38.1992 69.8336 38.1322C69.8975 38.0652 69.9854 38.0264 70.0779 38.0244C70.1704 38.0223 70.2599 38.0572 70.3268 38.1212L71.6711 39.4159C72.3349 38.8216 74.1917 37.2391 75.5965 36.8553C75.6407 36.8432 75.6867 36.84 75.7321 36.8458C75.7775 36.8516 75.8213 36.8663 75.861 36.889C75.9007 36.9117 75.9356 36.9421 75.9636 36.9783C75.9916 37.0146 76.0122 37.056 76.0242 37.1002C76.0362 37.1444 76.0394 37.1906 76.0337 37.236C76.0279 37.2815 76.0132 37.3254 75.9905 37.3652C75.9678 37.405 75.9375 37.4399 75.9014 37.4679C75.8652 37.496 75.8238 37.5166 75.7797 37.5287C74.2472 37.9478 71.9265 40.1263 71.903 40.1482C71.8705 40.1783 71.8324 40.2016 71.7909 40.217C71.7494 40.2323 71.7052 40.2392 71.661 40.2374Z" fill="#3E85F1"/>
<path opacity="0.4" d="M68.7153 25.7409H69.2194C69.3545 25.7422 69.4885 25.7169 69.6137 25.6663C69.739 25.6158 69.8532 25.541 69.9496 25.4463C70.046 25.3515 70.1229 25.2387 70.1758 25.1142C70.2287 24.9897 70.2566 24.856 70.2579 24.7207V23.7813C70.2579 23.7677 70.2552 23.7542 70.25 23.7416C70.2447 23.729 70.237 23.7176 70.2273 23.7081C70.2176 23.6985 70.2061 23.691 70.1935 23.6859C70.1808 23.6809 70.1673 23.6784 70.1537 23.6786H68.7287C68.6981 23.679 68.6689 23.6914 68.6472 23.7131C68.6256 23.7348 68.6132 23.7641 68.6128 23.7948L68.6195 25.6382C68.6195 25.6643 68.6293 25.6894 68.6471 25.7085C68.6649 25.7276 68.6893 25.7392 68.7153 25.7409Z" fill="black"/>
<path d="M60.9819 21.98H69.5621C69.6847 21.9764 69.8065 22.0002 69.9188 22.0496C70.031 22.099 70.131 22.1727 70.2113 22.2655C70.2917 22.3583 70.3505 22.4678 70.3836 22.5861C70.4166 22.7044 70.423 22.8286 70.4023 22.9496L70.1452 24.8638C70.1034 25.1283 69.9708 25.37 69.7701 25.547C69.5695 25.7241 69.3134 25.8254 69.0462 25.8335H60.4627C60.3401 25.837 60.2183 25.8132 60.106 25.7638C59.9937 25.7144 59.8938 25.6407 59.8134 25.5479C59.733 25.4551 59.6742 25.3456 59.6412 25.2273C59.6082 25.109 59.6018 24.9849 59.6225 24.8638L59.8813 22.9496C59.9231 22.6848 60.056 22.4429 60.257 22.2659C60.458 22.0888 60.7144 21.9877 60.9819 21.98Z" fill="#3E85F1"/>
<path opacity="0.6" d="M60.9819 21.98H69.5621C69.6847 21.9764 69.8065 22.0002 69.9188 22.0496C70.031 22.099 70.131 22.1727 70.2113 22.2655C70.2917 22.3583 70.3505 22.4678 70.3836 22.5861C70.4166 22.7044 70.423 22.8286 70.4023 22.9496L70.1452 24.8638C70.1034 25.1283 69.9708 25.37 69.7701 25.547C69.5695 25.7241 69.3134 25.8254 69.0462 25.8335H60.4627C60.3401 25.837 60.2183 25.8132 60.106 25.7638C59.9937 25.7144 59.8938 25.6407 59.8134 25.5479C59.733 25.4551 59.6742 25.3456 59.6412 25.2273C59.6082 25.109 59.6018 24.9849 59.6225 24.8638L59.8813 22.9496C59.9231 22.6848 60.056 22.4429 60.257 22.2659C60.458 22.0888 60.7144 21.9877 60.9819 21.98Z" fill="white"/>
<path opacity="0.5" d="M69.3404 22.9059H65.4755C65.4396 22.9088 65.4035 22.9042 65.3696 22.8924C65.3356 22.8807 65.3044 22.862 65.2779 22.8376C65.2515 22.8131 65.2304 22.7835 65.216 22.7505C65.2015 22.7175 65.1941 22.6818 65.1941 22.6458C65.1941 22.6098 65.2015 22.5741 65.216 22.5411C65.2304 22.5081 65.2515 22.4784 65.2779 22.454C65.3044 22.4296 65.3356 22.4109 65.3696 22.3991C65.4035 22.3874 65.4396 22.3828 65.4755 22.3857H69.3404C69.4056 22.3909 69.4665 22.4206 69.5109 22.4688C69.5553 22.517 69.58 22.5802 69.58 22.6458C69.58 22.7114 69.5553 22.7745 69.5109 22.8227C69.4665 22.8709 69.4056 22.9006 69.3404 22.9059Z" fill="white"/>
<path opacity="0.5" d="M64.19 22.9059H63.7833C63.7475 22.9088 63.7114 22.9042 63.6774 22.8924C63.6434 22.8807 63.6122 22.862 63.5858 22.8376C63.5594 22.8131 63.5383 22.7835 63.5238 22.7505C63.5094 22.7175 63.502 22.6818 63.502 22.6458C63.502 22.6098 63.5094 22.5741 63.5238 22.5411C63.5383 22.5081 63.5594 22.4784 63.5858 22.454C63.6122 22.4296 63.6434 22.4109 63.6774 22.3991C63.7114 22.3874 63.7475 22.3828 63.7833 22.3857H64.19C64.2258 22.3828 64.2619 22.3874 64.2959 22.3991C64.3299 22.4109 64.3611 22.4296 64.3875 22.454C64.4139 22.4784 64.435 22.5081 64.4495 22.5411C64.4639 22.5741 64.4713 22.6098 64.4713 22.6458C64.4713 22.6818 64.4639 22.7175 64.4495 22.7505C64.435 22.7835 64.4139 22.8131 64.3875 22.8376C64.3611 22.862 64.3299 22.8807 64.2959 22.8924C64.2619 22.9042 64.2258 22.9088 64.19 22.9059Z" fill="white"/>
</svg>
