<svg class="svgicon svgicon-useradd" xmlns="http://www.w3.org/2000/svg" width="20" height="16" viewBox="0 0 31 25"><path d="M11.0833 3.58333C10.2877 3.58333 9.52463 3.8994 8.96202 4.46201C8.39941 5.02462 8.08334 5.78768 8.08334 6.58333C8.08334 7.37898 8.39941 8.14204 8.96202 8.70465C9.52463 9.26726 10.2877 9.58333 11.0833 9.58333C11.879 9.58333 12.6421 9.26726 13.2047 8.70465C13.7673 8.14204 14.0833 7.37898 14.0833 6.58333C14.0833 5.78768 13.7673 5.02462 13.2047 4.46201C12.6421 3.8994 11.879 3.58333 11.0833 3.58333ZM6.8407 2.34069C7.96592 1.21547 9.49204 0.583328 11.0833 0.583328C12.6746 0.583328 14.2008 1.21547 15.326 2.34069C16.4512 3.46591 17.0833 4.99203 17.0833 6.58333C17.0833 8.17463 16.4512 9.70075 15.326 10.826C14.2008 11.9512 12.6746 12.5833 11.0833 12.5833C9.49205 12.5833 7.96592 11.9512 6.8407 10.826C5.71548 9.70075 5.08334 8.17463 5.08334 6.58333C5.08334 4.99203 5.71548 3.46591 6.8407 2.34069ZM24.5833 5.08333C25.4118 5.08333 26.0833 5.7549 26.0833 6.58333V9.58333H29.0833C29.9118 9.58333 30.5833 10.2549 30.5833 11.0833C30.5833 11.9118 29.9118 12.5833 29.0833 12.5833H26.0833V15.5833C26.0833 16.4118 25.4118 17.0833 24.5833 17.0833C23.7549 17.0833 23.0833 16.4118 23.0833 15.5833V12.5833H20.0833C19.2549 12.5833 18.5833 11.9118 18.5833 11.0833C18.5833 10.2549 19.2549 9.58333 20.0833 9.58333H23.0833V6.58333C23.0833 5.7549 23.7549 5.08333 24.5833 5.08333ZM0.583344 21.2083C0.583344 17.0914 4.32793 14.0833 8.51234 14.0833H13.6543C17.8388 14.0833 21.5833 17.0914 21.5833 21.2083V23.0833C21.5833 23.9118 20.9118 24.5833 20.0833 24.5833C19.2549 24.5833 18.5833 23.9118 18.5833 23.0833V21.2083C18.5833 19.1122 16.5709 17.0833 13.6543 17.0833H8.51234C5.59576 17.0833 3.58334 19.1122 3.58334 21.2083V23.0833C3.58334 23.9118 2.91177 24.5833 2.08334 24.5833C1.25492 24.5833 0.583344 23.9118 0.583344 23.0833V21.2083Z" /></svg>