<svg width="1440" height="330" viewBox="0 0 1440 330" fill="none" xmlns="http://www.w3.org/2000/svg">
<g clip-path="url(#clip0_61_3946)">
<path d="M-720.598 653.947C-724.544 630.676 -711.123 288.905 -586.782 5.92435C-475.168 -247.733 -215.617 -392.302 88.161 -209.989C413.647 -14.5958 694.4 5.05307 920.781 -51.9449C1144.2 -108.454 1292.77 -278.725 1359.5 -387.301C1504.32 -621.932 1718.25 -476.801 1643.1 -168.093C1607.65 -24.4896 1514.18 15.6598 1352.21 30.5603C1182.91 46.1353 932.775 13.0743 585.835 80.4501C251.244 145.682 -125.281 302.346 -337.006 501.759C-562.334 714.161 -687.565 856.996 -720.598 653.947Z" fill="url(#paint0_linear_61_3946)"/>
</g>
<defs>
<linearGradient id="paint0_linear_61_3946" x1="1535" y1="469.321" x2="-669.332" y2="-213.96" gradientUnits="userSpaceOnUse">
<stop stop-color="#9A1E23"/>
<stop offset="1" stop-color="#D1222A"/>
</linearGradient>
<clipPath id="clip0_61_3946">
<rect width="2629" height="330" fill="white" transform="translate(-859)"/>
</clipPath>
</defs>
</svg>
