<svg width="1041" height="411" viewBox="0 0 1041 411" xmlns="http://www.w3.org/2000/svg"><g style="mix-blend-mode:multiply" opacity="0.25" clip-path="url(#clip0_712_2972)"><path d="M400.414 322.422C400.414 322.422 398.699 323.8 405.904 321.388C413.109 318.976 414.481 321.388 417.912 320.699C421.343 320.01 421.686 317.598 426.833 318.632C431.979 319.665 437.126 320.699 430.95 323.455C424.774 326.212 426.49 329.657 419.971 328.28C415.783 327.522 411.531 327.176 407.276 327.246C403.502 326.901 395.611 322.766 400.414 322.422Z"/><path d="M452.908 353.087C452.908 353.087 452.565 354.121 448.791 352.743C445.017 351.365 440.9 348.264 439.527 351.709C438.155 355.155 439.527 357.222 442.958 357.911C446.389 358.6 447.075 360.668 450.163 361.701C453.251 362.735 453.937 362.735 453.594 365.147C453.251 367.559 454.28 372.383 455.652 370.316C457.025 368.248 455.995 362.39 458.397 362.046C460.799 361.701 461.142 362.39 463.543 359.979C465.945 357.567 469.72 358.945 468.004 356.188C466.288 353.432 464.23 354.121 461.828 353.087C459.427 352.054 455.652 347.575 452.908 353.087Z"/><path d="M470.749 367.559C470.749 367.559 475.895 367.904 475.209 363.425C474.523 358.945 473.15 358.256 476.582 356.189C480.012 354.121 479.669 351.709 483.443 353.088C487.217 354.466 489.962 352.743 489.619 356.189C489.728 357.443 489.57 358.705 489.156 359.893C488.742 361.082 488.081 362.168 487.217 363.08C484.473 367.215 484.129 368.593 486.188 369.627C488.247 370.66 487.56 373.417 484.129 372.038C480.698 370.66 480.356 369.627 476.924 369.971C473.493 370.316 465.946 369.282 470.749 367.559Z"/><path d="M512.263 386.165C513.089 386.672 514.039 386.941 515.008 386.941C515.976 386.941 516.926 386.672 517.753 386.165C518.973 385.272 520.372 384.655 521.853 384.358C523.334 384.06 524.861 384.089 526.33 384.443C530.447 385.132 532.505 383.409 535.937 386.165C539.367 388.922 539.711 386.854 543.141 389.955C546.572 393.056 545.543 390.645 548.974 394.435C552.405 398.225 558.238 400.637 555.836 403.049C552.414 406.027 548.012 407.623 543.485 407.528C540.054 406.839 537.309 406.15 536.623 402.704C535.937 399.259 535.937 399.948 532.505 398.225C529.075 396.502 532.849 392.023 527.359 393.401C521.87 394.78 521.183 393.401 518.439 394.435C515.694 395.469 515.008 392.712 512.949 390.989C510.891 389.267 507.459 386.165 512.263 386.165Z"/><path d="M614.162 408.562C614.162 408.562 618.622 407.184 618.622 404.427C618.622 401.671 617.25 403.738 617.936 398.57C618.622 393.401 617.25 391.679 621.024 390.3C624.798 388.922 626.513 383.754 627.886 385.821C629.258 387.889 630.973 387.199 633.718 388.578C636.463 389.956 636.463 391.334 639.208 387.889C641.952 384.443 638.178 383.409 641.609 380.308C645.04 377.207 644.011 379.963 648.128 376.862C652.245 373.761 652.931 373.417 655.333 373.761C657.735 374.106 654.99 374.795 654.303 378.241C653.618 381.687 658.421 382.375 655.333 384.443C652.245 386.51 651.216 385.132 649.157 388.922C647.775 391.981 646.049 394.872 644.011 397.536C641.266 400.982 641.266 405.116 637.835 405.116C634.404 405.116 632.003 401.326 629.601 404.772C627.199 408.217 628.572 411.318 624.454 410.974C620.338 410.629 620.68 410.629 617.936 410.285C615.191 409.94 610.731 410.285 614.162 408.562Z"/><path d="M610.388 363.08C611.851 362.306 613.231 361.382 614.505 360.324C616.563 358.601 617.25 361.012 619.308 358.601C621.367 356.189 622.396 353.088 623.768 355.155C623.768 355.155 625.141 356.878 623.082 359.634C621.024 362.391 620.68 364.803 618.279 364.458C615.877 364.114 613.476 365.836 611.417 365.492C609.358 365.147 606.957 364.114 610.388 363.08Z"/><path d="M636.806 361.012C636.915 359.363 637.262 357.738 637.835 356.189C638.864 353.088 639.551 355.155 644.011 355.155C648.471 355.155 657.735 352.743 653.274 356.189C650.452 358.468 647.176 360.112 643.668 361.012C638.522 363.08 636.463 364.803 636.806 361.012Z"/><path d="M633.718 355.155C633.718 355.155 632.689 359.634 632.003 362.046C631.316 364.458 628.572 366.87 628.228 364.114C627.886 361.357 626.513 360.324 628.915 358.256C631.316 356.189 632.346 353.088 633.718 355.155Z"/><path d="M696.504 345.852C696.504 345.852 697.877 339.305 701.651 339.995C705.425 340.684 705.425 344.474 708.513 340.684C711.6 336.894 710.571 333.103 714.002 335.86C717.433 338.616 721.207 337.927 719.835 340.684C718.462 343.44 716.747 343.44 713.316 345.163C709.885 346.886 709.199 342.751 704.739 345.163C700.278 347.575 693.073 351.709 696.504 345.852Z"/><path d="M815.901 345.852C815.523 343.572 815.215 336.204 818.646 333.793C821.386 331.886 823.916 329.691 826.194 327.246C828.938 324.49 831.683 324.145 833.399 325.179C835.114 326.212 830.997 326.212 829.624 329.658C828.252 333.103 831.683 334.482 828.595 337.583C825.508 340.684 824.478 338.961 823.106 343.096C821.734 347.23 822.076 348.953 820.018 347.919C817.959 346.886 816.587 349.987 815.901 345.852Z"/><path d="M986.418 330.691C982.723 330.691 975.782 332.414 974.067 335.86C972.351 339.305 970.636 338.616 968.577 344.129C966.519 349.642 967.891 347.919 965.832 353.777C963.774 359.635 964.46 356.533 970.293 356.189C976.126 355.844 980.586 357.223 983.674 354.121C985.444 352.069 987.05 349.881 988.477 347.575C990.535 345.163 995.682 341.717 993.623 338.272C991.565 334.826 992.251 330.691 986.418 330.691Z"/><path d="M916.084 185.976C916.315 186.38 916.627 186.73 917.001 187.005C917.376 187.279 917.803 187.471 918.256 187.569C918.709 187.666 919.178 187.667 919.631 187.57C920.084 187.474 920.512 187.283 920.887 187.01C924.319 185.287 927.063 188.388 930.837 187.699C934.611 187.01 932.896 189.077 939.071 188.733C945.247 188.388 949.364 190.111 945.247 191.145C941.347 192.262 937.29 192.728 933.239 192.523C930.66 192.528 928.102 192.061 925.691 191.145C923.289 190.111 923.289 189.766 920.887 190.111C918.486 190.455 912.996 187.354 916.084 185.976Z"/><path d="M912.653 161.857C914.155 163.561 915.759 165.172 917.457 166.681C919.858 168.748 918.486 171.849 919.858 168.748C921.231 165.647 921.917 162.891 920.201 162.202C918.486 161.512 911.967 160.479 912.653 161.857Z"/><path d="M924.318 162.891C923.697 165.486 923.581 168.176 923.975 170.816C924.661 174.951 923.289 174.606 927.406 174.606C931.523 174.606 930.837 178.052 933.925 175.64C937.012 173.227 932.209 175.295 930.837 171.505C929.465 167.714 927.749 162.202 924.318 162.891Z"/><path d="M803.55 224.567C803.042 223.408 802.147 222.463 801.019 221.896C799.891 221.33 798.602 221.178 797.374 221.466C792.57 222.155 791.541 223.189 787.424 219.743C783.307 216.297 782.278 213.196 778.504 216.642C774.73 220.088 771.298 224.222 770.612 220.777C769.927 217.331 772.328 213.886 768.211 216.297C764.094 218.709 758.261 215.953 753.801 217.676C749.34 219.398 748.998 218.02 746.939 221.466C744.881 224.911 745.567 218.709 744.881 224.911C744.194 231.113 740.763 234.214 742.479 234.559C744.194 234.904 746.939 223.189 748.998 224.911C751.056 226.634 752.085 224.567 753.115 228.357C754.144 232.147 750.027 232.492 754.144 232.147C758.261 231.803 761.006 234.214 762.378 231.458C763.75 228.702 764.437 230.08 765.809 228.357C767.182 226.634 765.123 222.155 767.182 226.634C769.24 231.113 771.985 228.357 774.73 230.769C777.474 233.181 779.19 234.559 779.876 233.525C780.963 232.253 781.676 230.702 781.934 229.046C781.934 227.323 781.592 230.769 785.022 229.391C788.453 228.012 789.482 226.979 790.169 230.424C790.855 233.87 790.169 233.525 794.972 235.593C799.776 237.66 806.637 241.106 809.725 242.14C812.813 243.173 810.411 240.072 810.068 236.282C810.053 233.936 809.447 231.632 808.307 229.583C807.168 227.535 805.531 225.81 803.55 224.567Z"/><path d="M896.528 285.209C896.528 285.209 896.871 284.865 893.097 289.689C889.323 294.512 886.921 298.647 890.695 296.58C894.469 294.512 897.557 296.58 898.243 293.823C898.929 291.067 897.557 283.487 896.528 285.209Z"/><path d="M897.214 304.16C895.702 303.192 894.318 302.034 893.097 300.714C892.067 299.681 891.381 297.613 893.783 297.613C896.185 297.613 898.586 294.512 899.615 296.236C900.645 297.958 901.331 305.883 897.214 304.16Z"/><path d="M888.98 302.437C890.032 302.732 891.008 303.255 891.838 303.97C892.668 304.684 893.332 305.572 893.783 306.572C894.812 309.673 895.155 309.329 893.44 313.119C891.725 316.909 894.126 317.598 892.067 320.01C890.009 322.422 888.637 322.766 886.921 320.01C885.206 317.253 884.863 316.909 887.264 313.808C889.666 310.707 891.381 311.74 889.323 308.984C887.264 306.228 884.519 301.059 888.98 302.437Z"/><path d="M727.726 229.735C727.726 229.735 726.353 230.769 726.01 227.323C725.667 223.878 723.609 224.567 720.178 223.189C716.747 221.811 718.462 221.811 712.287 222.844C706.111 223.878 700.965 221.811 700.965 226.29C700.965 230.769 703.709 231.803 704.395 234.215C705.082 236.627 702.337 235.249 708.169 238.35C714.002 241.451 713.659 240.761 718.119 240.072C722.579 239.383 723.609 240.417 726.01 237.316C728.412 234.215 730.814 230.08 727.726 229.735Z"/><path d="M753.801 164.958C751.734 163.443 750.082 161.428 748.998 159.101C747.239 156.38 745.745 153.495 744.537 150.487C743.583 147.366 743.234 144.091 743.508 140.839C743.508 137.738 740.077 134.637 744.194 133.259C748.311 131.88 747.625 134.637 751.743 134.981C755.859 135.326 757.232 138.771 761.006 138.427C764.78 138.082 766.495 137.049 763.75 134.981C761.006 132.914 757.918 133.948 754.83 128.779C751.743 123.611 753.801 124.989 756.889 121.199C759.976 117.409 762.721 114.997 762.721 112.585C762.721 110.173 761.006 107.416 762.035 105.005C763.065 102.593 754.487 104.66 750.713 108.45C746.939 112.241 748.998 112.241 748.655 115.342C748.311 118.443 751.399 115.342 745.91 120.165C740.42 124.989 739.048 127.057 738.362 123.611C737.675 120.165 738.362 121.888 741.449 116.72C744.537 111.551 745.567 113.963 745.224 108.45C744.881 102.937 746.596 101.904 743.508 100.525C740.42 99.147 738.362 100.181 742.136 96.046C745.91 91.9114 746.253 89.1548 745.224 89.1548C741.578 92.0519 738.446 95.5468 735.96 99.4918C733.568 102.385 732.344 106.073 732.529 109.828C732.186 115.342 729.784 111.896 732.186 118.443C734.588 124.989 734.931 120.855 735.96 128.435C736.989 136.015 739.391 135.326 738.705 140.15C738.019 144.973 736.303 144.629 739.734 150.142C741.643 153.25 743.362 156.472 744.881 159.79C747.625 164.958 756.889 172.194 753.801 164.958Z"/><path d="M813.842 168.403C813.842 168.403 804.578 168.403 805.608 171.849C806.637 175.295 805.265 179.085 809.039 178.74C812.813 178.396 814.528 171.849 813.842 168.403Z"/><path d="M796.344 188.388C796.344 188.388 796.002 189.766 791.541 190.8C787.081 191.834 784.337 193.212 788.11 194.935C791.884 196.657 790.855 197.346 795.315 196.313C799.776 195.279 801.834 188.733 796.344 188.388Z"/><path d="M815.901 153.243C814.438 151.432 812.552 150.011 810.411 149.108C806.98 147.73 805.951 143.94 810.754 144.973C815.558 146.007 820.018 144.973 820.704 148.074C821.39 151.176 820.704 156.688 815.901 153.243Z"/><path d="M729.441 154.277C729.441 154.277 730.471 155.655 733.215 154.621C735.96 153.588 739.048 150.487 737.675 154.621C736.303 158.756 733.559 160.134 736.303 161.168C739.048 162.202 740.077 160.134 741.793 163.924C743.508 167.714 741.107 169.093 737.333 166.681C733.559 164.269 732.872 165.303 731.843 161.512C730.814 157.722 725.667 153.243 729.441 154.277Z"/><path d="M738.704 175.984C738.461 176.45 738.332 176.968 738.327 177.495C738.322 178.022 738.441 178.542 738.676 179.013C738.911 179.484 739.253 179.893 739.676 180.205C740.098 180.517 740.589 180.723 741.106 180.808C745.223 181.842 746.596 182.531 747.968 184.253C749.34 185.976 751.399 189.422 746.939 188.388C742.478 187.354 741.793 189.766 737.675 189.077C733.558 188.388 729.784 188.044 731.157 184.598C732.529 181.152 733.558 182.531 735.274 180.118C736.989 177.707 734.588 172.883 738.704 175.984Z"/><path d="M687.241 191.834C687.241 191.834 686.211 194.59 691.701 193.557C697.19 192.523 697.19 191.489 700.278 192.523C703.366 193.557 704.052 195.279 706.111 192.867C708.169 190.456 705.081 190.456 701.994 189.766C698.906 189.077 699.592 187.355 695.132 189.077C693.853 189.584 692.475 189.786 691.105 189.666C689.736 189.547 688.413 189.109 687.241 188.388C687.241 188.388 685.182 188.388 687.241 191.834Z"/><path d="M572.99 301.748C572.882 302.869 573.009 304.001 573.364 305.069C573.718 306.137 574.292 307.119 575.049 307.95C576.764 310.018 576.764 305.883 576.421 304.16C576.078 302.437 572.99 298.992 572.99 301.748Z"/><path d="M310.845 315.588C309.402 314.702 307.755 314.207 306.064 314.152C304.005 314.152 304.692 313.808 303.319 310.362C301.947 306.917 301.947 305.194 297.829 305.883C293.712 306.572 293.712 303.815 290.282 303.471C286.851 303.126 288.223 306.572 284.106 303.471C279.989 300.37 281.361 297.269 277.93 297.269C274.499 297.269 279.646 299.681 274.499 297.269C275.186 300.37 270.725 301.748 269.696 303.126C268.617 304.447 267.472 305.712 266.265 306.917C264.647 306.623 263.144 305.876 261.931 304.76C260.132 305.623 257.89 307.009 257.688 308.64C257.344 311.396 256.658 317.253 256.658 317.253L255.677 318.362C258.725 318.292 261.13 317.587 259.06 319.665C255.972 322.766 250.825 322.766 252.198 325.867C253.57 328.968 251.169 331.036 257.001 331.381C262.877 331.983 268.647 333.373 274.156 335.515C278.959 337.238 282.734 337.582 288.566 339.305C294.399 341.028 296.457 345.163 301.26 341.717C303.043 340.438 304.258 339.398 305.293 338.664C306.422 333.668 308.06 328.803 310.18 324.145C310.959 321.364 311.185 318.457 310.845 315.588Z"/><path d="M257.688 308.639C257.89 307.008 260.132 305.623 261.931 304.76C261.579 304.388 261.303 303.95 261.118 303.471C260.462 301.468 260.115 299.377 260.089 297.269C259.331 297.599 258.514 297.769 257.687 297.769C256.861 297.769 256.044 297.599 255.286 297.269C252.198 296.235 251.169 298.992 249.11 296.58C247.052 294.168 249.453 289.689 247.052 294.168C244.65 298.647 242.249 297.958 242.249 303.126C242.249 308.295 245.336 307.261 240.876 311.74C237.531 315.1 236.887 317.296 235.472 317.313C234.812 317.244 234.186 316.984 233.671 316.564C230.583 314.497 227.838 314.841 228.524 316.564C229.211 318.287 234.357 319.665 238.131 319.321C241.905 318.976 247.052 315.531 251.169 317.598C252.59 318.209 254.135 318.471 255.677 318.362L256.658 317.253C256.658 317.253 257.344 311.396 257.688 308.639Z"/><path d="M365.076 347.23C366.448 344.129 365.076 342.406 365.076 338.616C365.076 334.826 361.645 334.481 366.791 331.725C371.938 328.968 373.653 328.624 374.683 323.8C375.461 321.013 376.614 318.346 378.111 315.872C377.665 315.718 377.207 315.604 376.741 315.531C374.683 315.186 375.368 312.774 372.281 313.119C369.193 313.463 366.791 315.186 364.047 313.808C361.302 312.43 362.331 307.605 358.9 307.605C357.373 307.523 355.869 308.002 354.669 308.953C353.469 309.905 352.655 311.263 352.381 312.774C351.352 316.22 351.352 320.699 347.235 320.354C343.536 319.408 339.73 318.945 335.913 318.976C332.139 319.665 333.511 315.875 327.678 317.253C321.846 318.632 326.306 322.766 317.386 318.632C314.334 317.217 312.3 316.254 310.845 315.588C311.185 318.456 310.959 321.364 310.181 324.144C308.06 328.803 306.422 333.668 305.293 338.664C306.054 338.017 306.984 337.604 307.972 337.473C308.961 337.342 309.966 337.5 310.867 337.927C314.984 339.305 318.415 337.582 321.846 339.994C324.594 341.973 327.768 343.271 331.109 343.784C333.386 344.457 335.716 344.869 338.036 345.364C339.492 342.561 342.045 338.142 343.461 338.616C345.519 339.305 344.49 342.062 347.921 342.751C351.352 343.44 351.009 342.406 352.038 345.852C352.52 347.768 352.62 349.76 352.332 351.715C354.191 352.446 356.113 353.007 358.073 353.391C358.624 352.857 359.249 352.407 359.929 352.054C362.674 350.676 363.703 350.331 365.076 347.23Z"/><path d="M352.038 345.852C351.009 342.406 351.352 343.44 347.921 342.751C344.49 342.062 345.519 339.305 343.461 338.616C342.045 338.142 339.492 342.561 338.036 345.365C341.836 345.972 345.45 347.435 348.607 349.642C349.756 350.489 351.008 351.186 352.332 351.715C352.62 349.761 352.52 347.768 352.038 345.852Z"/><path d="M441.586 366.181C440.016 364.13 438.638 361.939 437.469 359.634C436.439 356.878 433.351 355.155 435.41 351.709C437.469 348.264 439.527 348.608 439.184 345.507C439.139 344.316 438.715 343.172 437.974 342.241C437.232 341.311 436.213 340.644 435.067 340.339C432.665 339.305 431.636 336.204 427.519 338.272C423.402 340.339 417.226 344.129 411.737 341.028C406.247 337.927 404.875 341.373 402.13 338.961C399.385 336.548 402.816 335.515 401.101 331.725C399.385 327.935 398.699 329.657 396.297 324.489C393.896 319.321 396.297 316.564 391.494 318.287C386.691 320.01 386.004 322.077 382.917 319.321C381.549 317.873 379.918 316.702 378.111 315.872C376.614 318.346 375.461 321.013 374.683 323.8C373.653 328.624 371.938 328.968 366.791 331.725C361.645 334.481 365.076 334.826 365.076 338.616C365.076 342.406 366.448 344.129 365.076 347.23C363.703 350.331 362.674 350.676 359.929 352.054C359.249 352.407 358.624 352.857 358.073 353.391C360.257 353.646 362.388 354.241 364.39 355.155C366.791 356.878 367.82 353.432 373.653 354.81C379.486 356.188 380.172 350.676 385.319 352.054C390.465 353.432 388.063 356.878 392.181 357.911C393.842 358.399 395.587 358.529 397.302 358.292C399.017 358.054 400.662 357.455 402.13 356.533C405.218 354.81 406.247 353.777 412.08 356.188C417.913 358.6 419.971 358.945 423.402 360.668C426.833 362.391 427.862 357.911 433.351 363.424C438.841 368.937 442.958 368.592 441.586 366.181Z"/><path d="M261.931 304.76C263.144 305.876 264.647 306.623 266.265 306.917C267.472 305.713 268.617 304.447 269.696 303.126C270.725 301.749 275.186 300.37 274.499 297.269C269.353 294.857 271.068 293.135 267.637 294.857C264.206 296.58 263.863 298.648 260.089 297.269C260.115 299.377 260.462 301.469 261.118 303.471C261.303 303.95 261.579 304.388 261.931 304.76Z"/><path d="M117.362 84.6753C117.519 85.2105 117.683 85.6635 117.851 86.0806C117.793 85.5816 117.626 85.1016 117.362 84.6753Z"/><path d="M64.1829 71.2378C63.8395 67.792 61.0946 54.3544 60.0659 49.8752C59.0363 45.3958 62.8104 44.7066 64.5257 41.6056C65.835 39.6411 67.3557 37.8273 69.0603 36.1971C70.3105 33.6681 71.4215 33.4735 68.6431 31.6134C65.5553 29.5459 65.8982 32.9917 62.8104 27.134C59.7226 21.2763 63.1537 22.6547 59.0363 18.8645C54.9189 15.0743 62.1242 11.9733 52.8607 13.3516C43.5973 14.73 47.7147 19.2093 41.8819 15.0743C36.0492 10.9398 37.7645 10.595 34.3334 10.595C30.7549 10.9532 27.1412 10.6021 23.6975 9.56147C18.8777 7.51078 14.2793 4.97084 9.97376 1.98122C7.22921 -0.430675 5.1706 -1.11984 2.42614 2.67033C1.16945 4.6553 0.350415 6.88743 0.0240904 9.2167C-0.318791 12.6625 3.1119 10.9398 3.1119 14.73C3.1119 18.5202 0.710793 19.5537 3.45525 22.6547C6.20018 25.7557 7.2293 26.1005 10.3171 29.5459C13.4049 32.9917 14.434 31.9577 16.1494 35.7479C17.8647 39.5381 19.2372 38.5046 21.6392 40.9165C24.0408 43.3283 27.1291 51.2535 30.9027 51.5978C34.6767 51.9426 35.363 49.5303 37.7645 52.6313C40.1661 55.7328 37.7645 55.388 41.5386 58.489C45.3126 61.59 44.283 62.6235 46.3422 64.691C48.4004 66.7585 50.1158 66.7585 50.4587 69.5151C50.8025 72.2713 54.5761 72.9605 55.2628 75.7167C55.9485 78.4734 54.5761 79.8517 55.6057 82.9527C56.6343 86.0537 54.2332 88.466 57.321 88.466C58.9837 88.2637 60.6272 87.9265 62.2356 87.4575C63.6426 84.7793 64.8663 82.0078 65.8982 79.1625C67.2707 74.6832 64.5257 74.6832 64.1829 71.2378Z"/><path d="M117.019 95.7015C118.049 100.87 119.764 102.248 116.333 107.761C112.902 113.274 112.216 111.551 113.245 114.308C113.797 117.266 114.141 120.26 114.275 123.266C114.863 126.225 112.415 125.375 109.54 125.512C109.199 126.939 109.387 128.443 110.069 129.741C110.751 131.04 111.88 132.045 113.245 132.569C118.391 134.981 119.764 133.948 123.538 137.738C127.312 141.528 126.282 139.805 128.342 145.662C130.4 151.52 129.37 153.588 134.174 159.445C136.396 162.467 139.056 165.138 142.065 167.37C143.543 168.557 148.319 172.548 149.619 173.634C151.834 171.183 154.903 169.68 158.191 169.437C162.308 169.782 164.366 171.849 168.483 168.059C172.601 164.269 178.776 165.647 182.55 165.647C184.78 165.506 186.991 165.14 189.149 164.555C188.458 163.69 188.069 162.621 188.04 161.512C187.697 156.689 189.755 156.689 193.186 154.621C196.617 152.554 197.989 151.176 196.96 149.453C196.229 147.469 195.879 145.365 195.931 143.251C195.588 140.839 196.617 139.46 192.843 137.049C189.069 134.637 188.04 132.914 183.579 133.948C179.119 134.981 178.776 137.738 174.659 138.082C170.542 138.427 178.09 134.981 178.09 132.225C178.09 129.468 176.718 129.468 173.286 127.746C169.856 126.023 170.885 127.056 164.709 121.199C161.634 118.737 159.069 115.693 157.161 112.24C154.073 107.761 152.701 105.349 149.27 104.66C145.839 103.971 145.839 108.795 140.692 100.525C135.546 92.2557 137.948 90.1887 132.801 90.1887C127.655 90.1887 125.597 92.9448 123.538 90.8778C121.667 88.9993 119.516 90.2307 117.851 86.0806C118.16 88.516 116.16 91.3875 117.019 95.7015Z"/><path d="M117.117 83.8032C117.13 84.1091 117.214 84.4077 117.362 84.6752C117.274 84.3748 117.195 84.0876 117.117 83.8032Z"/><path d="M100.551 130.847C104.325 131.191 104.668 126.367 108.099 125.678C108.575 125.587 109.056 125.531 109.54 125.512C109.565 125.402 109.586 125.334 109.586 125.334C109.586 125.334 109.565 125.402 109.54 125.512C112.415 125.375 114.863 126.225 114.275 123.266C114.141 120.26 113.797 117.266 113.245 114.308C112.216 111.551 112.902 113.274 116.333 107.761C119.764 102.248 118.049 100.87 117.019 95.7016C116.16 91.3876 118.16 88.5162 117.851 86.0807C117.683 85.6636 117.519 85.2106 117.362 84.6755C117.214 84.4079 117.13 84.1093 117.117 83.8035C115.672 78.5424 115.743 75.9558 111.186 73.9942C106.383 71.9271 108.442 72.9606 105.354 68.4812C104.081 66.0692 102.185 64.0458 99.8646 62.6236C96.4335 59.8674 94.3753 54.3545 88.1996 52.9762C82.024 51.5979 84.0822 54.0097 79.9648 49.186C75.8479 44.3619 77.5637 44.0175 73.1035 42.2949C68.6432 40.5723 67.2707 40.5722 68.6432 37.1263C68.78 36.781 68.9212 36.4787 69.0604 36.1973C67.3557 37.8274 65.835 39.6412 64.5258 41.6057C62.8104 44.7067 59.0364 45.3959 60.066 49.8753C61.0946 54.3546 63.8395 67.7921 64.1829 71.238C64.5258 74.6833 67.2707 74.6833 65.8982 79.1627C64.8664 82.008 63.6427 84.7794 62.2357 87.4577C62.5895 87.4032 62.9511 87.4351 63.29 87.5506C63.629 87.6661 63.9352 87.8619 64.1829 88.1213C66.7888 89.9365 69.2029 92.0147 71.3876 94.3234C74.1326 97.7687 76.1913 95.7017 77.5637 97.7687C78.9362 99.8362 78.5924 101.559 80.6515 102.248C82.7098 102.937 77.2204 104.66 79.2791 106.727C82.3249 110.769 84.3286 115.503 85.1118 120.51C86.8272 127.746 89.2283 128.779 89.915 132.225C90.4319 134.819 89.9766 136.242 90.8919 137.374C91.9535 136.695 93.0602 135.977 94.0324 135.326C97.1197 133.259 96.7768 130.502 100.551 130.847Z"/><path d="M168.483 168.059C164.366 171.849 162.308 169.782 158.191 169.437C154.903 169.68 151.834 171.183 149.619 173.634L149.956 173.916L149.619 173.634C148.545 174.624 147.619 175.763 146.868 177.017C145.153 180.118 137.948 191.144 139.32 194.935C140.692 198.725 138.977 201.137 141.379 204.582C143.072 207.79 145.274 210.699 147.898 213.196C152.015 216.987 152.358 216.297 155.789 219.743C156.44 220.396 157.028 221.063 157.589 221.729C160.97 219.614 169.185 214.109 170.542 209.751C172.257 204.238 173.63 200.103 176.374 202.17C179.119 204.238 180.834 206.305 183.922 203.204C187.01 200.103 188.725 194.59 192.157 192.867C195.588 191.145 198.332 193.212 201.763 191.489C204.958 189.382 208.021 187.08 210.937 184.598C210.852 184.268 210.767 183.928 210.683 183.564C209.655 179.085 209.998 171.16 207.596 171.849C205.195 172.538 203.136 168.748 200.734 169.437C198.332 170.126 197.989 170.126 195.245 168.059C193.286 166.584 190.636 166.328 189.149 164.555C186.991 165.14 184.78 165.506 182.55 165.647C178.776 165.647 172.601 164.269 168.483 168.059Z"/><path d="M238.817 250.064C236.416 249.375 234.014 244.896 229.897 244.207C225.78 243.518 227.495 245.93 225.094 249.031C221.65 252.119 217.848 254.78 213.771 256.956C208.968 260.401 208.625 263.502 204.851 270.394C201.077 277.285 199.018 271.427 196.617 271.082C195.687 271.008 194.752 271.048 193.833 271.203C196.382 274.196 197.138 272.424 199.362 276.251C201.763 280.386 200.391 280.73 204.165 284.176C207.939 287.621 208.282 288.655 212.056 291.756C215.83 294.857 219.604 297.958 218.575 295.891C217.546 293.823 214.801 290.033 216.173 288.655C217.546 287.277 217.889 289.344 221.319 290.722C224.751 292.101 227.152 294.168 227.152 291.756C227.152 289.344 227.152 284.865 230.24 285.21C231.468 285.227 232.667 285.592 233.699 286.263C234.73 286.933 235.553 287.881 236.073 289C237.445 291.411 239.504 294.513 240.532 292.79C241.505 290.39 241.859 287.783 241.562 285.21C241.562 281.764 244.993 277.285 244.307 273.495C243.621 269.704 245.679 268.326 245.337 264.536C244.993 260.746 241.905 259.023 241.905 255.233C241.831 253.491 242.193 251.759 242.957 250.193C241.578 250.338 240.185 250.294 238.817 250.064Z"/><path d="M244.307 238.694C243.916 237.412 243.837 236.055 244.076 234.736C244.315 233.417 244.865 232.175 245.679 231.113C247.395 228.012 249.453 227.668 248.081 224.911C246.709 222.155 244.307 225.256 241.562 219.054C240.26 215.882 239.562 212.492 239.504 209.061C238.817 207.339 238.817 204.238 236.073 204.927C233.328 205.616 228.868 208.028 225.437 204.238C222.006 200.447 220.634 207.339 219.604 204.238C218.575 201.137 221.319 199.758 220.29 197.691C219.261 195.624 219.604 197.347 216.173 193.556C213.592 191.15 211.771 188.035 210.937 184.598C208.021 187.08 204.958 189.382 201.763 191.489C198.332 193.212 195.588 191.145 192.157 192.867C188.725 194.59 187.01 200.103 183.922 203.204C180.834 206.305 179.119 204.238 176.374 202.17C173.63 200.103 172.257 204.238 170.542 209.751C169.185 214.109 160.97 219.614 157.589 221.729C159.698 224.865 162.484 227.483 165.738 229.391C170.542 231.802 175.346 232.492 174.659 234.903C173.973 237.315 168.483 240.072 169.856 244.206C173.293 249.5 178.177 253.687 183.922 256.266C185.938 256.752 187.816 257.695 189.412 259.023C192.04 262.902 194.445 266.928 196.617 271.082C199.018 271.427 201.077 277.285 204.851 270.393C208.625 263.502 208.968 260.401 213.771 256.955C217.848 254.779 221.65 252.119 225.094 249.031C227.495 245.93 225.78 243.517 229.897 244.206C234.014 244.896 236.416 249.375 238.817 250.064C240.185 250.294 241.578 250.337 242.957 250.193C243.237 249.431 243.572 248.441 243.964 246.963C245.091 244.344 245.213 241.398 244.307 238.694Z"/><path d="M139.32 194.935C137.948 191.144 145.153 180.118 146.868 177.017C147.619 175.763 148.545 174.624 149.619 173.634C148.319 172.548 143.543 168.557 142.065 167.37C139.056 165.138 136.396 162.467 134.174 159.445C129.37 153.588 130.4 151.52 128.342 145.662C126.282 139.805 127.312 141.528 123.538 137.738C119.764 133.948 118.391 134.981 113.245 132.569C111.88 132.045 110.751 131.04 110.069 129.741C109.387 128.443 109.199 126.939 109.54 125.512C109.056 125.531 108.574 125.586 108.099 125.678C104.668 126.367 104.325 131.191 100.551 130.846C96.7768 130.502 97.1197 133.258 94.0323 135.326C93.0601 135.976 91.9534 136.695 90.8918 137.374C91.2866 137.823 91.7723 138.182 92.3165 138.427C95.061 139.805 94.3752 139.805 98.1488 142.906C101.923 146.007 104.325 146.007 104.668 148.419C105.011 150.831 104.325 152.209 107.756 154.966C108.953 155.678 109.995 156.624 110.82 157.749C111.645 158.873 112.236 160.153 112.559 161.512C114.275 165.647 116.676 163.235 118.391 170.126C120.107 177.017 120.794 174.95 122.509 179.085C124.224 183.22 122.166 183.909 124.91 186.665C127.655 189.422 131.429 190.8 131.086 195.279C130.743 199.758 127.998 199.758 129.714 203.204C131.037 205.67 132.67 207.955 134.572 210.004L141.379 204.582C138.977 201.137 140.692 198.725 139.32 194.935Z"/><path d="M196.617 271.082C194.445 266.928 192.04 262.902 189.412 259.023C187.815 257.695 185.938 256.752 183.922 256.266C178.177 253.687 173.293 249.5 169.856 244.206C168.483 240.072 173.973 237.315 174.659 234.903C175.346 232.492 170.542 231.802 165.738 229.391C162.484 227.483 159.698 224.865 157.589 221.729C156.693 222.289 156.132 222.614 156.132 222.614C156.132 222.614 156.693 222.289 157.589 221.729C157.028 221.062 156.44 220.396 155.789 219.743C152.358 216.297 152.015 216.987 147.898 213.196C145.274 210.699 143.072 207.79 141.379 204.582L134.572 210.004C135.712 211.284 136.956 212.468 138.291 213.541C141.379 215.953 139.663 215.953 142.408 219.398C144.429 221.78 146.264 224.314 147.898 226.979C150.3 230.769 147.555 228.701 153.387 233.525C159.22 238.349 158.191 238.004 160.249 241.795C162.308 245.585 163.68 245.24 167.111 248.686C170.542 252.132 172.601 253.165 174.316 256.611C176.503 260.432 180.063 263.267 184.265 264.536C189.412 266.603 190.098 266.258 193.186 270.393C193.416 270.701 193.628 270.962 193.833 271.202C194.752 271.048 195.687 271.008 196.617 271.082Z"/><path d="M24.0409 78.4736C20.2668 74.6834 14.7774 69.8597 14.7774 69.8597C6.54312 66.4138 14.7774 76.0617 16.4933 79.1627C18.2086 82.2637 20.9535 82.2637 23.6975 85.3647C26.4425 88.4662 26.7853 87.0879 28.1578 84.6755C29.5303 82.2637 27.8149 82.2637 24.0409 78.4736Z"/><path d="M62.8103 121.544C63.4966 118.787 62.8103 117.064 56.9781 112.929C51.1453 108.795 51.8311 107.072 51.8311 107.072C45.6555 105.349 46.3422 109.828 49.0866 113.274C51.8311 116.72 49.0866 116.72 49.43 119.132C49.7729 121.544 52.1749 123.266 53.8903 126.023C54.7912 127.314 56.0596 128.3 57.5291 128.854C58.9986 129.407 60.6004 129.502 62.1241 129.124C65.8982 128.779 62.1241 124.3 62.8103 121.544Z"/><path d="M89.9149 180.463C87.17 178.051 89.2282 177.017 88.1996 173.572C87.17 170.126 87.5129 170.126 87.5129 170.126C84.7679 165.647 86.4842 167.37 81.6806 167.025C76.877 166.681 80.6515 170.471 78.9361 173.227C77.2203 175.984 79.6219 179.085 82.7097 182.186C85.7975 185.287 85.4546 186.321 88.8853 189.422C92.3165 192.523 92.3165 191.834 93.3456 189.766C94.3601 188.32 95.0615 186.677 95.4043 184.942C96.0905 181.842 92.6598 182.875 89.9149 180.463Z"/><path d="M102.952 197.002C98.1487 192.523 100.551 198.38 99.5212 199.758C98.4921 201.137 99.8646 202.515 103.295 204.582C106.726 206.649 107.07 207.339 108.785 208.372C110.5 209.406 109.471 205.616 106.726 202.17C105.368 200.524 104.108 198.798 102.952 197.002Z"/><path d="M112.216 211.474C111.538 212.745 111.185 214.166 111.186 215.608C111.186 218.02 113.931 220.432 113.588 218.365C113.436 216.017 112.974 213.7 112.216 211.474Z"/><path d="M206.567 119.476C209.311 120.51 211.027 120.51 212.056 122.577C213.085 124.645 217.546 124.989 215.83 121.199C214.714 118.449 214.019 115.544 213.771 112.585C213.771 112.585 213.428 109.484 211.37 112.24C211.118 112.996 210.714 113.693 210.183 114.285C209.652 114.878 209.005 115.355 208.282 115.686C205.88 116.72 203.822 118.443 206.567 119.476Z"/><path d="M170.542 122.233C173.63 124.989 175.002 123.955 176.717 125.334C177.767 125.965 178.979 126.27 180.201 126.209C181.422 126.147 182.598 125.723 183.579 124.989C184.609 123.61 181.864 122.922 176.717 121.543C173.655 120.734 170.831 119.198 168.483 117.064C162.994 115.341 167.454 119.476 170.542 122.233Z"/><path d="M212.399 138.082C211.027 138.772 209.311 138.082 211.027 141.873C211.822 143.347 212.065 145.058 211.713 146.697C211.027 149.109 210.341 151.176 212.743 150.831C215.144 150.487 214.801 148.764 216.859 150.487C218.918 152.21 220.976 154.277 222.349 153.243C223.721 152.21 222.692 149.798 220.29 148.764C217.889 147.73 217.546 146.697 216.173 143.595C214.801 140.494 213.771 137.393 212.399 138.082Z"/><path d="M208.282 164.269C210.341 167.37 209.998 162.891 211.027 160.134C212.056 157.378 213.428 158.412 214.458 157.033C215.487 155.655 214.801 154.277 212.399 154.621C209.998 154.966 208.625 155.311 208.625 155.311C205.194 155.655 207.253 156.689 207.253 158.412C207.253 160.134 206.223 161.168 208.282 164.269Z"/><path d="M257.688 208.372C252.198 208.717 252.884 201.137 251.169 195.279C249.453 189.422 251.855 192.867 249.11 189.766C246.365 186.665 248.08 186.665 246.022 183.564C243.964 180.463 243.621 182.186 241.905 184.943C240.19 187.699 243.277 189.077 243.277 190.455C243.277 191.834 241.562 191.489 240.532 189.077C239.578 187.251 238.299 185.616 236.759 184.253C230.926 179.774 233.328 182.875 231.956 184.943C230.583 187.01 234.357 188.733 233.671 191.145C232.985 193.556 230.583 192.867 227.152 193.556C226.847 193.612 226.555 193.728 226.296 193.9C226.037 194.072 225.816 194.294 225.645 194.554C225.474 194.815 225.357 195.107 225.302 195.414C225.247 195.72 225.255 196.035 225.325 196.339C225.395 196.643 225.525 196.929 225.709 197.18C225.892 197.432 226.124 197.643 226.391 197.802C226.658 197.961 226.955 198.063 227.263 198.103C227.57 198.144 227.883 198.121 228.182 198.036C230.926 197.002 232.299 200.448 237.102 198.38C241.905 196.313 239.504 198.38 242.934 200.448C246.365 202.515 242.249 203.893 244.993 207.339C247.738 210.785 244.65 209.751 244.993 214.23C245.336 218.709 251.169 218.02 254.257 218.365C257.344 218.709 259.403 222.844 262.834 222.499C266.265 222.155 262.148 220.777 258.373 217.331C254.6 213.886 260.432 216.642 261.805 214.23C263.177 211.818 264.892 212.162 265.579 210.44C266.265 208.717 263.177 208.028 257.688 208.372Z"/><path d="M297.486 212.852C296.457 211.818 293.712 209.406 291.997 211.129C291.78 210.669 291.473 210.258 291.093 209.92C290.714 209.583 290.271 209.326 289.79 209.165C289.309 209.004 288.801 208.942 288.296 208.984C287.79 209.025 287.299 209.169 286.851 209.406C283.419 211.129 283.419 211.818 283.419 213.886C283.419 215.953 281.704 215.953 282.391 219.399C283.077 222.844 282.047 225.256 282.734 225.945C283.419 226.634 285.135 223.533 286.851 224.567C288.342 225.574 289.956 226.385 291.654 226.979C293.712 227.668 293.712 225.601 295.771 224.911C297.829 224.222 294.399 222.5 296.457 219.054C298.516 215.608 298.516 213.886 297.486 212.852Z"/><path d="M366.105 213.886C364.776 211.093 363.63 208.215 362.674 205.271C361.645 200.792 362.331 200.792 361.302 195.968C360.272 191.145 354.783 190.8 358.9 187.01C362.077 184.607 364.957 181.831 367.477 178.741C369.879 175.295 371.595 178.741 373.31 177.018C375.026 175.295 373.31 174.606 377.428 171.16C381.544 167.715 380.515 164.958 385.661 164.614C390.808 164.269 393.552 167.025 396.641 163.235C399.728 159.445 400.414 158.067 404.875 158.067C409.335 158.067 408.992 157.033 413.452 152.554C417.912 148.075 414.824 141.183 419.628 136.015C424.431 130.847 428.891 130.847 427.519 127.401C426.146 123.956 424.088 124.645 428.205 119.132C430.395 115.614 431.501 111.526 431.386 107.379L430.95 107.417C423.059 108.106 425.117 112.24 422.372 113.963C419.628 115.686 416.54 113.963 411.737 112.929C406.933 111.896 408.305 110.518 405.217 107.761C402.13 105.005 403.159 102.248 397.67 103.971C393.59 104.998 389.821 107.008 386.691 109.828C382.916 112.929 385.661 117.409 381.887 119.132C380.342 120.316 378.512 121.067 376.583 121.309C374.654 121.551 372.696 121.276 370.908 120.51C363.703 118.787 366.791 120.51 362.331 119.132C357.871 117.754 357.871 119.821 354.44 121.544C350.029 123.281 345.127 123.281 340.716 121.544C335.57 119.821 340.373 118.098 336.256 112.585C332.139 107.072 333.168 109.139 329.737 106.038C326.306 102.937 327.335 94.6677 327.335 94.6677C324.934 90.1889 322.189 93.2899 322.189 97.08C322.425 98.7106 322.115 100.374 321.308 101.808C320.501 103.243 319.242 104.367 317.729 105.005C313.955 107.072 315.67 113.274 313.955 118.098C312.24 122.922 313.612 120.51 313.268 126.023C313.095 128.662 313.095 131.309 313.268 133.948C313.268 138.427 316.7 138.427 320.131 138.082C323.561 137.738 319.444 142.217 320.131 143.251C320.816 144.284 320.131 145.663 318.072 148.419C316.013 151.176 317.043 150.831 316.7 155.655C316.356 160.479 318.758 158.756 322.876 160.134C326.993 161.513 324.248 162.546 322.189 163.924C320.131 165.303 321.16 166.336 325.277 168.748C329.394 171.16 325.277 168.748 324.591 170.816C323.905 172.883 324.934 176.328 326.649 175.295C328.506 173.966 330.129 172.336 331.453 170.471C333.854 167.715 334.198 171.849 336.256 173.572C338.314 175.295 337.628 175.639 339.687 179.085C341.746 182.531 340.03 181.497 340.03 184.598C340.03 187.699 336.256 189.422 334.541 190.8C332.825 192.178 336.256 193.557 341.059 195.279C345.862 197.002 341.059 195.279 339.687 199.414C338.314 203.549 340.373 203.549 339.687 207.339C339.001 211.129 341.059 210.785 342.089 214.919C343.118 219.054 342.432 218.02 343.118 220.777C343.804 223.533 346.892 220.088 348.607 218.365C350.323 216.642 350.323 218.365 351.009 221.121C351.392 222.659 353.057 222.481 355.346 222.203C360.546 218.817 366.294 214.835 366.105 213.886Z"/><path d="M439.184 224.222C442.272 222.155 439.527 221.81 442.958 217.331C446.389 212.852 446.732 215.608 448.105 210.096C449.477 204.582 448.791 203.549 453.594 201.826C458.398 200.103 461.485 198.036 462.514 194.59C463.544 191.145 460.456 190.111 463.201 185.976C466.15 182.762 469.83 180.314 473.927 178.84C473.789 177.855 473.176 176.97 471.092 175.295C465.945 171.16 465.259 170.815 463.201 167.714C461.511 165.347 460.342 162.645 459.77 159.79C458.74 156 454.623 154.277 453.594 148.764C452.565 143.251 450.163 146.697 450.506 142.906C450.849 139.116 454.623 139.805 452.565 136.015C450.506 132.225 450.849 128.09 447.762 128.09C444.674 128.09 443.301 130.502 437.811 130.158C434.245 129.859 430.76 128.926 427.519 127.401C428.891 130.847 424.431 130.847 419.628 136.015C414.824 141.183 417.913 148.074 413.452 152.554C408.992 157.033 409.335 158.067 404.875 158.067C400.414 158.067 399.729 159.445 396.641 163.235C393.553 167.025 390.808 164.269 385.662 164.613C380.515 164.958 381.544 167.714 377.428 171.16C373.31 174.606 375.026 175.295 373.31 177.017C371.595 178.741 369.88 175.295 367.478 178.741C364.957 181.831 362.078 184.607 358.9 187.01C354.783 190.8 360.272 191.145 361.302 195.968C362.331 200.792 361.645 200.792 362.674 205.271C363.63 208.215 364.776 211.092 366.105 213.886C366.294 214.835 360.547 218.817 355.346 222.202C357.429 221.845 359.556 221.829 361.645 222.155C366.791 223.189 367.135 220.777 369.88 219.743C372.624 218.709 369.88 219.743 374.683 220.432C379.486 221.121 378.456 220.088 379.829 222.155C381.201 224.222 378.456 225.945 379.486 230.08C380.515 234.215 377.084 234.559 380.515 235.593C383.946 236.626 382.574 233.525 383.946 230.769C385.319 228.012 385.662 229.391 390.122 229.735C392.984 229.98 395.865 229.864 398.699 229.391C402.474 229.046 402.816 225.601 404.532 221.466C406.247 217.331 406.247 221.81 409.335 223.878C412.423 225.945 409.335 223.878 410.021 226.29C410.707 228.702 414.138 227.323 415.853 224.567C417.569 221.81 415.853 224.567 419.285 225.256C422.716 225.945 419.285 225.256 418.942 231.113C418.598 236.971 422.03 231.113 426.833 229.046C431.636 226.979 428.891 228.702 434.381 230.769C434.553 230.834 434.692 230.889 434.846 230.949C435.736 228.39 437.223 226.084 439.184 224.222Z"/><path d="M478.983 201.481C475.895 199.069 477.268 198.725 476.581 194.935C476.085 192.134 475.397 189.371 474.523 186.665C473.898 184.107 473.697 181.464 473.927 178.84C469.83 180.314 466.15 182.762 463.201 185.976C460.456 190.111 463.544 191.145 462.514 194.59C461.485 198.036 458.398 200.103 453.594 201.826C448.791 203.549 449.477 204.582 448.105 210.096C446.732 215.608 446.389 212.852 442.958 217.331C439.527 221.81 442.272 222.155 439.184 224.222C437.223 226.084 435.736 228.39 434.846 230.949C439.615 232.786 436.226 232.147 440.214 232.147C444.331 232.147 440.556 234.904 441.243 240.416C441.929 245.93 440.899 242.829 440.556 246.274C440.214 249.72 443.644 250.064 449.477 246.274C454.353 242.714 459.994 240.353 465.945 239.383C474.866 237.316 473.493 234.559 474.866 230.08C476.238 225.601 477.611 226.979 477.611 224.222C477.611 221.466 474.523 222.5 475.209 218.02C475.895 213.541 480.012 221.466 480.698 219.054C481.243 217.805 481.524 216.456 481.524 215.092C481.524 213.728 481.243 212.379 480.698 211.129C479.326 205.961 482.757 210.096 484.816 206.994C486.633 204.256 486.575 204.469 484.648 202.185C482.734 202.567 480.747 202.32 478.983 201.481Z"/><path d="M536.966 117.064C534.221 114.652 534.221 112.585 530.79 111.206C527.359 109.828 529.075 108.45 524.614 105.694C521.938 104.109 519.51 102.135 517.409 99.8358C513.979 96.7348 515.008 96.7348 515.008 92.2555C515.008 87.7766 520.497 89.8437 521.87 87.0875C523.242 84.3308 518.096 83.986 513.979 79.8515C509.861 75.7165 513.635 76.4056 511.234 73.9938C508.832 71.582 509.175 70.5484 508.146 66.7583C507.117 62.9681 504.029 65.7243 504.715 63.3124C505.401 60.9006 508.146 63.6573 509.861 60.5562C511.577 57.4552 509.861 60.5562 506.774 58.8336C503.686 57.1104 508.832 57.7996 508.489 55.7326C508.146 53.6651 503.342 55.7326 500.941 53.6651C498.539 51.5976 504.715 53.6651 508.146 52.9759C511.577 52.2867 512.606 54.0094 515.008 50.564C517.409 47.1182 515.008 48.4966 510.205 47.1182C505.401 45.7399 508.489 45.3956 505.744 42.9837C502.999 40.5718 508.489 39.8827 510.89 38.5044C513.292 37.126 497.853 35.0586 492.707 35.0586C489.172 35.6333 485.561 35.5164 482.071 34.7142C476.924 33.3359 478.297 38.1595 474.18 37.8152C470.062 37.4709 466.289 37.126 466.289 40.227C466.91 43.3604 466.551 46.6102 465.259 49.5301C463.201 54.0094 467.318 54.3542 464.573 58.4887C461.828 62.6233 463.544 61.2454 462.172 66.0691C460.799 70.8928 459.769 68.8258 453.937 72.2711C448.104 75.7165 455.309 82.9525 451.536 87.0875C447.762 91.222 449.477 94.6673 445.017 96.7348C440.556 98.8023 441.243 99.8358 441.586 103.282C441.922 106.661 438.946 106.728 431.387 107.379C431.501 111.526 430.395 115.614 428.205 119.132C424.088 124.644 426.146 123.955 427.519 127.401C430.76 128.925 434.245 129.859 437.811 130.157C443.301 130.502 444.674 128.09 447.762 128.09C450.849 128.09 450.506 132.225 452.565 136.015C454.623 139.805 450.849 139.116 450.506 142.906C450.163 146.696 452.565 143.25 453.594 148.763C454.623 154.277 458.74 155.999 459.769 159.789C460.342 162.645 461.511 165.346 463.201 167.714C465.259 170.815 465.945 171.16 471.092 175.295C473.176 176.969 473.789 177.855 473.927 178.84L474.18 178.74L473.927 178.84C473.697 181.463 473.898 184.107 474.523 186.665C475.397 189.371 476.085 192.134 476.581 194.935C477.268 198.725 475.895 199.069 478.983 201.481C480.747 202.32 482.734 202.566 484.648 202.185C484.392 201.882 484.107 201.54 483.786 201.137C481.041 197.691 481.385 199.414 483.1 197.002C484.816 194.59 483.443 195.279 483.786 191.489C484.129 187.699 479.669 191.834 478.983 188.043C478.297 184.253 480.698 187.01 485.159 183.564C489.618 180.118 487.903 180.463 490.305 178.051C492.707 175.639 489.618 175.984 492.363 174.261C495.108 172.538 492.363 174.261 495.108 176.328C497.853 178.396 495.108 176.328 497.167 173.227C499.226 170.126 499.911 168.748 502.314 168.059C504.861 167.408 507.292 166.361 509.518 164.958C513.979 162.546 511.234 162.201 509.175 157.722C507.117 153.243 508.146 153.932 505.744 151.176C503.342 148.419 508.832 145.662 506.43 142.906C504.029 140.149 506.43 139.116 507.802 134.637C509.175 130.157 511.577 128.779 513.979 122.922C516.38 117.064 517.409 124.3 518.095 121.888C518.782 119.476 520.154 121.543 523.928 122.922C527.702 124.3 527.359 121.543 533.192 124.3C539.024 127.056 536.279 123.61 540.74 121.199C545.2 118.787 539.711 119.476 536.966 117.064Z"/><path d="M475.895 238.004C475.441 239.446 475.462 240.997 475.957 242.425C476.452 243.853 477.393 245.083 478.64 245.93C481.728 248.686 481.041 243.517 479.669 239.383C478.297 235.248 481.041 236.282 480.698 232.492C480.356 228.701 481.041 228.012 481.041 228.012C478.64 224.567 476.581 234.903 475.895 238.004Z"/><path d="M679.006 189.422C678.631 188.68 678.028 188.079 677.287 187.707C676.546 187.335 675.706 187.212 674.89 187.355C671.802 187.699 672.487 184.598 668.714 185.976C664.939 187.355 660.823 184.598 662.538 188.388C664.254 192.178 659.107 193.901 663.91 194.246C667.915 194.486 671.934 194.37 675.919 193.901C680.036 193.557 682.094 194.935 683.124 192.867C684.153 190.8 683.124 189.422 679.006 189.422Z"/><path d="M636.838 265.601L636.806 265.569C635.09 263.846 636.806 263.157 636.806 260.745C636.806 258.334 633.032 256.266 633.032 256.266C630.287 256.611 629.258 262.468 627.885 266.603C626.866 270.065 626.517 273.691 626.857 277.284C626.857 281.419 625.484 281.419 622.739 285.209C619.994 288.999 624.454 288.31 628.229 288.655C632.003 288.999 629.258 286.243 630.973 282.453C632.689 278.663 634.061 280.73 636.463 276.94C638.864 273.149 632.689 276.595 630.63 273.15C628.572 269.704 630.287 269.704 632.689 266.258C632.894 265.912 633.172 265.615 633.504 265.389C633.836 265.162 634.213 265.013 634.61 264.95C635.006 264.887 635.411 264.913 635.796 265.025C636.182 265.138 636.537 265.334 636.838 265.601Z"/><path d="M636.838 265.601C637.459 266.218 637.348 265.966 636.838 265.601V265.601Z"/><path d="M624.797 268.326C625.484 264.536 627.542 261.09 624.112 262.124C622.988 262.214 621.912 262.617 621.003 263.286C620.095 263.956 619.389 264.865 618.965 265.914C617.936 269.359 620.338 266.603 618.965 272.46C617.593 278.318 614.162 280.73 616.906 280.73C618.257 280.888 619.619 280.559 620.75 279.802C621.882 279.044 622.708 277.908 623.082 276.595C624.015 273.927 624.591 271.146 624.797 268.326Z"/><path d="M638.178 248.686C635.777 247.653 634.405 242.14 632.003 243.518C631.402 244.288 631.022 245.208 630.901 246.179C630.78 247.15 630.924 248.136 631.317 249.031C632.689 252.132 633.032 254.888 635.09 253.51C637.149 252.132 640.58 249.72 638.178 248.686Z"/><path d="M609.015 273.149C603.526 273.839 606.271 276.25 606.614 281.075C606.957 285.898 606.614 281.075 608.329 284.52C610.044 287.966 611.074 283.486 609.358 280.385C607.643 277.284 610.045 278.318 611.074 276.25C612.103 274.183 609.015 273.149 609.015 273.149Z"/><path d="M665.969 126.367C666.312 122.922 669.742 123.956 672.831 121.544C674.439 120.536 675.799 119.175 676.809 117.564C677.82 115.953 678.453 114.133 678.663 112.24C678.663 108.45 681.408 109.828 682.437 107.072C683.467 104.316 681.751 103.971 680.722 102.248C679.693 100.525 677.291 100.181 675.575 103.971C675.03 105.528 674.003 106.869 672.645 107.799C671.287 108.728 669.669 109.198 668.027 109.139C664.254 109.484 668.027 112.585 665.282 115.342C662.538 118.098 661.166 120.855 658.421 120.855C655.685 120.987 653.054 121.948 650.873 123.611C647.099 125.678 645.726 123.266 639.551 122.233C634.869 121.449 634.916 121.262 633.72 122.267C634.78 123.423 636.063 124.349 637.492 124.989C642.981 127.401 642.981 128.09 643.667 131.88C643.876 134.053 643.717 136.246 643.196 138.366L643.325 138.427C648.128 140.494 649.157 137.393 654.99 134.981C660.823 132.569 660.823 134.637 665.969 132.914C671.115 131.191 665.626 129.813 665.969 126.367Z"/><path d="M643.668 131.88C642.981 128.09 642.981 127.401 637.492 124.989C636.063 124.348 634.78 123.422 633.72 122.267C633.338 122.588 632.833 123.027 632.003 123.61C628.572 126.023 622.739 122.922 619.308 119.821C618.831 119.24 618.198 118.81 617.484 118.579C616.771 118.349 616.006 118.328 615.281 118.52C615.069 119.603 614.814 120.834 614.505 122.233C613.132 128.435 609.702 123.61 605.241 123.955C601.02 124.535 596.732 124.418 592.547 123.61C588.43 122.577 589.802 127.401 591.518 130.157C592.278 131.426 592.886 132.781 593.329 134.194C594.364 134.605 595.365 135.098 596.321 135.67C600.438 138.082 598.723 133.258 602.154 132.569C605.584 131.88 605.584 135.326 610.731 133.258C615.877 131.191 615.877 135.326 622.396 132.914C628.915 130.502 628.915 133.603 633.032 132.914C637.111 132.231 638.5 136.279 643.196 138.365C643.717 136.246 643.876 134.053 643.668 131.88Z"/><path d="M592.547 123.61C596.732 124.418 601.02 124.535 605.241 123.955C609.702 123.61 613.132 128.435 614.505 122.233C614.814 120.834 615.069 119.603 615.281 118.52C613.905 118.936 612.434 118.909 611.074 118.442C606.957 117.064 607.643 118.787 602.154 118.787C596.664 118.787 598.379 116.375 598.379 112.929C598.379 109.484 596.664 112.585 593.919 114.307C591.175 116.03 589.802 111.551 585.342 112.929C580.882 114.307 584.656 114.997 581.225 117.753C577.794 120.51 580.882 120.51 576.764 124.644C572.648 128.779 571.962 122.233 569.56 125.334C567.071 128.383 565.205 131.896 564.07 135.67C563.799 139.052 562.34 142.228 559.953 144.629C556.522 148.074 556.522 148.074 559.267 149.797C562.012 151.52 558.924 156.344 560.982 160.823C561.772 162.072 562.162 163.534 562.101 165.012C562.039 166.49 561.529 167.914 560.639 169.093C559.61 170.471 559.953 166.336 558.238 162.891C556.522 159.445 556.866 163.924 554.464 168.748C553.29 171.104 552.855 171.815 552.516 172.408C553.356 174.296 554.253 176.444 555.15 178.396C557.208 182.875 556.866 182.186 558.238 185.632C559.61 189.077 561.326 189.422 562.012 194.245C562.152 195.15 562.234 196.062 562.258 196.977C562.808 197.387 563.46 197.639 564.142 197.704C564.825 197.769 565.512 197.646 566.129 197.346C569.217 195.624 570.245 191.489 574.02 192.867C576.944 194.063 579.534 195.955 581.568 198.38C584.656 201.137 583.97 204.238 590.488 204.582C597.007 204.927 598.723 204.238 601.467 207.339C604.212 210.44 604.899 210.784 605.241 213.886C605.252 216.096 604.946 218.297 604.333 220.421C604.721 220.428 605.129 220.432 605.584 220.432C607.289 220.191 609.024 220.311 610.679 220.786C612.334 221.261 613.871 222.079 615.191 223.189C615.852 223.622 616.549 223.997 617.274 224.309C617.35 224.039 617.457 223.778 617.593 223.533C619.651 219.743 617.936 220.432 616.564 218.709C615.191 216.987 614.162 216.297 611.074 212.507C607.986 208.717 610.045 210.095 606.957 204.927C603.869 199.758 601.124 202.515 599.409 201.137C597.114 198.396 595.156 195.388 593.576 192.178C591.518 188.733 595.635 189.766 598.036 190.111C600.438 190.455 601.467 192.523 604.899 190.455C608.329 188.388 607.3 188.043 611.417 185.976C615.534 183.909 617.249 184.598 618.622 181.497C619.994 178.396 621.71 178.396 625.484 173.916C629.258 169.437 627.199 170.471 630.287 168.059C633.375 165.647 633.718 166.336 635.09 169.093C636.463 171.849 642.296 172.194 640.923 170.126C639.551 168.059 642.981 167.714 642.981 164.613C642.981 161.512 639.894 161.168 634.747 159.1C629.601 157.033 630.973 160.134 628.572 162.201C626.17 164.269 628.572 163.924 627.542 164.958C626.513 165.992 624.455 165.992 619.994 164.613C615.534 163.235 615.877 164.613 614.162 167.37C612.447 170.126 609.702 170.126 605.241 168.748C600.781 167.37 601.124 167.025 598.723 169.437C597.068 171.101 595.782 173.097 594.948 175.295C594.174 176.684 593.09 177.874 591.78 178.771C590.47 179.667 588.971 180.247 587.4 180.463C584.313 180.463 582.254 182.186 580.196 178.74C578.366 176.492 576.97 173.922 576.078 171.16C575.049 167.37 572.305 169.093 569.217 167.025C566.129 164.958 565.099 164.269 565.442 158.756C565.786 153.243 564.414 154.277 565.099 149.452C565.744 145.218 567.139 141.134 569.217 137.393C571.618 132.225 570.932 134.637 573.334 132.914C575.735 131.191 574.706 130.157 577.108 130.502C579.509 130.846 582.597 133.258 586.371 133.258C588.73 133.089 591.098 133.407 593.329 134.194C592.886 132.781 592.278 131.426 591.518 130.157C589.802 127.401 588.43 122.577 592.547 123.61Z"/><path d="M605.584 220.432C605.129 220.432 604.721 220.428 604.333 220.42C603.778 222.689 603.183 224.567 603.183 224.567C603.183 224.567 603.778 222.689 604.333 220.42C601.525 220.482 598.755 219.772 596.321 218.365C592.547 216.642 593.233 214.23 589.802 216.986C593.576 221.81 590.831 223.188 588.43 227.323C586.028 231.458 585.685 231.458 587.057 234.903C588.649 238.079 591.008 240.804 593.919 242.829C597.007 245.585 597.693 244.896 599.752 246.963C601.811 249.031 601.467 250.064 601.124 254.543C600.987 257.231 600.526 259.892 599.752 262.468C599.066 265.225 602.496 266.258 605.241 265.914C607.986 265.569 610.045 269.359 612.789 267.981C615.534 266.603 611.074 264.191 614.848 260.056C618.622 255.922 622.053 255.922 623.769 253.51C625.484 251.098 628.229 253.854 628.915 251.098C629.601 248.341 625.141 247.652 622.739 245.24C620.338 242.829 621.367 241.45 616.564 238.694C611.76 235.937 613.819 234.559 614.505 231.458C615.191 228.357 617.249 229.39 619.651 227.323C621.865 225.417 616.516 227.014 617.274 224.309C616.549 223.997 615.852 223.622 615.191 223.188C613.871 222.079 612.334 221.261 610.679 220.786C609.024 220.311 607.289 220.19 605.584 220.432Z"/><path d="M552.405 220.432C552.405 216.642 550.346 213.197 554.121 214.23C557.894 215.264 562.697 218.02 562.354 214.575C562.012 211.129 563.041 206.305 562.354 202.17C562.084 200.452 562.051 198.704 562.258 196.977C561.253 196.33 560.359 195.524 559.61 194.59C560.359 195.524 561.253 196.33 562.258 196.977C562.234 196.062 562.152 195.15 562.012 194.246C561.326 189.422 559.61 189.077 558.237 185.632C556.865 182.186 557.208 182.875 555.15 178.396C554.253 176.444 553.356 174.297 552.516 172.409C551.946 173.449 551.451 174.529 551.033 175.639C549.928 179.322 549.463 183.169 549.66 187.01C549.851 189.771 549.736 192.544 549.317 195.279C548.631 200.792 546.915 200.103 544.857 205.616C542.798 211.129 540.396 210.785 536.279 213.541C532.162 216.298 538.681 217.676 537.651 219.399C536.623 221.121 538.681 227.323 539.024 231.113C539.368 234.904 541.769 233.181 544.514 234.214C547.259 235.248 547.944 232.492 551.719 231.803C551.376 227.668 552.405 224.222 552.405 220.432Z"/><path d="M596.321 218.365C598.755 219.772 601.525 220.483 604.333 220.421C604.946 218.297 605.252 216.097 605.241 213.886C604.898 210.785 604.212 210.44 601.467 207.339C598.723 204.238 597.007 204.927 590.488 204.582C583.97 204.238 584.656 201.137 581.568 198.38C579.534 195.955 576.944 194.063 574.02 192.867C570.245 191.489 569.217 195.624 566.129 197.347C565.512 197.646 564.824 197.77 564.142 197.704C563.46 197.639 562.808 197.388 562.258 196.977C562.051 198.704 562.084 200.452 562.354 202.17C563.041 206.305 562.012 211.129 562.354 214.575C562.697 218.02 557.894 215.264 554.121 214.23C550.346 213.197 552.405 216.642 552.405 220.432C552.405 224.222 551.376 227.668 551.719 231.803C555.493 231.113 551.719 236.282 553.091 240.761C554.463 245.241 555.836 249.375 556.865 253.51C557.894 257.645 555.493 259.367 553.777 263.502C552.062 267.637 554.121 267.981 553.777 271.771C553.383 274.567 552.451 277.259 551.033 279.696C549.66 283.142 551.719 283.831 554.463 286.243C556.388 287.813 558.604 288.984 560.982 289.689C561.217 288.205 561.217 286.693 560.982 285.209C560.639 282.108 564.414 285.209 569.217 284.52C574.02 283.831 573.677 286.588 574.706 284.52C575.735 282.453 570.589 279.697 569.217 275.906C567.844 272.116 570.245 272.116 571.962 267.292C573.677 262.468 572.647 262.468 572.305 259.023C572.272 256.361 571.563 253.752 570.245 251.443C568.187 246.619 571.275 247.997 572.99 242.829C574.39 239.443 574.632 235.686 573.677 232.147C573.418 228.2 572.115 224.394 569.903 221.121C566.815 215.953 571.275 218.02 575.049 214.919C577.107 213.458 578.954 211.719 580.538 209.751C581.911 208.028 586.028 212.163 589.802 216.987C593.233 214.23 592.547 216.642 596.321 218.365Z"/><path d="M1040.97 303.816C1040.63 299.681 1040.97 211.129 1040.97 211.129C1040.97 211.129 1036.51 214.23 1034.79 212.163C1033.08 210.096 1037.88 207.683 1034.11 207.683C1030.33 207.683 1028.28 210.096 1023.13 206.65C1017.98 203.205 1024.16 210.096 1012.15 204.238C1000.14 198.38 998.426 195.969 995.339 195.624C992.251 195.279 991.564 193.212 986.418 190.111C982.594 187.083 978.137 184.962 973.38 183.909C968.234 183.22 966.862 182.875 964.803 184.254C962.745 185.632 962.058 188.733 957.598 190.456C953.138 192.178 952.795 193.212 954.167 194.59C955.54 195.969 957.598 196.658 953.138 198.725C948.678 200.792 950.05 203.549 944.561 203.549C939.071 203.549 937.013 197.691 935.641 202.515C934.762 206.115 932.991 209.434 930.494 212.163C927.406 216.298 926.034 214.919 922.26 220.777C918.486 226.634 921.573 229.735 914.025 229.735C906.477 229.735 903.389 230.08 901.674 225.945C899.959 221.811 902.017 225.945 899.959 221.811C899.597 221.113 899.32 220.374 899.131 219.61C898.657 220.426 898.246 221.277 897.9 222.155C896.528 225.945 896.185 229.047 898.929 236.971C901.674 244.896 900.645 240.417 900.645 243.518C900.645 244.819 899.372 245.753 897.899 246.403C897.151 250.086 892.035 253.842 906.82 256.266C923.632 259.023 925.004 259.367 927.749 261.091C931.465 264.428 935.943 266.795 940.787 267.981C948.84 268.399 956.543 271.421 962.745 276.596C967.86 280.113 972.28 284.552 975.783 289.689C980.243 295.202 984.016 295.891 983.674 301.404C983.331 306.917 982.988 304.16 985.732 312.43C988.477 320.699 984.703 319.665 988.477 323.8C992.251 327.935 987.104 324.834 991.908 331.036C996.711 337.238 999.456 334.137 997.74 340.339C996.025 346.542 986.761 347.575 993.966 350.331C995.964 351.375 998.162 351.976 1000.41 352.095C1002.66 352.214 1004.91 351.848 1007 351.02C1010.09 349.987 1012.15 349.298 1014.21 352.054C1016.27 354.811 1017.98 352.399 1021.41 356.878C1024.84 361.357 1024.5 357.567 1029.65 364.803C1034.79 372.039 1037.88 375.485 1039.94 376.173V319.665C1039.94 319.665 1038.91 319.665 1037.2 316.564C1035.48 313.463 1037.2 311.396 1037.88 308.64C1038.57 305.883 1041.31 307.951 1040.97 303.816Z"/><path d="M900.645 243.517C900.645 240.416 901.674 244.895 898.929 236.971C896.185 229.046 896.528 225.945 897.9 222.155C898.246 221.276 898.657 220.426 899.131 219.61C899.123 217.077 898.708 214.562 897.9 212.162C895.842 206.994 897.557 201.826 895.499 204.582C893.633 206.788 892.655 209.614 892.754 212.507C892.41 216.642 895.155 229.39 891.724 218.365C888.294 207.339 884.519 202.17 884.862 199.758C885.277 196.844 883.147 187.354 885.206 183.564C887.264 179.774 887.607 180.118 885.549 175.639C883.491 171.16 888.98 164.269 883.147 165.302C878.941 166.612 874.394 166.242 870.453 164.269C866.679 162.201 861.189 156.688 859.131 156.344C857.072 155.999 847.465 151.865 843.005 154.966C838.545 158.067 838.202 161.856 833.742 163.58C829.282 165.302 826.88 164.269 823.792 167.714C820.704 171.16 822.763 172.193 817.959 176.673C813.156 181.152 812.127 182.875 816.244 183.22C820.361 183.564 822.763 180.463 827.909 182.875C833.056 185.287 835.114 181.841 836.83 188.733C837.394 192.745 839.193 196.48 841.976 199.414C845.064 203.548 845.75 203.893 849.867 202.859C853.985 201.826 853.985 199.758 859.131 201.826C864.277 203.893 871.139 199.414 874.57 199.414C878.001 199.414 882.461 198.036 879.373 201.481C876.285 204.927 878.344 210.095 875.942 210.784C873.541 211.474 873.541 210.095 870.453 209.061C867.365 208.028 864.62 206.305 862.561 208.028C860.503 209.75 859.473 213.885 856.729 215.264C853.985 216.642 855.357 218.709 850.553 216.642C845.75 214.575 845.75 211.474 841.976 212.851C838.202 214.23 835.457 216.297 837.859 217.331C840.395 218.172 842.815 219.33 845.064 220.777C848.838 223.188 851.24 221.81 852.268 225.6C853.298 229.39 855.013 224.911 856.729 229.046C858.444 233.181 861.876 234.214 857.758 235.937C853.641 237.66 852.955 236.971 853.985 240.761C855.013 244.551 853.985 247.308 858.444 247.997C862.905 248.686 864.62 250.064 866.679 246.963C868.737 243.862 868.051 240.416 870.109 238.694C872.168 236.971 869.08 236.282 869.767 233.181C870.453 230.08 871.482 232.491 872.854 229.39C874.227 226.289 872.511 225.256 874.913 223.188C877.315 221.121 878.344 214.575 879.03 219.054C879.716 223.533 877.315 222.844 876.628 228.012C875.942 233.181 871.825 234.903 876.628 235.937C881.431 236.971 881.089 236.971 882.461 239.383C883.834 241.794 879.716 239.383 883.834 241.795C887.95 244.206 889.666 242.139 892.067 243.517C894.469 244.895 896.871 240.761 897.9 244.895C898.013 245.391 898.013 245.907 897.899 246.402C899.372 245.753 900.645 244.819 900.645 243.517Z"/><path d="M604.212 356.878C601.811 356.189 600.095 359.635 597.007 359.979C593.919 360.323 597.007 357.567 592.204 361.357C590.817 362.915 588.992 364.012 586.97 364.505C584.948 364.997 582.825 364.861 580.882 364.114C575.392 363.08 575.735 366.526 570.589 364.803C565.442 363.08 565.442 360.323 560.982 359.635C556.522 358.945 555.15 358.946 551.719 358.601C549.094 358.572 546.476 358.306 543.899 357.808C543.627 358.895 543.603 360.03 543.828 361.128C544.742 364.343 547.945 364.343 544.742 367.1C541.54 369.856 539.253 364.803 537.423 367.559C536.67 368.751 536.007 369.998 535.44 371.29C538.502 370.436 541.686 370.107 544.857 370.316C549.317 371.35 547.602 368.249 552.405 371.005C555.351 372.923 558.861 373.774 562.354 373.417C565.442 373.417 564.07 369.282 568.873 370.316C573.677 371.35 576.422 375.484 580.196 372.039C581.399 370.725 582.902 369.725 584.575 369.125C586.249 368.524 588.043 368.342 589.802 368.593C593.919 368.593 593.919 366.181 597.35 366.526C600.781 366.87 599.066 363.08 600.095 361.702C601.124 360.323 606.614 357.567 604.212 356.878Z"/><path d="M544.742 367.099C547.945 364.343 544.742 364.343 543.828 361.127C543.603 360.029 543.627 358.894 543.899 357.807C543.641 357.745 543.388 357.664 543.141 357.567C541.083 356.533 540.054 351.365 536.966 353.432C533.878 355.499 533.192 353.432 530.104 354.121C527.016 354.81 523.928 358.6 522.556 355.499C521.183 352.398 521.527 347.23 518.096 348.263C514.665 349.297 511.577 353.777 513.292 356.188C515.008 358.6 517.066 356.878 519.811 359.289C522.556 361.701 527.359 363.769 524.958 364.114C522.38 364.369 519.844 364.948 517.41 365.836C513.292 367.215 513.635 364.802 512.949 363.08C512.263 361.357 513.635 356.188 507.803 360.668C506.908 361.044 505.93 361.179 504.967 361.058C504.004 360.937 503.089 360.565 502.314 359.979C500.255 357.911 499.912 354.81 497.853 356.533C496.356 358.152 494.98 359.879 493.736 361.701C492.363 363.08 490.648 362.046 491.334 366.181C492.021 370.316 487.217 373.761 492.363 374.45C497.51 375.139 506.431 375.484 509.518 373.072C512.606 370.66 511.234 370.316 516.38 370.66C521.527 371.004 520.84 368.248 524.958 367.903C529.075 367.559 527.359 369.626 531.819 371.004C532.994 371.345 534.226 371.442 535.44 371.29C536.007 369.998 536.67 368.751 537.423 367.559C539.253 364.802 541.54 369.856 544.742 367.099Z"/></g><defs><clipPath id="clip0_712_2972"><rect width="1041" height="411"/></clipPath></defs></svg>