<?xml version="1.0" encoding="utf-8"?>
<!-- Generator: Adobe Illustrator 26.2.1, SVG Export Plug-In . SVG Version: 6.00 Build 0)  -->
<svg version="1.1" id="Layer_1" xmlns="http://www.w3.org/2000/svg" xmlns:xlink="http://www.w3.org/1999/xlink" x="0px" y="0px"
	 viewBox="0 0 196.86 125" style="enable-background:new 0 0 196.86 125;" xml:space="preserve">
<style type="text/css">
	.st0{fill:url(#SVGID_1_);}
	.st1{fill:#E92535;}
	.st2{fill:#E4F7FE;}
	.st3{fill:#F0F9FC;}
	.st4{fill:#212B33;}
	.st5{fill:#B21427;}
	.st6{display:none;fill:#FFFFFF;}
	.st7{opacity:0.44;clip-path:url(#SVGID_00000088813453330462328580000013872337837490419903_);}
	.st8{fill:#9E3F4B;}
	.st9{clip-path:url(#SVGID_00000088813453330462328580000013872337837490419903_);fill:#EF3E41;}
	.st10{clip-path:url(#SVGID_00000088813453330462328580000013872337837490419903_);}
	.st11{fill:#FFFFFF;}
	.st12{fill:url(#SVGID_00000028301180147987728930000002790750918023456169_);}
	.st13{fill:url(#SVGID_00000099657587571942453170000005065763230706314169_);}
	.st14{opacity:0.44;clip-path:url(#SVGID_00000173852411520356523600000005702413316174665620_);fill:#9E3F4B;}
	.st15{clip-path:url(#SVGID_00000173852411520356523600000005702413316174665620_);}
	.st16{fill:url(#SVGID_00000083778674315091425160000008003412534450072199_);}
	.st17{fill:#EF3E41;}
	.st18{fill:url(#SVGID_00000084500023564164015070000012014633316020951208_);}
	.st19{fill:url(#SVGID_00000029020587964822839140000003392851808918334103_);}
	.st20{fill:url(#SVGID_00000067212401207432962500000013850543787547491217_);}
	.st21{fill:url(#SVGID_00000031209185782995517970000010271552365899857593_);}
	.st22{fill:url(#SVGID_00000177452498279849127320000003719661015448216962_);}
	.st23{fill:url(#SVGID_00000042720805704314504670000004258561217004675512_);}
	.st24{fill:url(#SVGID_00000039845973657916091940000014640008731235659663_);}
	.st25{fill:url(#SVGID_00000159450472095369526520000013211554459701168053_);}
	.st26{fill:url(#SVGID_00000144329534573459448980000011647506189203808925_);}
	.st27{fill:url(#SVGID_00000177457008316813527500000007816589408649318313_);}
	.st28{fill:url(#SVGID_00000115491119102359224110000009806606828928317861_);}
	.st29{fill:url(#SVGID_00000036247958030728360830000006603856810827543480_);}
	.st30{fill:url(#SVGID_00000054267828163728053080000005556672915968372357_);}
	.st31{fill:url(#SVGID_00000167366690044928454510000001195108798211378845_);}
	.st32{fill:url(#SVGID_00000093163381790649515570000007753428179658409403_);}
	.st33{fill:url(#SVGID_00000170967177818979117610000014822218238829584042_);}
	.st34{fill:url(#SVGID_00000119839396342382915390000017432445258819207827_);}
	.st35{fill:url(#SVGID_00000062156196013044108360000007173841272235094692_);}
	.st36{fill:url(#SVGID_00000145037205962132258350000001177748806271902397_);}
	.st37{fill:url(#SVGID_00000083796871241851934230000016563761677657004674_);}
	.st38{fill:url(#SVGID_00000018941417635108084790000000575118005235486863_);}
	.st39{fill:url(#SVGID_00000180329551410952613860000018303234945289064345_);}
	.st40{fill:url(#SVGID_00000139269838362455497880000015294946463617693578_);}
	.st41{fill:url(#SVGID_00000088832735332131776020000008515384346244819104_);}
	.st42{fill:url(#SVGID_00000160904954989780183740000017518785416545898395_);}
	.st43{fill:url(#SVGID_00000147187215262285685130000007412264421859946938_);}
	.st44{fill:url(#SVGID_00000029745514016336812250000012371584688077525145_);}
	.st45{fill:url(#SVGID_00000034791509091213975110000016215752219073751441_);}
	.st46{fill:url(#SVGID_00000179610425390072202630000008635742142083101852_);}
	.st47{fill:url(#SVGID_00000029036752180494885830000017155110882272824764_);}
	.st48{fill:url(#SVGID_00000144312257227049385610000013845976427233629852_);}
	.st49{fill:url(#SVGID_00000027593822231597373550000006636304566801258680_);}
	.st50{fill:url(#SVGID_00000140734670873246034700000011001477675168543916_);}
	.st51{fill:url(#SVGID_00000016756807519831748510000013629462556275332996_);}
	.st52{fill:url(#SVGID_00000130620448682488383500000013107608545745815201_);}
	.st53{fill:url(#SVGID_00000139270150190157346830000008025649864075637128_);}
	.st54{fill:url(#SVGID_00000176755513328332600020000017185139939975693754_);}
	.st55{fill:url(#SVGID_00000023280246963405239820000004740453292068908932_);}
	.st56{fill:url(#SVGID_00000056415799823711841460000003855568588165697697_);}
	.st57{fill:url(#SVGID_00000171709092913370789660000000051790922304305597_);}
	.st58{fill:url(#SVGID_00000064335718017702335410000001533476483488599187_);}
	.st59{fill:url(#SVGID_00000132082169337398396820000000783490226893995911_);}
	.st60{fill:url(#SVGID_00000174575049602719722160000000433752566584891551_);}
	.st61{fill:url(#SVGID_00000029037423825619118810000017058716590038243253_);}
	.st62{fill:url(#SVGID_00000152960034502892215190000001823731628711213472_);}
	.st63{fill:url(#SVGID_00000149360774269206660900000006912194174721539459_);}
	.st64{fill:url(#SVGID_00000178167596105562865100000015099298256947380136_);}
	.st65{fill:url(#SVGID_00000165215487974956871600000008002105093862548910_);}
	.st66{fill:url(#SVGID_00000083782350050639481170000008460299231861103278_);}
	.st67{fill:url(#SVGID_00000067212929938692638990000001021178436161204611_);}
	.st68{fill:url(#SVGID_00000080172065099896959980000003237443967690796176_);}
	.st69{fill:url(#SVGID_00000097502586432304212650000011512014899930502528_);}
	.st70{fill:url(#SVGID_00000129887626593180847930000001648942103595572356_);}
	.st71{fill:url(#SVGID_00000175300403018727637600000003536281830824201878_);}
	.st72{fill:url(#SVGID_00000031911571055359014010000011761773843163416980_);}
	.st73{fill:url(#SVGID_00000060011032169605071380000010061676448927362694_);}
	.st74{fill:url(#SVGID_00000023985905282752598050000016499527437697604516_);}
	.st75{fill:url(#SVGID_00000126285480828733682200000002340276791706567359_);}
	.st76{fill:url(#SVGID_00000012471518167129602350000006904884369819046809_);}
	.st77{fill:url(#SVGID_00000004544607158132151860000014387515552868878482_);}
	.st78{fill:url(#SVGID_00000057128618832827498890000007460975567495124663_);}
	.st79{fill:url(#SVGID_00000052106610311815492930000003320973353768648340_);}
	.st80{fill:url(#SVGID_00000126283288320936779860000011981694788643686032_);}
	.st81{fill:url(#SVGID_00000082347870900181601670000002244034019604050599_);}
	.st82{fill:url(#SVGID_00000120517311324997405770000008738061207634228669_);}
	.st83{fill:url(#SVGID_00000035493685588839774390000009556212070327216262_);}
	.st84{fill:url(#SVGID_00000005960704163232403410000015616462591987647671_);}
	.st85{fill:url(#SVGID_00000007423593201591270570000012260068542139037569_);}
	.st86{fill:url(#SVGID_00000069381267599323397420000015325964539357087142_);}
	.st87{fill:url(#SVGID_00000104694610114342076920000011700045979024597931_);}
	.st88{fill:url(#SVGID_00000083063070904755064710000014541081402424561808_);}
	.st89{fill:url(#SVGID_00000003794045037001295380000013658099564369862290_);}
	.st90{fill:url(#SVGID_00000150819499082722898930000007458735806156751529_);}
	.st91{fill:url(#SVGID_00000084487920303514315600000004096659527664105356_);}
	.st92{fill:url(#SVGID_00000119828186385487027840000006531685106049688497_);}
	.st93{fill:url(#SVGID_00000165219600605534696810000014722066274073833101_);}
	.st94{fill:url(#SVGID_00000085956902239112299310000005481870378074132906_);}
	.st95{fill:url(#SVGID_00000126299943765775693460000014705915211131575990_);}
	.st96{fill:url(#SVGID_00000145764945215679821490000006139217155709170100_);}
	.st97{fill:url(#SVGID_00000062877196482915815310000009352762925743977350_);}
	.st98{fill:url(#SVGID_00000030477734692319621570000002885553158145224576_);}
	.st99{fill:url(#SVGID_00000167393975020220791470000001653924869937284012_);}
	.st100{fill:url(#SVGID_00000155828696227163557530000008010824040583940273_);}
	.st101{fill:url(#SVGID_00000158718230497155835900000005678812271171448216_);}
	.st102{fill:url(#SVGID_00000026153396550232150330000006954486915650850221_);}
	.st103{fill:url(#SVGID_00000071529787762829210280000005789790483769200806_);}
	.st104{fill:url(#SVGID_00000047026319969364962840000001139523564026428805_);}
	.st105{fill:url(#SVGID_00000041285506385689205930000017899525884223445690_);}
	.st106{fill:url(#SVGID_00000103236646349757157530000012613272195726445988_);}
	.st107{fill:url(#SVGID_00000116199120713098703550000010539238246635237564_);}
	.st108{fill:url(#SVGID_00000086649594396426526260000010082076236943616901_);}
	.st109{fill:url(#SVGID_00000041287388823746067600000008396006018482005687_);}
	.st110{fill:url(#SVGID_00000000927933231735593640000010326653592846679942_);}
	.st111{fill:url(#SVGID_00000034803888283732864610000009333059922409494951_);}
	.st112{fill:url(#SVGID_00000096025684547193719530000007559124711533002155_);}
	.st113{fill:url(#SVGID_00000090979348329821624670000017394998301735781814_);}
	.st114{fill:url(#SVGID_00000162312324171952288830000013679599453351116977_);}
	.st115{fill:url(#SVGID_00000179611686619204702490000013246488025565318036_);}
	.st116{fill:url(#SVGID_00000182525848995356612310000017383668534517554064_);}
	.st117{fill:url(#SVGID_00000142861869330517060710000007911038800775808913_);}
	.st118{fill:url(#SVGID_00000087404465204567805780000000344559570474935735_);}
	.st119{fill:url(#SVGID_00000168108999176475034330000016596913141303818664_);}
	.st120{fill:url(#SVGID_00000038377781672147581910000003189301900917453453_);}
	.st121{fill:url(#SVGID_00000159434107275017371510000004381904020492407977_);}
	.st122{fill:url(#SVGID_00000086660083803675539630000005428665926327606415_);}
	.st123{fill:url(#SVGID_00000163042451391266668170000011523660320332438949_);}
	.st124{fill:url(#SVGID_00000156575285942977272580000002803097729412640165_);}
	.st125{fill:url(#SVGID_00000052785903452401713850000008505834154868481430_);}
	.st126{fill:url(#SVGID_00000125575018121157123800000004844090516503394705_);}
	.st127{fill:url(#SVGID_00000099649903294906333520000014766466607176889993_);}
	.st128{fill:url(#SVGID_00000052807632622579104500000012416824494887083410_);}
	.st129{fill:url(#SVGID_00000114033819096392572980000014892792541085778309_);}
	.st130{fill:url(#SVGID_00000027586836918806459400000005536271954129663667_);}
	.st131{fill:url(#SVGID_00000049940981391200423310000014940952250010797965_);}
	.st132{fill:url(#SVGID_00000170981989577495082870000008405999182666154155_);}
	.st133{fill:url(#SVGID_00000164509237104763580940000001737670598189462462_);}
	.st134{fill:url(#SVGID_00000088102074027596484250000016862861188724673163_);}
	.st135{fill:url(#SVGID_00000023964252919205193990000013875161921723996560_);}
	.st136{fill:url(#SVGID_00000081625003222067165800000016234900237286586037_);}
	.st137{fill:url(#SVGID_00000037675458986862327100000010258970822954133942_);}
	.st138{fill:url(#SVGID_00000031899133976346098540000012215024051216365957_);}
	.st139{fill:url(#SVGID_00000020394952747934626350000015751775119000767142_);}
	.st140{fill:url(#SVGID_00000154389441882412901120000001025493180467696795_);}
	.st141{fill:url(#SVGID_00000012468833657652036510000012534018856324428198_);}
	.st142{fill:url(#SVGID_00000109731436032437329450000006867998349882716040_);}
	.st143{fill:#297BCC;}
	.st144{fill:#1F5C99;}
	.st145{opacity:0.5;}
	.st146{fill:#5CA1E6;}
	.st147{fill:#BFEDFF;}
	.st148{fill:#FFD480;}
	.st149{fill:#FF8F5C;}
	.st150{fill:#F15B2E;}
	.st151{fill:none;stroke:#F15B2E;stroke-width:0.8589;stroke-miterlimit:10;}
	.st152{fill:url(#SVGID_00000127007206004910053740000013822381564309463447_);}
	.st153{fill:url(#SVGID_00000016796770628996066430000002487839046975209637_);}
	.st154{fill:#FEECEC;}
	.st155{fill:url(#SVGID_00000080185841583782978750000017151434183964940424_);}
	.st156{opacity:0.08;fill:#FFFFFF;}
	.st157{clip-path:url(#SVGID_00000067231569123090170980000012981458554079163010_);}
	.st158{fill:url(#SVGID_00000114069225204036303950000013300598631201232286_);}
	.st159{fill:url(#SVGID_00000176748271090685756290000018310351986778629520_);}
	
		.st160{clip-path:url(#SVGID_00000067231569123090170980000012981458554079163010_);fill:url(#SVGID_00000098205655408803340100000004221834451181216137_);}
	.st161{opacity:0.08;clip-path:url(#SVGID_00000067231569123090170980000012981458554079163010_);fill:#FFFFFF;}
	.st162{opacity:0.44;clip-path:url(#SVGID_00000078763502569582652240000001843743669559405740_);}
	.st163{clip-path:url(#SVGID_00000078763502569582652240000001843743669559405740_);fill:#EF3E41;}
	.st164{clip-path:url(#SVGID_00000078763502569582652240000001843743669559405740_);}
	.st165{fill:url(#SVGID_00000040561878953970714860000003947202731767088298_);}
	.st166{fill:url(#SVGID_00000036957694403750442490000007623587475156169881_);}
	.st167{opacity:0.44;clip-path:url(#SVGID_00000101082979641656849580000015887810858121396149_);fill:#9E3F4B;}
	.st168{clip-path:url(#SVGID_00000101082979641656849580000015887810858121396149_);}
	.st169{fill:url(#SVGID_00000113345932316348726350000005219229592326363054_);}
	.st170{clip-path:url(#SVGID_00000067952118673264164430000000843524490869105558_);}
	.st171{opacity:0.1;}
	.st172{opacity:0.25;}
</style>
<g>
	<defs>
		<rect id="SVGID_00000163063497959382523840000005136942515093885366_" width="196.86" height="125"/>
	</defs>
	<clipPath id="SVGID_00000105427875739705345390000014649243533607881645_">
		<use xlink:href="#SVGID_00000163063497959382523840000005136942515093885366_"  style="overflow:visible;"/>
	</clipPath>
	<g style="clip-path:url(#SVGID_00000105427875739705345390000014649243533607881645_);">
		<g class="st171">
			<polygon class="st4" points="190.94,48.55 157.07,98.06 131.51,80.57 155.1,46.09 144.53,38.86 154.81,23.83 			"/>
		</g>
		<g class="st172">
			<polygon class="st4" points="155.1,46.09 131.51,80.57 111.79,109.4 65.6,77.79 108.91,14.49 144.53,38.86 			"/>
		</g>
		<g>
			<g>
				<path class="st149" d="M101.96,14.45c5.54,1.04,11.24,0.68,16.72-0.52c5-1.1,9.74-4.22,14.55-1.05c1.92,1.26,3.54,2.94,5.5,4.13
					c2.85,1.73,6.71,3.04,9.63,1.43c5.78-3.19,17.44-15.49,30.79-18.77c2.34-0.57-8.08-6.8-8.21-9.2
					c-0.19-3.5-15.29,7.47-16.96,4.38c-1.67-3.09-4.45-5.68-7.84-6.58c-5.38-1.42-11.99,0.75-17.26,1.88
					c-6.75,1.45-14.26,1.24-21.14,1.46c-5.32,0.17-10.73,0.23-15.84,1.73c-5.16,1.52-9.75,4.44-14.04,7.62
					c-4.44,3.29-9.37,6.16-13.03,10.37c-2.29,2.63-4,5.7-5.7,8.75c-2.4,4.32-4.81,8.66-6.61,13.27c-0.55,1.42-2.1,4.19-1.26,5.66
					c0.85,1.49,3.42,1.72,4.82,1.23c1.64-0.57,2.9-1.87,4.07-3.16c2.89-3.19,5.58-6.6,7.95-10.19c2.17-3.28,4.26-6.57,7.63-8.83
					c4.14-2.77,8.63-5.46,13.61-5.73C93.61,12.08,97.75,13.66,101.96,14.45z"/>
				<g>
					<path class="st150" d="M82.67,35.19c5.02-3.6,10.1-7.12,14.55-11.39c1.84-1.76,3.61-3.74,4.35-6.18
						c0.41-1.34,0.44-2.37,0.2-3.22c-4.14-0.8-8.22-2.32-12.44-2.09c-4.98,0.27-9.46,2.96-13.61,5.73
						c-2.02,1.35-3.57,3.07-4.96,4.94c0.2,0.45,0.49,0.89,0.9,1.31c2.65,2.79,5.56,5.47,8.25,8.26
						C80.9,33.26,81.8,34.21,82.67,35.19z"/>
					<path class="st150" d="M110.21,36.89c-2.6,0.67-5.16,1.46-7.59,2.61c-2.43,1.14-4.68,2.61-6.97,4c-1.1,0.67-2.2,1.32-3.32,1.96
						c2.54,2.78,4.9,5.64,7.51,8.37c0.26,0.27,0.56,0.57,0.93,0.6c0.57,0.06,1.01-0.47,1.3-0.96c1.49-2.51,1.97-5.61,1.29-8.45
						c1.08,0.93,2.23,1.78,3.44,2.53c0.68,0.42,1.41,0.83,2.21,0.84c1.27,0.02,2.37-1,2.86-2.17c0.77-1.86,0.31-3.98-0.29-5.89
						C111.22,39.14,110.71,38.01,110.21,36.89z"/>
				</g>
				<g>
					<g>
						
							<rect x="11.9" y="30.43" transform="matrix(0.5647 -0.8253 0.8253 0.5647 -27.3054 72.1286)" class="st11" width="85.64" height="63.03"/>
						<path class="st4" d="M53.15,10.2l50.37,34.46l-47.23,69.03L5.92,79.23L53.15,10.2 M52.62,7.42l-1.13,1.65L4.27,78.1
							l-1.13,1.65l1.65,1.13l50.37,34.46l1.65,1.13l1.13-1.65l47.23-69.03l1.13-1.65l-1.65-1.13L54.27,8.55L52.62,7.42L52.62,7.42z"
							/>
					</g>
					<path class="st1" d="M41.35,33.94c10.71,16.14,35.88,6.88,44.32,30.32l12.84-18.77L54.19,15.16L41.35,33.94z"/>
					<g>
						<path class="st4" d="M35.03,57.34c-0.1-0.76,0.15-1.57,0.74-2.44l0.42-0.62l1.6,1.1l-0.51,0.74c-0.48,0.7-0.42,1.25,0.16,1.65
							c0.29,0.2,0.56,0.26,0.83,0.19c0.26-0.07,0.53-0.29,0.79-0.67c0.31-0.45,0.48-0.92,0.51-1.4c0.03-0.48-0.07-1.16-0.29-2.02
							c-0.28-1.09-0.38-1.99-0.32-2.67c0.06-0.69,0.31-1.34,0.74-1.97c0.58-0.85,1.25-1.36,2-1.54c0.75-0.17,1.54,0.02,2.36,0.58
							c0.81,0.56,1.27,1.21,1.36,1.96c0.1,0.75-0.15,1.56-0.75,2.44l-0.31,0.45l-1.6-1.1l0.38-0.55c0.25-0.37,0.36-0.69,0.34-0.96
							c-0.03-0.27-0.18-0.5-0.46-0.69c-0.57-0.39-1.08-0.24-1.55,0.45c-0.27,0.39-0.41,0.83-0.43,1.31
							c-0.02,0.48,0.08,1.16,0.3,2.02c0.29,1.1,0.39,1.99,0.31,2.68c-0.08,0.69-0.35,1.37-0.81,2.05c-0.6,0.88-1.29,1.41-2.05,1.59
							c-0.76,0.17-1.56-0.02-2.39-0.59C35.6,58.75,35.14,58.09,35.03,57.34z"/>
						<path class="st4" d="M41.93,62.06c-0.11-0.76,0.13-1.58,0.73-2.45l5.63-8.23l1.69,1.16l-5.71,8.35
							c-0.25,0.37-0.36,0.69-0.32,0.95c0.04,0.27,0.19,0.49,0.47,0.68c0.28,0.19,0.55,0.25,0.81,0.19c0.26-0.06,0.52-0.28,0.77-0.65
							l5.71-8.35l1.63,1.12l-5.63,8.23c-0.6,0.87-1.27,1.4-2.02,1.57s-1.54-0.02-2.36-0.58C42.51,63.48,42.05,62.82,41.93,62.06z"/>
						<path class="st4" d="M55.47,56.29l2.51,1.72c0.87,0.6,1.37,1.24,1.49,1.92c0.12,0.68-0.1,1.44-0.68,2.28l-0.45,0.66
							c-0.77,1.12-1.62,1.58-2.56,1.37l-0.02,0.03c0.33,0.4,0.45,0.85,0.35,1.35c-0.09,0.5-0.35,1.06-0.79,1.7l-1.3,1.89
							c-0.21,0.31-0.37,0.56-0.48,0.77c-0.11,0.2-0.19,0.43-0.23,0.67l-1.73-1.18c0.06-0.22,0.13-0.41,0.21-0.58
							c0.08-0.17,0.26-0.45,0.54-0.85l1.35-1.97c0.34-0.49,0.49-0.89,0.47-1.2c-0.03-0.3-0.23-0.59-0.62-0.86l-0.59-0.4l-3.16,4.62
							l-1.69-1.16L55.47,56.29z M54.62,62.49c0.34,0.23,0.65,0.32,0.94,0.26c0.29-0.06,0.57-0.29,0.86-0.7l0.57-0.83
							c0.27-0.39,0.39-0.72,0.37-0.99c-0.02-0.27-0.18-0.51-0.48-0.71l-0.77-0.53L54,62.07L54.62,62.49z"/>
						<path class="st4" d="M63.91,62.06l2.3,1.57l-5.62,11.98l-1.69-1.16l1.16-2.35l-0.02,0.03l-1.93-1.32l-1.75,1.9l-1.57-1.07
							L63.91,62.06z M60.83,70.54l2.89-5.85l-0.03-0.02l-4.39,4.82L60.83,70.54z"/>
						<path class="st4" d="M69.26,67.99l-1.77-1.21l1.05-1.54l5.24,3.58l-1.05,1.54l-1.77-1.21l-6.32,9.24l-1.69-1.16L69.26,67.99z"
							/>
						<path class="st4" d="M25.92,70.66c-0.1-0.76,0.15-1.57,0.74-2.44l0.42-0.62l1.6,1.1l-0.51,0.74c-0.48,0.7-0.42,1.25,0.16,1.65
							c0.29,0.2,0.56,0.26,0.83,0.19c0.26-0.07,0.53-0.29,0.79-0.67c0.31-0.45,0.48-0.92,0.51-1.4c0.03-0.48-0.07-1.16-0.29-2.02
							c-0.28-1.09-0.38-1.98-0.32-2.67c0.06-0.69,0.31-1.34,0.74-1.97c0.58-0.85,1.25-1.36,2-1.54c0.75-0.17,1.54,0.02,2.36,0.58
							c0.81,0.55,1.26,1.21,1.36,1.96s-0.15,1.56-0.75,2.44l-0.31,0.45l-1.6-1.1l0.38-0.55c0.25-0.37,0.36-0.69,0.34-0.96
							c-0.03-0.27-0.18-0.5-0.46-0.69c-0.56-0.39-1.08-0.24-1.55,0.45c-0.27,0.39-0.41,0.83-0.43,1.31
							c-0.02,0.48,0.08,1.15,0.3,2.02c0.29,1.1,0.39,1.99,0.31,2.68c-0.08,0.69-0.35,1.37-0.81,2.04c-0.6,0.88-1.29,1.41-2.04,1.58
							c-0.76,0.17-1.56-0.02-2.39-0.59C26.48,72.07,26.02,71.41,25.92,70.66z"/>
						<path class="st4" d="M32.51,75.17c-0.11-0.76,0.13-1.58,0.73-2.45l5.63-8.22l1.69,1.16L34.84,74
							c-0.25,0.37-0.36,0.69-0.32,0.95c0.04,0.27,0.19,0.49,0.47,0.68c0.28,0.19,0.55,0.25,0.81,0.19c0.26-0.06,0.52-0.28,0.77-0.65
							l5.71-8.35l1.63,1.12l-5.63,8.22c-0.6,0.87-1.27,1.39-2.02,1.57c-0.75,0.17-1.54-0.02-2.36-0.58
							C33.08,76.59,32.62,75.93,32.51,75.17z"/>
						<path class="st4" d="M47,70.07l2.29,1.57l-5.62,11.98l-1.69-1.16l1.16-2.35l-0.02,0.03l-1.92-1.32l-1.75,1.9l-1.57-1.07
							L47,70.07z M43.92,78.54l2.89-5.84l-0.03-0.02l-4.38,4.82L43.92,78.54z"/>
						<path class="st4" d="M52.49,73.82l2.51,1.72c0.87,0.6,1.37,1.24,1.49,1.91c0.12,0.68-0.1,1.44-0.68,2.28l-0.45,0.66
							c-0.77,1.12-1.62,1.57-2.56,1.37l-0.02,0.03c0.33,0.4,0.44,0.85,0.35,1.35c-0.09,0.5-0.35,1.06-0.79,1.7l-1.3,1.89
							c-0.21,0.31-0.37,0.56-0.48,0.77c-0.11,0.2-0.19,0.43-0.23,0.67l-1.72-1.18c0.06-0.22,0.13-0.41,0.21-0.58
							c0.08-0.17,0.26-0.45,0.54-0.85l1.35-1.97c0.34-0.49,0.49-0.89,0.47-1.2s-0.23-0.59-0.62-0.86l-0.59-0.4l-3.16,4.62
							l-1.69-1.16L52.49,73.82z M51.63,80.02c0.34,0.23,0.65,0.32,0.94,0.26c0.29-0.06,0.57-0.29,0.86-0.7L54,78.74
							c0.27-0.39,0.39-0.72,0.37-0.99c-0.02-0.27-0.18-0.51-0.48-0.71l-0.77-0.53l-2.11,3.08L51.63,80.02z"/>
						<path class="st4" d="M60.61,79.38l2.29,1.57l-5.62,11.98l-1.69-1.16l1.16-2.35l-0.02,0.03l-1.92-1.32l-1.75,1.9l-1.57-1.07
							L60.61,79.38z M57.53,87.85L60.42,82l-0.03-0.02l-4.38,4.82L57.53,87.85z"/>
					</g>
				</g>
				<path class="st149" d="M148.72,16.37c-0.77-3.96-7.18,0.2-10.03-1.53c-1.96-1.19-3.53-0.7-5.45-1.96
					c-4.82-3.17-9.55-0.05-14.55,1.05c-5.48,1.21-11.18,1.56-16.72,0.52c-0.06-0.01-0.12-0.03-0.19-0.04
					c0.23,0.84,0.2,1.87-0.21,3.21c-0.74,2.44-2.51,4.41-4.35,6.18c-6.99,6.71-15.53,11.57-22.96,17.78
					c-2.47,2.07-5.05,5.16-3.85,8.15c0.79,1.98,3.07,3.04,5.2,3.02c2.13-0.01,4.15-0.88,6.09-1.78c4.79-2.23,9.45-4.72,13.96-7.47
					c2.29-1.4,4.54-2.86,6.97-4c4.99-2.35,10.51-3.24,15.87-4.54c6.76-1.63,13.46-4.01,19.28-7.87c2.71-1.8,5.11-3.75,7.64-5.78
					c1.49-1.19,2.58-2.4,4.09-3.57C148.98,17.98,148.82,16.93,148.72,16.37z"/>
				<path class="st150" d="M80.17,48.49c-0.58,2.19-3.92,3.64-5.86,4.09c-2.88,0.66-5.27-1.25-4-4.28c0.8-1.92,4.22-5.68,6.62-5.1
					c0.7,0.17,1.29,0.64,1.77,1.18c0.69,0.78,1.2,1.71,1.47,2.71C80.3,47.59,80.29,48.06,80.17,48.49z"/>
			</g>
		</g>
	</g>
</g>
</svg>
