<svg xmlns="http://www.w3.org/2000/svg" width="345" height="162" viewBox="0 0 345 162"><path d="M345 0H0V81H345V0Z" fill="#DB2017"/><path d="M345 81H0V162H345V81Z" fill="#F0F9FC"/><path d="M31.5601 17.28V34.23H38.9201L56.4201 17H77.0401L51.4401 40.18L79.1601 64H58.7401L38.9101 46.14H31.5501V64H18.1001V17.28H31.5601Z" fill="#F0F9FC"/><path d="M125.1 56.08H95.8602L92.0802 64H76.7002L100.1 17.28H121.05L144.19 64H128.87L125.1 56.08ZM111.84 28.14H109.19L100.64 45.86H120.4L111.84 28.14Z" fill="#F0F9FC"/><path d="M146.18 17.28H177.94C188.42 17.35 188.42 17.35 190.4 17.49C197.63 18.05 200.01 20.99 200.01 29.47C200.01 36.12 198.49 38.86 194.04 40.19C199.87 41.24 201.66 43.97 201.66 51.47C201.66 58.12 200 61.56 196.09 62.96C193.57 63.87 192.84 63.94 177.99 64.01H146.17V17.28H146.18ZM177.94 35.7C182.71 35.7 184.64 35.56 185.5 35.14C186.49 34.72 186.96 33.53 186.96 31.85C186.96 29.89 186.36 28.84 184.97 28.49C184.24 28.35 184.04 28.35 177.94 28.28H158.98V35.7H177.94ZM178 52.79C186.02 52.72 186.02 52.72 187.02 52.23C188.15 51.74 188.61 50.69 188.61 48.73C188.61 46.56 188.01 45.58 186.49 45.23C185.83 45.09 185.83 45.09 178 45.02H158.97V52.8H178V52.79Z" fill="#F0F9FC"/><path d="M250.8 56.08H221.56L217.78 64H202.4L225.8 17.28H246.75L269.89 64H254.57L250.8 56.08ZM237.54 28.14H234.89L226.34 45.86H246.1L237.54 28.14Z" fill="#F0F9FC"/><path d="M271.88 17.28H304.43C319.68 17.28 319.68 17.28 322.53 19.1C325.91 21.27 326.91 24.35 326.91 32.48C326.91 39.41 326.25 42.08 323.86 43.97C322.6 45.02 321.34 45.51 318.69 45.93C325.52 46.77 326.71 48.87 326.45 59.66V64H313.19V61.55C313.19 56.3 312.92 54.62 311.86 53.43C310.93 52.31 309.94 52.17 304.37 52.17H285.34V64H271.88V17.28ZM304.3 40.47C311.06 40.33 311.06 40.33 311.99 39.63C313.05 38.93 313.45 37.53 313.45 34.59C313.45 31.44 312.92 30.11 311.53 29.48C310.6 29.06 310.4 29.06 304.3 28.99H285.34V40.48H304.3V40.47Z" fill="#F0F9FC"/><path d="M18.3301 97.29H46.5101C54.2801 97.29 55.3901 97.36 57.6701 97.71C65.4401 99.03 67.6601 102.78 67.6601 114.65C67.6601 124.93 65.9901 128.95 61.0601 130.96C58.2901 132 55.5101 132.28 46.6301 132.28H30.8501V143.6H18.3301V97.29ZM46.5101 120.68C52.3101 120.61 52.5501 120.61 53.6001 119.92C54.7701 119.09 55.1401 117.84 55.1401 114.64C55.1401 111.31 54.5801 109.92 52.9801 109.3C52.1201 108.95 51.9901 108.95 46.5101 108.88H30.8501V120.68H46.5101Z" fill="#212B33"/><path d="M117.29 97.29V108.19H84.12V114.92H115.63V125.13H84.12V132.49H117.54V143.6H71.79V97.29H117.29Z" fill="#212B33"/><path d="M144.17 97.29L156.38 127.35L168.65 97.29H191.22V143.6H178.89L179.2 108.96H177.1L161.62 143.6H151.2L135.72 108.96H133.5L133.81 143.6H121.48V97.29H144.17Z" fill="#212B33"/><path d="M240.9 97.29V131.79H270.13V143.59H227.77V97.29H240.9Z" fill="#212B33"/><path d="M285.79 97.29V118.6C285.91 125.89 285.91 125.96 286.22 127.83C286.9 131.51 289.3 132.27 299.97 132.27C308.6 132.27 311.19 131.85 312.55 130.19C313.54 129.01 313.84 127.76 314.03 123.39C314.09 121.79 314.15 119.57 314.15 118.6V97.29H326.67V118.6C326.48 129.08 326.42 129.85 326.05 133.11C325.37 138.39 322.23 142.07 317.54 143.18C313.84 144.01 309.71 144.29 300.15 144.29C284.43 144.29 279.49 143.32 276.41 139.64C274.38 137.28 273.7 134.43 273.39 127.63C273.33 126.1 273.33 126.1 273.27 118.6V97.29H285.79Z" fill="#212B33"/><path d="M208.73 97.29L197.59 109.55H205.48L196.46 143.59H209.6L221.87 97.29H208.73Z" fill="#DB2017"/><defs><clipPath id="clip0_1790_2"><rect width="345" height="162" fill="white"/></clipPath></defs></svg>