<svg id="Layer_1" data-name="Layer 1" xmlns="http://www.w3.org/2000/svg" xmlns:xlink="http://www.w3.org/1999/xlink" viewBox="0 0 1080 371.37309"><defs><linearGradient id="linear-gradient" x1="31.58357" y1="81.33674" x2="79.29396" y2="294.99631" gradientUnits="userSpaceOnUse"><stop offset="0" stop-color="#e62129"/><stop offset="1" stop-color="#f48120"/></linearGradient><linearGradient id="linear-gradient-2" x1="218.04778" y1="81.44341" x2="230.49397" y2="148.34167" xlink:href="#linear-gradient"/><linearGradient id="linear-gradient-3" x1="158.2754" y1="9.08033" x2="153.60808" y2="125.76334" xlink:href="#linear-gradient"/><linearGradient id="linear-gradient-4" x1="382.70198" y1="252.05021" x2="39.29281" y2="308.1844" xlink:href="#linear-gradient"/></defs><title>Viva Pemilu Logo Final</title><path d="M125.35642,174.718V361.26081L24.03614,302.782A48.08868,48.08868,0,0,1,0,261.15611V136.81268a48.11075,48.11075,0,0,1,24.03614-41.6258l68.038-39.28673v36.7634L56.729,110.32685c-16.53979,8.27-16.53979,21.80757,0,30.07747Z" fill="url(#linear-gradient)"/><path d="M311.494,136.81268V261.15611A48.0889,48.0889,0,0,1,287.4578,302.782L186.13753,361.26081V174.16549l67.50379-33.76117c16.53991-8.2699,16.53991-21.80746,0-30.07747l-34.2032-17.09233V55.91859L287.4578,95.18688A48.111,48.111,0,0,1,311.494,136.81268Z" fill="url(#linear-gradient-2)"/><path d="M199.17775,13.72182v93.03183a13.68955,13.68955,0,0,1-8.28833,12.57988l-59.43648,25.60178a13.65254,13.65254,0,0,1-19.11842-12.57988V37.37113A13.68325,13.68325,0,0,1,120.9728,24.644L180.40939.99456A13.56213,13.56213,0,0,1,185.49281,0,13.72262,13.72262,0,0,1,199.17775,13.72182Z" fill="url(#linear-gradient-3)"/><path d="M311.49633,183.495v77.65242a48.08867,48.08867,0,0,1-24.03615,41.62591l-107.67469,62.1625a48.09316,48.09316,0,0,1-48.07228,0L24.03852,302.77336A48.08868,48.08868,0,0,1,.00238,261.14745V247.64676C221.719,340.72692,168.78165,181.38167,311.49633,183.495Z" fill="url(#linear-gradient-4)"/><path d="M463.41652,97.97953a41.53933,41.53933,0,0,1,4.083,18.5351,41.03313,41.03313,0,0,1-4.083,18.46014,36.266,36.266,0,0,1-10.52764,13.117q-13.04059,10.05619-27.01834,10.05475h-19.6366v17.75079a45.28957,45.28957,0,0,1-.23645,5.421,12.57172,12.57172,0,0,1-1.49077,4.16088q-2.20155,4.24306-12.25485,4.24162-10.99909,0-12.88057-5.81313a26.23337,26.23337,0,0,1-.9429-8.166V88.55338a45.26771,45.26771,0,0,1,.23644-5.41809,12.49728,12.49728,0,0,1,1.49077-4.16376q2.19722-4.24307,12.25485-4.24162h33.61579q13.82347,0,26.86263,10.05474A36.11821,36.11821,0,0,1,463.41652,97.97953Zm-28.11984,28.90415q4.55448-3.45154,4.55592-10.36905,0-6.91173-4.55592-10.444a15.21081,15.21081,0,0,0-9.42614-3.53516h-19.6366v27.80266h19.79231A15.21557,15.21557,0,0,0,435.29668,126.88368Z" fill="#f48120"/><path d="M550.599,73.31411q23.24818,0,40.37181,16.81078,17.12364,16.80789,17.12508,41.70687,0,24.90042-16.33788,42.41621-16.34078,17.51722-40.21611,17.51434-23.87965,0-40.60825-17.2779a57.13348,57.13348,0,0,1-16.73-41.159,63.30118,63.30118,0,0,1,4.71163-24.429,56.65445,56.65445,0,0,1,12.56915-19.08585,58.78927,58.78927,0,0,1,18.0651-12.09627A52.73819,52.73819,0,0,1,550.599,73.31411Zm-28.58985,59.227q0,13.97917,9.03111,22.69887t20.18734,8.71969q11.15048,0,20.10661-8.48325,8.95758-8.48611,8.95614-22.77961,0-14.29059-9.034-22.93531-9.03543-8.63751-20.18735-8.63895-11.15479,0-20.10661,8.7168Q522.00915,118.559,522.00914,132.5411Z" fill="#f48120"/><path d="M725.284,170.3985q2.35726,5.65309,2.35582,8.16894,0,5.96883-9.73756,10.05186a21.60857,21.60857,0,0,1-8.09109,2.203,8.10249,8.10249,0,0,1-5.02881-1.49365,11.24533,11.24533,0,0,1-2.90368-3.06227q-1.5744-2.98442-12.25486-28.437l-4.87022.31718H664.96128v17.75079a45.29,45.29,0,0,1-.23644,5.421,12.572,12.572,0,0,1-1.49077,4.16088q-2.20155,4.24306-12.25485,4.24162-10.9991,0-12.88058-5.81313a26.23337,26.23337,0,0,1-.9429-8.166V88.55338a45.26511,45.26511,0,0,1,.23645-5.41809,12.49746,12.49746,0,0,1,1.49076-4.16376q2.19723-4.24307,12.25486-4.24162h33.93008q13.82347,0,26.86264,10.05474a36.87655,36.87655,0,0,1,10.36905,13.19488,41.53933,41.53933,0,0,1,4.083,18.5351q0,17.75513-11.782,29.22134Q718.05652,154.06206,725.284,170.3985Zm-60.32271-40.06039h20.10661a15.03047,15.03047,0,0,0,9.11185-3.45443q4.55448-3.45154,4.55592-10.36905,0-6.91173-4.55592-10.444a15.20474,15.20474,0,0,0-9.42615-3.53516H664.96128Z" fill="#f48120"/><path d="M756.38825,74.57131h87.344q5.02593,0,7.38463,1.17935a5.95971,5.95971,0,0,1,3.14012,3.69088,22.67807,22.67807,0,0,1,.7872,6.60032,21.81169,21.81169,0,0,1-.7872,6.5167,5.39036,5.39036,0,0,1-2.67011,3.37945,18.3392,18.3392,0,0,1-8.01035,1.41291H813.57084v79.01641a43.22648,43.22648,0,0,1-.23645,5.34312,12.73374,12.73374,0,0,1-1.41291,4.00517,6.65515,6.65515,0,0,1-4.16377,3.22087,26.78132,26.78132,0,0,1-7.85464.94,25.94131,25.94131,0,0,1-7.7739-.94,6.63189,6.63189,0,0,1-4.08591-3.22087,12.67679,12.67679,0,0,1-1.41291-4.08591,45.23394,45.23394,0,0,1-.23645-5.41808V97.35092H756.23254q-5.03025,0-7.38463-1.17646a5.96487,5.96487,0,0,1-3.14012-3.69376,22.64318,22.64318,0,0,1-.7872-6.59743,21.85888,21.85888,0,0,1,.7872-6.51959,5.39641,5.39641,0,0,1,2.67011-3.37945A18.33921,18.33921,0,0,1,756.38825,74.57131Z" fill="#f48120"/><path d="M925.41872,82.89885l42.41621,87.65824q2.673,5.33734,2.67012,8.01035,0,5.65741-9.11184,10.21046-5.33736,2.66867-8.40251,2.673a8.4,8.4,0,0,1-5.02881-1.4158,9.33062,9.33062,0,0,1-2.82583-2.98442q-.86505-1.57006-2.43655-4.71163l-8.16894-16.96648H891.01575L882.8468,182.339q-1.57005,3.14013-2.43366,4.55592a11.28876,11.28876,0,0,1-2.82871,2.90657,8.09275,8.09275,0,0,1-5.02593,1.49076q-3.06228,0-8.40539-2.673-9.11329-4.39445-9.11185-10.05186,0-2.66868,2.673-8.01035l42.41333-87.81395A13.69565,13.69565,0,0,1,905.39,76.93a13.914,13.914,0,0,1,7.46248-2.2001Q921.33426,74.72991,925.41872,82.89885Zm-12.722,37.70169-10.369,21.51953h20.8938Z" fill="#f48120"/><path d="M1025.80183,166.62977h42.73051q5.18164,0,7.54034,1.17647a5.96843,5.96843,0,0,1,3.14013,3.69087,28.70873,28.70873,0,0,1,0,13.35347,5.42444,5.42444,0,0,1-2.67012,3.45731,17.706,17.706,0,0,1-8.16894,1.56862h-56.554q-10.99476,0-12.88057-5.96884a24.66188,24.66188,0,0,1-.9429-8.01035V88.55338a45.26511,45.26511,0,0,1,.23645-5.41809,12.49723,12.49723,0,0,1,1.49076-4.16376q2.20155-4.24307,12.25486-4.24162,10.99476,0,13.03916,5.81024a31.35044,31.35044,0,0,1,.78431,8.17182Z" fill="#f48120"/><path d="M463.41652,237.2754a41.53933,41.53933,0,0,1,4.083,18.5351,41.03313,41.03313,0,0,1-4.083,18.46014,36.266,36.266,0,0,1-10.52764,13.117q-13.04059,10.0562-27.01834,10.05475h-19.6366v17.7508a45.28949,45.28949,0,0,1-.23645,5.421,12.57172,12.57172,0,0,1-1.49077,4.16088q-2.20155,4.24307-12.25485,4.24162-10.99909,0-12.88057-5.81313a26.23337,26.23337,0,0,1-.9429-8.166V227.84925a45.26771,45.26771,0,0,1,.23644-5.41809,12.49728,12.49728,0,0,1,1.49077-4.16376q2.19722-4.24307,12.25485-4.24162h33.61579q13.82347,0,26.86263,10.05474A36.11821,36.11821,0,0,1,463.41652,237.2754Zm-28.11984,28.90415q4.55448-3.45155,4.55592-10.36905,0-6.91173-4.55592-10.444a15.21081,15.21081,0,0,0-9.42614-3.53516h-19.6366V269.634h19.79231A15.21551,15.21551,0,0,0,435.29668,266.17955Z" fill="#e62129"/><path d="M530.64809,301.36972h48.385a45.32239,45.32239,0,0,1,5.421.23645,12.50693,12.50693,0,0,1,4.16089,1.49076q4.24307,2.20155,4.24162,12.252,0,10.99909-5.81024,12.88346a26.28373,26.28373,0,0,1-8.16894.94H516.66891q-10.99909,0-12.88346-5.96884a24.66185,24.66185,0,0,1-.9429-8.01034V227.84925q0-8.01467,2.9873-10.91979,2.98009-2.90224,11.30907-2.90368h61.89421a46.08624,46.08624,0,0,1,5.421.23356A12.6515,12.6515,0,0,1,588.615,215.753q4.24307,2.20155,4.24162,12.25485,0,10.99478-5.81024,12.88058a26.26679,26.26679,0,0,1-8.16894.9429H530.64809v15.865h31.10426a45.95073,45.95073,0,0,1,5.421.23644,12.55524,12.55524,0,0,1,4.16377,1.49365q4.23873,2.19723,4.24162,12.252,0,10.9991-5.97172,12.88058a26.26679,26.26679,0,0,1-8.16894.9429h-30.79Z" fill="#e62129"/><path d="M750.57513,218.42311a12.633,12.633,0,0,1,1.49365,4.24162,48.24275,48.24275,0,0,1,.23356,5.49882V315.3489q0,10.83906-5.96883,12.72487a25.45581,25.45581,0,0,1-7.54034.9429,26.49452,26.49452,0,0,1-7.226-.78431,12.42468,12.42468,0,0,1-4.083-1.88581,7.06885,7.06885,0,0,1-2.20011-3.143,31.17379,31.17379,0,0,1-.78431-8.166V262.40794q-3.93164,4.87455-11.46766,15.47571-7.54322,10.60118-9.58473,13.27273-2.04152,2.673-2.82583,3.69088a15.0825,15.0825,0,0,1-3.84946,2.83159,13.17439,13.17439,0,0,1-13.03917.15571,14.56747,14.56747,0,0,1-4.16376-3.22087l-1.25721-1.72721q-3.14012-3.92732-12.40768-16.73-9.27331-12.80271-10.05474-13.7485v52.941a45.28926,45.28926,0,0,1-.23645,5.421,11.14977,11.14977,0,0,1-1.49077,4.00518q-2.35725,4.24307-12.25485,4.24162-9.58473,0-11.93767-4.24162a11.15651,11.15651,0,0,1-1.49365-4.08591,49.88134,49.88134,0,0,1-.23644-5.65165V227.84925a45.89253,45.89253,0,0,1,.23644-5.41809,12.576,12.576,0,0,1,1.49365-4.16376q2.35726-4.083,12.252-4.083a23.19217,23.19217,0,0,1,7.30389,1.02076,9.427,9.427,0,0,1,4.00806,2.11937l.94291.9429,35.65729,46.81065q26.70837-35.34155,35.66018-46.65494,2.673-4.23874,12.647-4.23874T750.57513,218.42311Z" fill="#e62129"/><path d="M790.004,227.84925a45.89253,45.89253,0,0,1,.23644-5.41809,12.57625,12.57625,0,0,1,1.49365-4.16376q2.19723-4.24307,12.252-4.24162,10.99478,0,13.03917,5.81024a31.35044,31.35044,0,0,1,.78431,8.17182V315.3489a45.7323,45.7323,0,0,1-.23357,5.49883,12.769,12.769,0,0,1-1.49365,4.08591q-2.20153,4.23874-12.252,4.23874-10.99908,0-12.88345-5.96884a24.66185,24.66185,0,0,1-.9429-8.01034Z" fill="#e62129"/><path d="M883.31681,305.92564h42.72763q5.186,0,7.54034,1.17647a5.96408,5.96408,0,0,1,3.143,3.69087,28.81127,28.81127,0,0,1,0,13.35347,5.42438,5.42438,0,0,1-2.67012,3.45731,17.72228,17.72228,0,0,1-8.16894,1.56862h-56.554q-10.99909,0-12.88057-5.96884a24.66151,24.66151,0,0,1-.94291-8.01034V227.84925a45.26725,45.26725,0,0,1,.23645-5.41809,12.49728,12.49728,0,0,1,1.49077-4.16376q2.19722-4.24307,12.25485-4.24162,10.99044,0,13.03628,5.81024a31.19778,31.19778,0,0,1,.78719,8.17182Z" fill="#e62129"/><path d="M1048.10566,218.2674a8.02833,8.02833,0,0,1,4.55593-3.45731,25.21885,25.21885,0,0,1,7.46248-.9429,26.38763,26.38763,0,0,1,7.14818.78431,12.5723,12.5723,0,0,1,4.083,1.8858,6.17294,6.17294,0,0,1,2.04152,3.29872,26.27519,26.27519,0,0,1,.9429,8.17182V275.4471a60.89689,60.89689,0,0,1-12.88057,37.70458,46.76807,46.76807,0,0,1-16.18218,12.95843,48.30708,48.30708,0,0,1-21.91456,4.94807,47.20138,47.20138,0,0,1-21.83382-5.02593,45.38839,45.38839,0,0,1-15.94573-13.19775A60.46492,60.46492,0,0,1,972.858,275.13568V227.84925a47.14225,47.14225,0,0,1,.23645-5.57668,12.507,12.507,0,0,1,1.49076-4.16088,6.8877,6.8877,0,0,1,4.24163-3.3016,34.50941,34.50941,0,0,1,16.02358,0,6.30525,6.30525,0,0,1,4.08591,3.3016q1.8858,3.61158,1.8858,9.89615v47.12784a37.49053,37.49053,0,0,0,4.71163,18.22081,17.62508,17.62508,0,0,0,7.07033,7.06744,22.22733,22.22733,0,0,0,11.15336,2.673q11.46189,0,17.1222-8.48324a34.57973,34.57973,0,0,0,5.65453-19.6366V226.90635Q1046.53416,220.78181,1048.10566,218.2674Z" fill="#e62129"/><path d="M125.35642,174.718V361.26081L24.03614,302.782A48.08868,48.08868,0,0,1,0,261.15611V136.81268a48.11075,48.11075,0,0,1,24.03614-41.6258l68.038-39.28673v36.7634L56.729,110.32685c-16.53979,8.27-16.53979,21.80757,0,30.07747Z" fill="url(#linear-gradient)"/><path d="M311.494,136.81268V261.15611A48.0889,48.0889,0,0,1,287.4578,302.782L186.13753,361.26081V174.16549l67.50379-33.76117c16.53991-8.2699,16.53991-21.80746,0-30.07747l-34.2032-17.09233V55.91859L287.4578,95.18688A48.111,48.111,0,0,1,311.494,136.81268Z" fill="url(#linear-gradient-2)"/><path d="M199.17775,13.72182v93.03183a13.68955,13.68955,0,0,1-8.28833,12.57988l-59.43648,25.60178a13.65254,13.65254,0,0,1-19.11842-12.57988V37.37113A13.68325,13.68325,0,0,1,120.9728,24.644L180.40939.99456A13.56213,13.56213,0,0,1,185.49281,0,13.72262,13.72262,0,0,1,199.17775,13.72182Z" fill="url(#linear-gradient-3)"/><path d="M311.49633,183.495v77.65242a48.08867,48.08867,0,0,1-24.03615,41.62591l-107.67469,62.1625a48.09316,48.09316,0,0,1-48.07228,0L24.03852,302.77336A48.08868,48.08868,0,0,1,.00238,261.14745V247.64676C221.719,340.72692,168.78165,181.38167,311.49633,183.495Z" fill="url(#linear-gradient-4)"/><path d="M463.41652,97.97953a41.53933,41.53933,0,0,1,4.083,18.5351,41.03313,41.03313,0,0,1-4.083,18.46014,36.266,36.266,0,0,1-10.52764,13.117q-13.04059,10.05619-27.01834,10.05475h-19.6366v17.75079a45.28957,45.28957,0,0,1-.23645,5.421,12.57172,12.57172,0,0,1-1.49077,4.16088q-2.20155,4.24306-12.25485,4.24162-10.99909,0-12.88057-5.81313a26.23337,26.23337,0,0,1-.9429-8.166V88.55338a45.26771,45.26771,0,0,1,.23644-5.41809,12.49728,12.49728,0,0,1,1.49077-4.16376q2.19722-4.24307,12.25485-4.24162h33.61579q13.82347,0,26.86263,10.05474A36.11821,36.11821,0,0,1,463.41652,97.97953Zm-28.11984,28.90415q4.55448-3.45154,4.55592-10.36905,0-6.91173-4.55592-10.444a15.21081,15.21081,0,0,0-9.42614-3.53516h-19.6366v27.80266h19.79231A15.21557,15.21557,0,0,0,435.29668,126.88368Z" fill="#f48120"/><path d="M550.599,73.31411q23.24818,0,40.37181,16.81078,17.12364,16.80789,17.12508,41.70687,0,24.90042-16.33788,42.41621-16.34078,17.51722-40.21611,17.51434-23.87965,0-40.60825-17.2779a57.13348,57.13348,0,0,1-16.73-41.159,63.30118,63.30118,0,0,1,4.71163-24.429,56.65445,56.65445,0,0,1,12.56915-19.08585,58.78927,58.78927,0,0,1,18.0651-12.09627A52.73819,52.73819,0,0,1,550.599,73.31411Zm-28.58985,59.227q0,13.97917,9.03111,22.69887t20.18734,8.71969q11.15048,0,20.10661-8.48325,8.95758-8.48611,8.95614-22.77961,0-14.29059-9.034-22.93531-9.03543-8.63751-20.18735-8.63895-11.15479,0-20.10661,8.7168Q522.00915,118.559,522.00914,132.5411Z" fill="#f48120"/><path d="M725.284,170.3985q2.35726,5.65309,2.35582,8.16894,0,5.96883-9.73756,10.05186a21.60857,21.60857,0,0,1-8.09109,2.203,8.10249,8.10249,0,0,1-5.02881-1.49365,11.24533,11.24533,0,0,1-2.90368-3.06227q-1.5744-2.98442-12.25486-28.437l-4.87022.31718H664.96128v17.75079a45.29,45.29,0,0,1-.23644,5.421,12.572,12.572,0,0,1-1.49077,4.16088q-2.20155,4.24306-12.25485,4.24162-10.9991,0-12.88058-5.81313a26.23337,26.23337,0,0,1-.9429-8.166V88.55338a45.26511,45.26511,0,0,1,.23645-5.41809,12.49746,12.49746,0,0,1,1.49076-4.16376q2.19723-4.24307,12.25486-4.24162h33.93008q13.82347,0,26.86264,10.05474a36.87655,36.87655,0,0,1,10.36905,13.19488,41.53933,41.53933,0,0,1,4.083,18.5351q0,17.75513-11.782,29.22134Q718.05652,154.06206,725.284,170.3985Zm-60.32271-40.06039h20.10661a15.03047,15.03047,0,0,0,9.11185-3.45443q4.55448-3.45154,4.55592-10.36905,0-6.91173-4.55592-10.444a15.20474,15.20474,0,0,0-9.42615-3.53516H664.96128Z" fill="#f48120"/><path d="M756.38825,74.57131h87.344q5.02593,0,7.38463,1.17935a5.95971,5.95971,0,0,1,3.14012,3.69088,22.67807,22.67807,0,0,1,.7872,6.60032,21.81169,21.81169,0,0,1-.7872,6.5167,5.39036,5.39036,0,0,1-2.67011,3.37945,18.3392,18.3392,0,0,1-8.01035,1.41291H813.57084v79.01641a43.22648,43.22648,0,0,1-.23645,5.34312,12.73374,12.73374,0,0,1-1.41291,4.00517,6.65515,6.65515,0,0,1-4.16377,3.22087,26.78132,26.78132,0,0,1-7.85464.94,25.94131,25.94131,0,0,1-7.7739-.94,6.63189,6.63189,0,0,1-4.08591-3.22087,12.67679,12.67679,0,0,1-1.41291-4.08591,45.23394,45.23394,0,0,1-.23645-5.41808V97.35092H756.23254q-5.03025,0-7.38463-1.17646a5.96487,5.96487,0,0,1-3.14012-3.69376,22.64318,22.64318,0,0,1-.7872-6.59743,21.85888,21.85888,0,0,1,.7872-6.51959,5.39641,5.39641,0,0,1,2.67011-3.37945A18.33921,18.33921,0,0,1,756.38825,74.57131Z" fill="#f48120"/><path d="M925.41872,82.89885l42.41621,87.65824q2.673,5.33734,2.67012,8.01035,0,5.65741-9.11184,10.21046-5.33736,2.66867-8.40251,2.673a8.4,8.4,0,0,1-5.02881-1.4158,9.33062,9.33062,0,0,1-2.82583-2.98442q-.86505-1.57006-2.43655-4.71163l-8.16894-16.96648H891.01575L882.8468,182.339q-1.57005,3.14013-2.43366,4.55592a11.28876,11.28876,0,0,1-2.82871,2.90657,8.09275,8.09275,0,0,1-5.02593,1.49076q-3.06228,0-8.40539-2.673-9.11329-4.39445-9.11185-10.05186,0-2.66868,2.673-8.01035l42.41333-87.81395A13.69565,13.69565,0,0,1,905.39,76.93a13.914,13.914,0,0,1,7.46248-2.2001Q921.33426,74.72991,925.41872,82.89885Zm-12.722,37.70169-10.369,21.51953h20.8938Z" fill="#f48120"/><path d="M1025.80183,166.62977h42.73051q5.18164,0,7.54034,1.17647a5.96843,5.96843,0,0,1,3.14013,3.69087,28.70873,28.70873,0,0,1,0,13.35347,5.42444,5.42444,0,0,1-2.67012,3.45731,17.706,17.706,0,0,1-8.16894,1.56862h-56.554q-10.99476,0-12.88057-5.96884a24.66188,24.66188,0,0,1-.9429-8.01035V88.55338a45.26511,45.26511,0,0,1,.23645-5.41809,12.49723,12.49723,0,0,1,1.49076-4.16376q2.20155-4.24307,12.25486-4.24162,10.99476,0,13.03916,5.81024a31.35044,31.35044,0,0,1,.78431,8.17182Z" fill="#f48120"/><path d="M463.41652,237.2754a41.53933,41.53933,0,0,1,4.083,18.5351,41.03313,41.03313,0,0,1-4.083,18.46014,36.266,36.266,0,0,1-10.52764,13.117q-13.04059,10.0562-27.01834,10.05475h-19.6366v17.7508a45.28949,45.28949,0,0,1-.23645,5.421,12.57172,12.57172,0,0,1-1.49077,4.16088q-2.20155,4.24307-12.25485,4.24162-10.99909,0-12.88057-5.81313a26.23337,26.23337,0,0,1-.9429-8.166V227.84925a45.26771,45.26771,0,0,1,.23644-5.41809,12.49728,12.49728,0,0,1,1.49077-4.16376q2.19722-4.24307,12.25485-4.24162h33.61579q13.82347,0,26.86263,10.05474A36.11821,36.11821,0,0,1,463.41652,237.2754Zm-28.11984,28.90415q4.55448-3.45155,4.55592-10.36905,0-6.91173-4.55592-10.444a15.21081,15.21081,0,0,0-9.42614-3.53516h-19.6366V269.634h19.79231A15.21551,15.21551,0,0,0,435.29668,266.17955Z" fill="#e62129"/><path d="M530.64809,301.36972h48.385a45.32239,45.32239,0,0,1,5.421.23645,12.50693,12.50693,0,0,1,4.16089,1.49076q4.24307,2.20155,4.24162,12.252,0,10.99909-5.81024,12.88346a26.28373,26.28373,0,0,1-8.16894.94H516.66891q-10.99909,0-12.88346-5.96884a24.66185,24.66185,0,0,1-.9429-8.01034V227.84925q0-8.01467,2.9873-10.91979,2.98009-2.90224,11.30907-2.90368h61.89421a46.08624,46.08624,0,0,1,5.421.23356A12.6515,12.6515,0,0,1,588.615,215.753q4.24307,2.20155,4.24162,12.25485,0,10.99478-5.81024,12.88058a26.26679,26.26679,0,0,1-8.16894.9429H530.64809v15.865h31.10426a45.95073,45.95073,0,0,1,5.421.23644,12.55524,12.55524,0,0,1,4.16377,1.49365q4.23873,2.19723,4.24162,12.252,0,10.9991-5.97172,12.88058a26.26679,26.26679,0,0,1-8.16894.9429h-30.79Z" fill="#e62129"/><path d="M750.57513,218.42311a12.633,12.633,0,0,1,1.49365,4.24162,48.24275,48.24275,0,0,1,.23356,5.49882V315.3489q0,10.83906-5.96883,12.72487a25.45581,25.45581,0,0,1-7.54034.9429,26.49452,26.49452,0,0,1-7.226-.78431,12.42468,12.42468,0,0,1-4.083-1.88581,7.06885,7.06885,0,0,1-2.20011-3.143,31.17379,31.17379,0,0,1-.78431-8.166V262.40794q-3.93164,4.87455-11.46766,15.47571-7.54322,10.60118-9.58473,13.27273-2.04152,2.673-2.82583,3.69088a15.0825,15.0825,0,0,1-3.84946,2.83159,13.17439,13.17439,0,0,1-13.03917.15571,14.56747,14.56747,0,0,1-4.16376-3.22087l-1.25721-1.72721q-3.14012-3.92732-12.40768-16.73-9.27331-12.80271-10.05474-13.7485v52.941a45.28926,45.28926,0,0,1-.23645,5.421,11.14977,11.14977,0,0,1-1.49077,4.00518q-2.35725,4.24307-12.25485,4.24162-9.58473,0-11.93767-4.24162a11.15651,11.15651,0,0,1-1.49365-4.08591,49.88134,49.88134,0,0,1-.23644-5.65165V227.84925a45.89253,45.89253,0,0,1,.23644-5.41809,12.576,12.576,0,0,1,1.49365-4.16376q2.35726-4.083,12.252-4.083a23.19217,23.19217,0,0,1,7.30389,1.02076,9.427,9.427,0,0,1,4.00806,2.11937l.94291.9429,35.65729,46.81065q26.70837-35.34155,35.66018-46.65494,2.673-4.23874,12.647-4.23874T750.57513,218.42311Z" fill="#e62129"/><path d="M790.004,227.84925a45.89253,45.89253,0,0,1,.23644-5.41809,12.57625,12.57625,0,0,1,1.49365-4.16376q2.19723-4.24307,12.252-4.24162,10.99478,0,13.03917,5.81024a31.35044,31.35044,0,0,1,.78431,8.17182V315.3489a45.7323,45.7323,0,0,1-.23357,5.49883,12.769,12.769,0,0,1-1.49365,4.08591q-2.20153,4.23874-12.252,4.23874-10.99908,0-12.88345-5.96884a24.66185,24.66185,0,0,1-.9429-8.01034Z" fill="#e62129"/><path d="M883.31681,305.92564h42.72763q5.186,0,7.54034,1.17647a5.96408,5.96408,0,0,1,3.143,3.69087,28.81127,28.81127,0,0,1,0,13.35347,5.42438,5.42438,0,0,1-2.67012,3.45731,17.72228,17.72228,0,0,1-8.16894,1.56862h-56.554q-10.99909,0-12.88057-5.96884a24.66151,24.66151,0,0,1-.94291-8.01034V227.84925a45.26725,45.26725,0,0,1,.23645-5.41809,12.49728,12.49728,0,0,1,1.49077-4.16376q2.19722-4.24307,12.25485-4.24162,10.99044,0,13.03628,5.81024a31.19778,31.19778,0,0,1,.78719,8.17182Z" fill="#e62129"/><path d="M1048.10566,218.2674a8.02833,8.02833,0,0,1,4.55593-3.45731,25.21885,25.21885,0,0,1,7.46248-.9429,26.38763,26.38763,0,0,1,7.14818.78431,12.5723,12.5723,0,0,1,4.083,1.8858,6.17294,6.17294,0,0,1,2.04152,3.29872,26.27519,26.27519,0,0,1,.9429,8.17182V275.4471a60.89689,60.89689,0,0,1-12.88057,37.70458,46.76807,46.76807,0,0,1-16.18218,12.95843,48.30708,48.30708,0,0,1-21.91456,4.94807,47.20138,47.20138,0,0,1-21.83382-5.02593,45.38839,45.38839,0,0,1-15.94573-13.19775A60.46492,60.46492,0,0,1,972.858,275.13568V227.84925a47.14225,47.14225,0,0,1,.23645-5.57668,12.507,12.507,0,0,1,1.49076-4.16088,6.8877,6.8877,0,0,1,4.24163-3.3016,34.50941,34.50941,0,0,1,16.02358,0,6.30525,6.30525,0,0,1,4.08591,3.3016q1.8858,3.61158,1.8858,9.89615v47.12784a37.49053,37.49053,0,0,0,4.71163,18.22081,17.62508,17.62508,0,0,0,7.07033,7.06744,22.22733,22.22733,0,0,0,11.15336,2.673q11.46189,0,17.1222-8.48324a34.57973,34.57973,0,0,0,5.65453-19.6366V226.90635Q1046.53416,220.78181,1048.10566,218.2674Z" fill="#e62129"/></svg>