<svg width="367" height="360" viewBox="0 0 367 360" xmlns="http://www.w3.org/2000/svg"><g style="mix-blend-mode:multiply" clip-path="url(#clip0_716_1647)"><path d="M365.403 312.227V283.962L336.268 268.569V298.827L309.132 313.163V283.435L280.497 298.563L252.859 283.963V256.227C253.111 256.171 253.348 256.068 253.555 255.925C253.762 255.783 253.935 255.604 254.065 255.398C254.195 255.193 254.278 254.966 254.309 254.73C254.34 254.495 254.319 254.256 254.247 254.028L280.746 240.029L280.996 239.898V209.112L252.361 224.24L224.224 209.375L196.088 224.239L168.452 209.639V180.439L197.088 165.31L168.452 150.181V119.922L139.566 135.185L139.316 135.316V164.518L113.567 150.915C113.639 150.687 113.66 150.448 113.629 150.213C113.598 149.978 113.515 149.75 113.385 149.545C113.256 149.34 113.082 149.161 112.875 149.018C112.668 148.876 112.431 148.773 112.18 148.716V91.2508L140.066 76.5176L140.316 76.3862V45.5995L111.43 60.861L111.18 60.9924V90.7248L83.5445 105.326L56.4053 90.9882L83.794 76.5176L84.044 76.3862V45.5995L55.1583 60.861L54.9083 60.9924V119.926L29.1592 106.323C29.2313 106.095 29.2523 105.856 29.221 105.621C29.1897 105.385 29.1068 105.158 28.9772 104.953C28.8476 104.748 28.674 104.568 28.4668 104.426C28.2596 104.283 28.0231 104.181 27.7715 104.124V75.8599L0.135799 61.2593L27.2715 46.9232L27.7715 47.1875V46.6589L28.2715 46.3948L27.7715 46.1308V16.3999L1.023 2.26809C1.07108 2.11571 1.09672 1.95815 1.09923 1.79956C1.10066 1.46365 0.999136 1.13409 0.806189 0.848321C0.613241 0.562547 0.336601 0.332002 0.00767517 0.182861C-0.321251 0.0337208 -0.689283 -0.0280403 -1.05464 0.00459055C-1.41999 0.0372213 -1.76803 0.162937 -2.05923 0.367463C-2.35044 0.571989 -2.57314 0.847133 -2.70206 1.16165C-2.83098 1.47617 -2.86096 1.81747 -2.78857 2.14679C-2.71619 2.47612 -2.54436 2.78027 -2.29258 3.02473C-2.0408 3.26918 -1.71917 3.44414 -1.3642 3.52974V31.2651L-30 46.3948L-1.8642 61.2593L-29.25 75.7285L-29.5 75.8599V105.59L-30 105.854L-29.5 106.118V135.849L-1.87537 150.443L-29.2724 164.917L-29.5224 165.048V195.833L-0.635679 180.573L-0.385679 180.441V151.23L-0.364201 151.242V120.984L25.8785 107.118C26.1255 107.344 26.4338 107.505 26.7715 107.584V135.847L54.4078 150.446L27.0215 164.914L26.7715 165.046V194.788L0.551821 208.641C0.340063 208.444 0.0815277 208.295 -0.203644 208.205C-0.488815 208.114 -0.792923 208.086 -1.09228 208.12C-1.39163 208.155 -1.67814 208.253 -1.9295 208.406C-2.18086 208.559 -2.39027 208.762 -2.54143 209.001C-2.69258 209.24 -2.78139 209.508 -2.80095 209.784C-2.8205 210.059 -2.77026 210.335 -2.65416 210.59C-2.53805 210.845 -2.3592 211.072 -2.13155 211.253C-1.90389 211.434 -1.63358 211.565 -1.34167 211.635V269.065L-29.2724 283.823L-29.5224 283.954V314.741L-29.4775 314.717V343.942L-1.34167 358.806V359.335L-0.840759 359.071L-0.341669 359.334V358.807L27.544 344.074L27.794 343.942V313.156L0.551319 327.549C0.369053 327.38 0.152061 327.246 -0.0870991 327.155C-0.32626 327.064 -0.582838 327.017 -0.84199 327.017C-1.10114 327.017 -1.35772 327.064 -1.59688 327.155C-1.83604 327.246 -2.05303 327.38 -2.2353 327.549L-28.0004 313.937L-1.34167 299.852V299.881L27.2935 284.753L55.9297 299.881V269.614L83.794 254.893L84.044 254.762V226.499C84.3978 226.413 84.7182 226.238 84.969 225.994C85.2197 225.75 85.3906 225.447 85.4625 225.118C85.5344 224.79 85.5042 224.449 85.3755 224.136C85.2468 223.822 85.0247 223.548 84.7343 223.344C84.4439 223.14 84.0969 223.014 83.7326 222.981C83.3682 222.949 83.0012 223.01 82.6729 223.158C82.3447 223.307 82.0684 223.536 81.8755 223.821C81.6825 224.105 81.5805 224.434 81.5811 224.769C81.5834 224.928 81.609 225.085 81.6573 225.238L55.1583 239.237L54.9083 239.369V268.557L27.794 254.233V195.29L55.4078 180.703L84.044 195.831V165.575L110.287 151.71C110.534 151.936 110.842 152.097 111.18 152.176V180.44L137.929 194.572C137.828 194.878 137.828 195.204 137.929 195.509L111.43 209.51L111.18 209.641V269.065L85.0958 282.848C84.9139 282.612 84.6726 282.42 84.3924 282.289C84.1122 282.157 83.8014 282.089 83.4863 282.09C83.1712 282.091 82.8612 282.162 82.5825 282.297C82.3037 282.431 82.0646 282.625 81.8852 282.862C81.7059 283.099 81.5916 283.373 81.5522 283.659C81.5128 283.945 81.5493 284.235 81.6587 284.506C81.7681 284.776 81.9471 285.018 82.1806 285.212C82.4141 285.405 82.6952 285.545 83 285.618V314.741L111.136 299.876V329.077L140.272 344.47V313.684L112.663 299.098L139.815 284.753L166.065 298.62C165.962 298.963 165.974 299.326 166.097 299.663C166.22 300.001 166.451 300.296 166.758 300.514C167.066 300.731 167.437 300.859 167.825 300.883C168.212 300.907 168.599 300.825 168.935 300.647C169.272 300.469 169.543 300.204 169.714 299.885C169.886 299.566 169.949 299.207 169.898 298.855C169.846 298.502 169.681 298.172 169.423 297.906C169.166 297.639 168.828 297.449 168.452 297.359V239.897L196.088 225.296L223.224 239.633L195.838 254.102L195.588 254.233V283.964L195.088 284.228L195.588 284.492V313.694L167.702 328.426L167.452 328.557V359.342L196.338 344.082L196.588 343.95V314.751L223.724 329.087V329.615L224.224 329.351L252.859 344.48V315.688C253.198 315.608 253.507 315.447 253.754 315.221L279.996 329.084V359.334L308.132 344.47V344.477L337.018 329.216L337.268 329.085V299.884L363.017 313.488C362.969 313.641 362.943 313.799 362.941 313.958C362.94 314.293 363.041 314.623 363.234 314.909C363.427 315.194 363.704 315.425 364.033 315.574C364.362 315.723 364.73 315.785 365.095 315.752C365.46 315.719 365.808 315.593 366.099 315.389C366.39 315.184 366.613 314.909 366.742 314.595C366.871 314.28 366.901 313.939 366.828 313.61C366.756 313.28 366.584 312.976 366.332 312.732C366.08 312.488 365.758 312.313 365.403 312.227ZM252.859 225.034L279.996 210.697V239.369L253.753 253.232C253.506 253.007 253.197 252.846 252.859 252.767V225.034ZM112.18 61.5214L139.315 47.1848V75.8571L112.18 90.1938V61.5214ZM-0.341669 330.543C-0.0900745 330.486 0.146408 330.384 0.353565 330.241C0.560722 330.099 0.73428 329.92 0.863808 329.714C0.993336 329.509 1.07616 329.282 1.10731 329.046C1.13845 328.811 1.11727 328.572 1.04504 328.345L26.794 314.741V343.413L-0.341681 357.75L-0.341669 330.543ZM-2.72937 328.345C-2.80141 328.573 -2.82241 328.812 -2.79112 329.047C-2.75983 329.283 -2.67689 329.51 -2.54728 329.715C-2.41767 329.92 -2.24407 330.099 -2.03689 330.242C-1.82972 330.384 -1.59324 330.487 -1.34167 330.543V357.749L-28.4775 343.413V314.742L-2.72937 328.345ZM-1.38568 298.819L-28.5224 313.156V284.483L-1.38568 270.146V298.819ZM26.794 283.96L-0.341681 298.296V269.626L26.794 255.29V283.96ZM26.794 254.233L-0.341681 268.568V239.898L26.794 225.562V254.233ZM26.794 224.505L-0.341669 238.841V211.635C-0.0901833 211.578 0.146183 211.476 0.353254 211.333C0.560326 211.191 0.733835 211.012 0.863379 210.807C0.992922 210.601 1.07583 210.374 1.10713 210.139C1.13843 209.904 1.11748 209.665 1.04553 209.437L26.794 195.833V224.505ZM55.9083 239.898L82.1509 226.034C82.3981 226.259 82.7064 226.42 83.044 226.499V254.233L55.9083 268.568V239.898ZM-0.364201 3.52991C-0.026329 3.45028 0.282148 3.28948 0.529301 3.06413L26.7715 16.9289V45.6021L-0.364201 31.2647V3.52991ZM-28 46.3948L-0.864691 32.0575L26.2715 46.3948L-0.364201 60.4674V60.467L-0.864201 60.7309L-1.3642 60.467V60.4674L-28 46.3948ZM-28.5 76.3889L-1.3642 62.0522V90.7246L-28.5 105.061V76.3889ZM-1.38568 179.912L-28.5224 194.248V165.577L-1.38568 151.242V179.912ZM-1.3642 149.656L-28.5 135.32V106.647L-1.3642 120.984V149.656ZM25.3848 106.322L-0.86371 120.191L-28 105.854L-15.6728 99.3411L-0.864691 91.5175L25.3848 105.386C25.2839 105.691 25.2839 106.017 25.3848 106.322L25.3848 106.322ZM26.7715 104.124C26.434 104.204 26.1259 104.365 25.879 104.59L-0.364201 90.7246V62.0522L26.7715 76.3889L26.7715 104.124ZM54.9083 269.614V270.154L54.9297 270.142V298.296L27.794 283.96V255.29L54.9083 269.614ZM54.9083 179.91L27.7715 194.245V165.575L54.9083 151.239V179.91ZM54.9083 149.654L27.7715 135.318V107.584C28.1095 107.505 28.418 107.344 28.6651 107.119L54.9083 120.983V149.654ZM55.9083 61.5214L83.044 47.1848V75.8571L55.9083 90.1938V61.5214ZM83.044 194.245L55.9083 179.91V151.239L69.4761 158.407L83.044 165.575L83.044 194.245ZM83.044 164.517L69.4761 157.35L55.9083 150.182V121.512L69.4761 128.679L83.044 135.847L83.044 164.517ZM83.044 134.79L69.4761 127.622L55.9083 120.454V91.7827L83.044 106.118V134.79ZM111.18 148.716C110.928 148.773 110.691 148.875 110.484 149.018C110.277 149.16 110.103 149.339 109.974 149.545C109.844 149.75 109.762 149.977 109.73 150.213C109.699 150.448 109.721 150.687 109.793 150.915L84.044 164.518V135.848L99.5503 127.655L111.18 121.511V148.716ZM111.18 120.454L102.302 125.144L84.044 134.79V106.118L111.18 91.7818V120.454ZM111.136 298.819L84 313.156V285.618C84.4184 285.518 84.7888 285.294 85.0534 284.981C85.3181 284.668 85.462 284.283 85.4629 283.888C85.4629 283.83 85.4502 283.776 85.4444 283.72L111.136 270.146L111.136 298.819ZM139.272 314.213V342.885L112.136 328.548V299.876L139.272 314.213ZM139.315 283.96L112.18 298.296V269.626L139.315 255.29V283.96ZM139.315 254.233L112.18 268.568V239.898L139.315 225.562V254.233ZM139.315 224.504L138.815 224.768L138.817 224.768L112.18 238.841V210.17L138.422 196.305C138.669 196.531 138.978 196.691 139.315 196.771L139.315 224.504ZM139.315 193.311C138.978 193.391 138.67 193.551 138.423 193.776L112.18 179.911V152.176C112.517 152.097 112.826 151.936 113.073 151.711L139.315 165.576V193.311ZM195.088 165.31L167.953 179.647L140.816 165.31L154.125 158.279L167.952 150.974L195.088 165.31ZM140.315 135.845L167.452 121.508V150.181L140.315 164.518V135.845ZM140.315 166.103L167.452 180.44V209.112L141.703 195.509C141.775 195.281 141.796 195.042 141.765 194.807C141.734 194.571 141.651 194.344 141.521 194.139C141.392 193.934 141.218 193.755 141.011 193.612C140.804 193.47 140.567 193.367 140.316 193.311L140.315 166.103ZM140.315 196.771C140.654 196.692 140.962 196.531 141.209 196.305L166.95 209.904L140.315 223.975L140.315 196.771ZM167.452 297.359C167.114 297.438 166.806 297.599 166.559 297.824L140.315 283.96V255.291L167.452 269.627V297.359ZM167.452 268.568L140.315 254.233V225.56L167.452 239.898V268.568ZM167.953 239.105L140.815 224.768L167.95 210.432L168.452 210.697V210.695L195.088 224.768L167.953 239.105ZM195.588 343.421L168.452 357.757V329.086L195.588 314.751V343.421ZM197.088 224.768L224.224 210.431L251.359 224.768L224.724 238.841V238.841L224.224 239.105L223.724 238.841V238.841L197.088 224.768ZM196.588 254.763L223.724 240.426V269.098L196.588 283.435V254.763ZM223.724 328.03L196.588 313.693V285.02L223.724 299.357V328.03ZM197.088 284.228L209.415 277.715L224.223 269.891L251.359 284.228L239.032 290.74L224.224 298.564L197.088 284.228ZM224.724 299.885L250.473 313.49C250.372 313.795 250.372 314.121 250.473 314.426L224.724 328.03V299.885ZM251.859 342.895L225.224 328.823L250.966 315.222C251.214 315.447 251.522 315.608 251.859 315.688V342.895ZM251.859 312.228C251.522 312.307 251.213 312.468 250.966 312.693L225.224 299.092L251.859 285.02V312.228ZM251.859 283.435L224.724 269.098V240.426L250.473 254.03C250.401 254.257 250.38 254.496 250.411 254.731C250.442 254.966 250.525 255.193 250.655 255.399C250.784 255.604 250.958 255.783 251.165 255.925C251.372 256.068 251.608 256.17 251.859 256.227L251.859 283.435ZM251.859 252.767C251.522 252.847 251.213 253.008 250.966 253.233L225.224 239.633L251.859 225.56V252.767ZM279.996 328.027L254.248 314.424C254.319 314.196 254.34 313.958 254.309 313.723C254.277 313.487 254.194 313.26 254.065 313.055C253.935 312.85 253.761 312.671 253.554 312.529C253.347 312.386 253.111 312.284 252.859 312.227V285.02L279.996 299.356V328.027ZM308.132 343.413L280.996 357.749V329.084L308.132 314.748V343.413ZM308.132 313.685L280.996 328.022V299.356L308.132 285.02V313.685ZM336.268 328.556L309.132 342.891V314.22L336.268 299.884V328.556ZM364.403 312.228C364.066 312.307 363.758 312.468 363.511 312.692L337.268 298.827V270.155L364.403 284.491V312.228Z"/></g><defs><clipPath id="clip0_716_1647"><rect width="396.867" height="359.339" transform="translate(-30 0.00390625)"/></clipPath></defs></svg>