<svg width="703" height="522" viewBox="0 0 703 522" xmlns="http://www.w3.org/2000/svg"><g clip-path="url(#clip0_716_1644)"><g style="mix-blend-mode:multiply"><path d="M703 418.698L668.034 398.524L702.068 378.889L702.379 378.71V338.364L703 338.006L702.379 337.647V297.301L668.049 277.494L702.096 257.852L702.407 257.674V215.896L666.509 236.606L666.198 236.784V276.427L666.17 276.411V317.475L633.557 336.29C633.251 335.984 632.867 335.766 632.447 335.658V256.963L597.481 236.791V196.447L564.237 177.269C564.365 176.853 564.366 176.409 564.239 175.992L597.17 156.994L597.481 156.816V117.204L631.177 136.643V218.047L665.033 198.515C665.296 198.782 665.617 198.985 665.972 199.107C666.326 199.23 666.704 199.269 667.076 199.221C667.448 199.174 667.804 199.041 668.116 198.834C668.428 198.627 668.689 198.35 668.876 198.025C669.064 197.701 669.174 197.338 669.199 196.964C669.223 196.59 669.161 196.215 669.016 195.87C668.872 195.524 668.65 195.216 668.367 194.97C668.084 194.724 667.748 194.546 667.385 194.451V116.514L702.096 96.4879L702.407 96.3097V54.5283L667.385 74.7338V74.6937L631.799 95.224L596.211 74.6937V115.769L561.583 135.747L561.272 135.925V174.28C560.752 174.415 560.291 174.719 559.962 175.144C559.633 175.569 559.454 176.091 559.454 176.628C559.454 177.165 559.633 177.687 559.962 178.112C560.291 178.537 560.752 178.841 561.272 178.976V217.337L596.238 237.508V277.135L562.515 296.59V256.957L527.549 236.784V236.066L526.927 236.425L526.307 236.067V236.783L491.652 256.778L491.341 256.956V298.736L525.195 279.204C525.422 279.433 525.691 279.615 525.989 279.74C526.286 279.864 526.606 279.928 526.928 279.928C527.251 279.928 527.57 279.864 527.867 279.74C528.165 279.616 528.435 279.434 528.661 279.205L561.272 298.018V379.429L596.859 358.897L631.205 378.71L665.549 398.524L631.826 417.981L631.205 417.622V418.34L630.583 418.698L631.205 419.056V459.402L666.17 479.575V517.215C665.731 517.331 665.333 517.569 665.021 517.9C664.709 518.232 664.497 518.643 664.408 519.089C664.319 519.535 664.356 519.997 664.516 520.422C664.676 520.848 664.952 521.22 665.313 521.497C665.674 521.774 666.105 521.944 666.558 521.989C667.011 522.033 667.467 521.95 667.875 521.748C668.282 521.547 668.626 521.236 668.865 520.849C669.105 520.463 669.232 520.017 669.231 519.563C669.228 519.347 669.196 519.133 669.136 518.926L702.068 499.926L702.379 499.748V457.968L667.413 478.141V439.229L703 418.698ZM667.441 76.1358L701.164 56.6797V95.5918L667.441 115.048V76.1358ZM632.42 96.3L666.142 76.8452V115.754L632.42 135.208V96.3ZM632.42 136.643L666.142 117.188V156.098L632.42 175.553V136.643ZM632.42 176.987L666.142 157.533V194.452C665.83 194.529 665.536 194.668 665.279 194.862C665.022 195.055 664.806 195.298 664.645 195.577C664.484 195.855 664.381 196.164 664.342 196.483C664.304 196.802 664.33 197.126 664.419 197.435L632.42 215.896L632.42 176.987ZM597.454 76.8452L631.177 96.3V135.208L597.481 115.769V115.037L597.454 115.052V76.8452ZM526.307 275.143C525.994 275.22 525.701 275.359 525.443 275.552C525.186 275.745 524.97 275.988 524.809 276.266C524.648 276.545 524.545 276.853 524.506 277.172C524.467 277.491 524.493 277.815 524.582 278.123L492.584 296.585V257.674L526.307 238.218L526.307 275.143ZM561.272 296.583L529.274 278.123C529.363 277.815 529.389 277.491 529.35 277.172C529.311 276.853 529.208 276.545 529.047 276.266C528.886 275.988 528.67 275.745 528.413 275.552C528.156 275.359 527.862 275.22 527.549 275.143V238.219L561.272 257.675V296.583ZM596.238 357.822L562.515 377.278V338.367L596.238 318.912V357.822ZM596.238 317.476L562.515 336.932V298.024L596.238 278.569V317.476ZM562.515 136.643L596.238 117.188V156.098L563.626 174.912C563.318 174.606 562.935 174.388 562.515 174.28V136.643ZM596.238 236.073L562.515 216.619V178.976C562.933 178.869 563.315 178.652 563.622 178.349L596.238 197.165V236.073ZM701.136 377.992L667.413 397.448V358.538L701.136 339.082V377.992ZM667.441 237.502L701.164 218.047V256.956L667.441 276.411V237.502ZM667.413 278.562L701.136 298.019V336.93L667.413 317.474V278.562ZM634.171 337.37L666.791 318.55L700.514 338.006L685.195 346.844L666.792 357.461L634.171 338.641C634.297 338.227 634.297 337.784 634.171 337.37V337.37ZM631.205 377.276L597.481 357.821V318.912L614.343 328.64L629.48 337.372C629.421 337.578 629.389 337.791 629.386 338.006C629.387 338.543 629.566 339.064 629.895 339.489C630.224 339.914 630.685 340.218 631.205 340.354V377.276ZM631.205 335.658C630.784 335.766 630.4 335.985 630.093 336.291L614.343 327.205L597.481 317.478V278.569L614.343 288.297L631.205 298.024V335.658ZM631.205 296.589L614.343 286.862L597.481 277.135V238.225L631.205 257.681V296.589ZM632.447 377.992V340.354C632.867 340.245 633.25 340.027 633.557 339.722L666.17 358.538V397.448L632.447 377.992ZM666.17 478.141L632.447 458.685V419.774L666.17 439.23V478.141ZM701.136 460.119V499.03L668.522 517.846C668.216 517.54 667.833 517.322 667.413 517.215V479.575L701.136 460.119ZM666.792 438.154L633.069 418.698L666.17 399.599V399.6L666.792 399.241L667.413 399.6V399.599L700.515 418.698L666.792 438.154Z"/></g><g style="mix-blend-mode:multiply"><path d="M494.402 216.971C494.399 216.756 494.367 216.543 494.307 216.336L527.239 197.337L527.55 197.159V116.514L559.967 97.8105C560.193 98.1298 560.493 98.3898 560.841 98.5686C561.189 98.7474 561.576 98.8396 561.967 98.8375C562.359 98.8354 562.744 98.739 563.09 98.5564C563.436 98.3738 563.733 98.1105 563.956 97.7888C564.179 97.4671 564.321 97.0965 564.369 96.7083C564.418 96.3202 564.373 95.926 564.237 95.5592C564.101 95.1923 563.878 94.8637 563.588 94.6011C563.298 94.3385 562.949 94.1497 562.57 94.0507V54.5281L527.604 74.7015V35.072L491.396 14.1825V55.9627L525.706 75.7571L491.963 95.2237L459.342 76.4048C459.469 75.9394 459.455 75.4467 459.302 74.9893C459.148 74.5319 458.862 74.1304 458.48 73.8358C458.097 73.5412 457.636 73.3668 457.154 73.3348C456.673 73.3027 456.192 73.4145 455.774 73.6559C455.356 73.8972 455.019 74.2573 454.807 74.6904C454.594 75.1234 454.514 75.6099 454.579 76.088C454.643 76.5661 454.849 77.0144 455.169 77.3757C455.488 77.737 455.909 77.9952 456.376 78.1174V115.035L456.375 115.034V156.098L422.03 175.912L388.307 156.457L422.341 136.82L422.652 136.642V96.2956L423.273 95.9372L422.652 95.5788V55.9503L457.307 35.9573L457.617 35.779V-6L421.72 14.7101L421.409 14.8883V54.5156L387.686 35.0602V34.343L387.065 34.7015L351.478 14.1691V53.2431C351.057 53.3516 350.674 53.5704 350.366 53.8768L317.754 35.0635V-5.98908L282.788 14.1843V14.1752L246.89 34.8853L246.58 35.0635V74.6897L212.857 55.2342V54.5172L212.236 54.8755L211.614 54.5172V55.2342L177.27 75.0472L141.682 54.5172V95.5773L107.959 115.032V75.403L71.7505 54.5135V54.5144L36.785 34.3407V75.4048L4.1713 94.22C3.83101 93.8769 3.3964 93.6426 2.92263 93.5468C2.44886 93.451 1.95728 93.498 1.51029 93.6819C1.0633 93.8657 0.681049 94.1781 0.412055 94.5795C0.143061 94.9808 -0.000549316 95.4529 -0.000549316 95.936C-0.000549316 96.419 0.143061 96.8911 0.412055 97.2924C0.681049 97.6938 1.0633 98.0062 1.51029 98.19C1.95728 98.3739 2.44886 98.4209 2.92263 98.3251C3.3964 98.2293 3.83101 97.995 4.1713 97.652L36.785 116.467V157.531L72.6826 136.819L72.9932 136.64V97.0108L106.716 116.466V157.526L140.571 137.995C140.878 138.301 141.262 138.519 141.682 138.627V176.982L177.891 197.871V157.527L212.857 177.699V135.92L178.513 116.108L212.232 96.6542L247.822 117.187V76.1243L281.545 56.6692V135.929L246.89 155.923L246.58 156.101V197.883L280.436 178.35C280.699 178.617 281.02 178.819 281.375 178.942C281.729 179.064 282.107 179.103 282.479 179.056C282.851 179.008 283.207 178.876 283.519 178.668C283.831 178.461 284.092 178.184 284.279 177.86C284.467 177.535 284.577 177.172 284.602 176.798C284.626 176.424 284.563 176.05 284.419 175.704C284.275 175.358 284.053 175.05 283.77 174.804C283.487 174.558 283.151 174.381 282.788 174.286V136.644L317.443 116.648L317.754 116.47V76.8413L351.478 96.2961V133.936C351.165 134.013 350.871 134.152 350.613 134.346C350.356 134.539 350.14 134.782 349.979 135.061C349.818 135.339 349.715 135.648 349.676 135.967C349.638 136.287 349.664 136.611 349.754 136.92L316.822 155.919L316.511 156.098V197.875L352.098 177.346L387.065 197.519L422.03 177.346L456.996 197.519L491.341 177.705V214.623C490.902 214.74 490.503 214.977 490.192 215.309C489.88 215.64 489.668 216.052 489.579 216.498C489.489 216.943 489.527 217.405 489.687 217.831C489.847 218.257 490.123 218.629 490.484 218.906C490.844 219.183 491.276 219.353 491.728 219.397C492.181 219.442 492.637 219.359 493.045 219.157C493.453 218.956 493.796 218.644 494.036 218.258C494.276 217.872 494.403 217.426 494.402 216.971L494.402 216.971ZM527.604 76.1355L561.327 56.6795V94.0513C560.807 94.1871 560.347 94.4911 560.018 94.9158C559.69 95.3405 559.511 95.862 559.51 96.3989C559.51 96.4771 559.526 96.5508 559.533 96.6269L527.604 115.048V76.1355ZM492.639 55.2447V16.3339L526.362 35.7899V74.7008L492.639 55.2447ZM492.584 96.2998L526.307 76.845V115.753L492.584 135.208V96.2998ZM492.584 136.643L526.307 117.188V156.098L492.584 175.552V136.643ZM492.584 176.988L493.205 176.629L493.205 176.629L526.307 157.532V196.441L493.694 215.255C493.387 214.95 493.004 214.731 492.584 214.623V176.988ZM422.652 15.6063L456.375 -3.8486V35.0611L422.652 54.5159V15.6063ZM4.78486 96.572C4.91118 96.1573 4.91118 95.7145 4.78486 95.2998L37.4057 76.4803L71.1287 95.9359L55.8097 104.774L37.4063 115.392L4.78486 96.572ZM71.7505 135.922L38.0277 155.38V116.468L71.7505 97.0116V135.922ZM71.7505 94.8602L38.0277 75.4041V36.4921L71.7505 55.9494V94.8602ZM106.716 115.032L72.9932 95.5758V56.6649L106.716 76.1208V115.032ZM141.682 133.932C141.369 134.008 141.075 134.147 140.818 134.341C140.56 134.534 140.344 134.777 140.183 135.056C140.022 135.334 139.919 135.643 139.881 135.962C139.842 136.282 139.868 136.606 139.958 136.915L107.959 155.375V116.466L141.682 97.0116L141.682 133.932ZM176.648 195.719L142.925 176.264V138.627C143.344 138.52 143.728 138.301 144.035 137.995L159.787 147.082L176.648 156.81V195.719ZM176.648 155.375L159.787 145.648L144.648 136.915C144.738 136.606 144.765 136.282 144.726 135.962C144.687 135.643 144.584 135.334 144.423 135.056C144.262 134.777 144.046 134.534 143.789 134.341C143.531 134.147 143.237 134.008 142.925 133.932V97.0116L159.787 106.739L176.648 116.466V155.375ZM176.648 115.032L159.787 105.304L142.925 95.577V56.6685L176.648 76.1233V115.032ZM211.614 136.638V175.548L177.891 156.092V117.183L211.614 136.638ZM211.614 95.577L177.891 115.032V76.1233L211.614 56.6685V95.577ZM246.58 115.035L212.857 95.5794V56.6685L246.58 76.1246V115.035ZM281.545 174.286C281.233 174.363 280.939 174.502 280.681 174.695C280.424 174.889 280.208 175.132 280.047 175.411C279.886 175.689 279.783 175.998 279.744 176.317C279.706 176.637 279.732 176.961 279.822 177.27L247.822 195.731V156.819L281.545 137.363V174.286ZM281.545 55.235L247.822 74.6898V35.7815L281.545 16.3266V55.235ZM316.511 115.752L282.788 135.209V96.2973L316.511 76.8413V115.752ZM316.511 75.4067L282.788 94.8615V55.9612L316.511 36.506V75.4067ZM316.511 35.0638L282.788 54.5189V15.6184L316.511 -3.83769V35.0638ZM351.478 176.269L317.754 195.724V156.816L350.367 138C350.674 138.306 351.058 138.524 351.478 138.632V176.269ZM351.478 94.8615L317.754 75.4067V36.4982L349.753 54.9579C349.694 55.1639 349.662 55.377 349.659 55.5914C349.66 56.1285 349.839 56.6501 350.168 57.0749C350.497 57.4997 350.958 57.8037 351.478 57.9395L351.478 94.8615ZM421.409 135.924L387.686 155.381V116.469L421.409 97.0128V135.924ZM387.686 36.4946L421.409 55.9506V94.8615L387.686 75.4055V36.4946ZM420.787 95.9372L405.468 104.776L387.065 115.393L353.342 95.9372L368.661 87.0986L387.064 76.4814L420.787 95.9372ZM386.443 74.6887L354.444 56.2271C354.57 55.8128 354.57 55.3704 354.444 54.9562L386.443 36.4946V74.6887ZM352.72 16.3206L385.821 35.4189L353.831 53.8762C353.524 53.57 353.141 53.3515 352.72 53.2434L352.72 16.3206ZM352.72 57.9392C353.14 57.831 353.523 57.613 353.83 57.3076L385.821 75.7644L352.72 94.8615V57.9392ZM352.72 97.0128L386.443 116.469V155.381L354.444 136.918C354.504 136.712 354.536 136.499 354.538 136.285C354.537 135.747 354.358 135.226 354.03 134.801C353.701 134.376 353.24 134.072 352.72 133.937V97.0128ZM352.72 138.632C353.14 138.524 353.524 138.305 353.831 137.999L385.822 156.457L352.72 175.554V138.632ZM387.065 196.085L353.342 176.629L386.443 157.532V157.532L387.065 157.174L387.686 157.532V157.532L420.788 176.629L387.065 196.085ZM456.996 196.085L423.273 176.629L456.995 157.174L490.72 176.629L456.996 196.085ZM491.341 175.554L457.617 156.098V117.187L491.341 136.643V175.554ZM491.341 135.207L457.618 115.752V78.1172C458.038 78.009 458.421 77.7907 458.728 77.4849L491.341 96.2998L491.341 135.207Z"/></g></g><defs><clipPath id="clip0_716_1644"><rect width="703" height="528" transform="translate(0 -6)"/></clipPath></defs></svg>